<?xml version="1.0" encoding="UTF-8"?>
<svg version="1.1" xmlns="http://www.w3.org/2000/svg" width="500" height="500">
<path d="M0 0 C165 0 330 0 500 0 C500 165 500 330 500 500 C335 500 170 500 0 500 C0 335 0 170 0 0 Z " fill="#FEFEFE" transform="translate(0,0)"/>
<path d="M0 0 C1.58906267 -0.00761181 1.58906267 -0.00761181 3.21022761 -0.0153774 C4.37819829 -0.01587516 5.54616897 -0.01637292 6.7495327 -0.01688576 C8.60595235 -0.02345914 8.60595235 -0.02345914 10.49987543 -0.03016531 C13.94181169 -0.04123648 17.38370246 -0.04777979 20.82564998 -0.05234647 C24.53542485 -0.05830173 28.24518295 -0.06991181 31.95494652 -0.08063698 C40.91784442 -0.10516335 49.88074787 -0.1197888 58.843669 -0.13269705 C61.37519225 -0.13640891 63.90671496 -0.14038215 66.43823767 -0.14444971 C82.15829771 -0.16968696 97.87835862 -0.19174033 113.59843445 -0.20417786 C117.23997692 -0.20710756 120.88151935 -0.21006922 124.52306175 -0.21308327 C125.42815134 -0.21382932 126.33324094 -0.21457537 127.26575749 -0.21534403 C141.92562802 -0.22799596 156.58537723 -0.26121662 171.24519105 -0.3028851 C186.29596546 -0.34531413 201.34667778 -0.36887404 216.39751184 -0.37409842 C224.84805084 -0.37751152 233.29840026 -0.38925465 241.74888039 -0.42220116 C248.94629944 -0.45021622 256.14349005 -0.46119468 263.34095939 -0.4500057 C267.01206086 -0.44482262 270.68268405 -0.44768209 274.3537159 -0.47247124 C278.33773641 -0.49914879 282.32110683 -0.48689108 286.30519676 -0.47098732 C287.45978311 -0.48486941 288.61436946 -0.49875149 289.80394328 -0.51305425 C298.22468644 -0.43024326 304.25560458 1.48430332 310.28331566 7.51201439 C313.77716959 13.15593227 315.28252897 17.53889574 315.29599571 24.18900108 C315.30407402 25.20018496 315.30407402 25.20018496 315.31231552 26.2317968 C315.32652742 28.47179593 315.31950859 30.71119842 315.31236839 32.95122337 C315.31807552 34.56487563 315.32504111 36.17852386 315.33316612 37.79216576 C315.35107466 42.1620422 315.34993352 46.53171759 315.34422374 50.90161967 C315.34112859 54.55466401 315.34722795 58.20766991 315.35326248 61.86070877 C315.36729849 70.48091948 315.36575408 79.10103106 315.35436058 87.7212429 C315.34287959 96.60374189 315.35695678 105.48593893 315.38375705 114.36839813 C315.40593301 122.00514073 315.41254718 129.64178867 315.40668064 137.27856117 C315.40331448 141.83504886 315.40570351 146.391343 315.42293167 150.9478035 C315.43842904 155.23334643 315.43441452 159.51844295 315.41562653 163.80396843 C315.41194838 165.37285656 315.41502652 166.94177797 315.42551231 168.51063538 C315.4935999 179.5436361 314.40157013 186.57329499 306.90831566 195.13701439 C307.74362816 195.47732689 307.74362816 195.47732689 308.59581566 195.82451439 C319.66721438 202.10828123 322.16252446 217.43705754 325.97081566 228.69951439 C326.44264416 230.08450484 326.91490403 231.46934839 327.38756371 232.8540554 C328.38270838 235.77097473 329.37579694 238.68858184 330.36730003 241.60674095 C332.71751721 248.52066483 335.0857817 255.42840771 337.45393944 262.33620262 C338.19439627 264.49740307 338.93346444 266.65907378 339.67223167 268.82085228 C340.02375298 269.84731865 340.02375298 269.84731865 340.38237572 270.89452171 C340.84792002 272.25527812 341.31192513 273.61656216 341.77434349 274.97838402 C342.98635148 278.52974763 344.24437858 282.05598056 345.57311058 285.56548119 C348.54022341 293.4717017 350.92716986 300.50061909 350.59581566 309.07451439 C350.56475731 310.40688133 350.56475731 310.40688133 350.53307152 311.76616478 C350.24324576 318.33897732 349.45831443 324.08378994 344.90831566 329.13701439 C338.71084658 334.45228146 333.7257098 336.25724021 325.63160229 336.27402878 C324.33336523 336.27910332 323.03512817 336.28417786 321.69755059 336.28940618 C320.25346748 336.29000784 318.80938432 336.29050693 317.36530113 336.29091454 C315.83383628 336.29492982 314.30237248 336.29936815 312.77090997 336.30419409 C308.55593818 336.31615786 304.34097785 336.32180757 300.12599242 336.32637525 C295.58255489 336.33233199 291.03913104 336.34394156 286.49570274 336.35466576 C275.52059655 336.37918661 264.54548584 336.39381568 253.57036069 336.40672582 C250.47091226 336.41043774 247.37146427 336.41441096 244.27201629 336.41847849 C225.02727151 336.44371304 205.78252603 336.46576738 186.53776836 336.47820663 C182.08031079 336.48113635 177.62285325 336.48409802 173.16539574 336.48711205 C171.50356689 336.48823112 171.50356689 336.48823112 169.80816575 336.4893728 C151.85690775 336.50202928 133.90574873 336.53525668 115.95453701 336.57691388 C97.52725404 336.61932561 79.10002175 336.64290072 60.67269009 336.6481272 C50.32522862 336.65154198 39.97792188 336.66330528 29.63050842 336.69622993 C20.81916144 336.72422099 12.00800093 336.73523386 3.19661293 336.72403447 C-1.29874539 336.71884559 -5.79371315 336.72174948 -10.28901482 336.74650002 C-14.40673703 336.76898236 -18.52378789 336.76826088 -22.64152179 336.74929614 C-24.12877572 336.7464947 -25.61607508 336.75210283 -27.10325595 336.76710908 C-35.58546705 336.84744458 -42.24599545 336.51806962 -49.09168434 331.13701439 C-55.65476563 324.40122044 -56.97025483 317.37607385 -57.14563942 308.36479759 C-56.66232508 293.14587414 -49.93384613 278.38356471 -44.62561989 264.29790306 C-43.24864109 260.62105984 -42.00293123 256.90875736 -40.77449989 253.18005943 C-39.93785296 250.67673718 -39.02247923 248.21016203 -38.07605934 245.74638939 C-37.71544411 244.79957298 -37.35482887 243.85275658 -36.9832859 242.87724876 C-36.60655739 241.89047142 -36.22982887 240.90369408 -35.84168434 239.88701439 C-32.47630552 231.03538126 -29.33044743 222.14728152 -26.56336403 213.08916283 C-24.44282419 206.40959706 -21.55141075 198.70100137 -15.09168434 195.13701439 C-14.43168434 195.13701439 -13.77168434 195.13701439 -13.09168434 195.13701439 C-13.58539528 194.44994408 -14.07910622 193.76287376 -14.58777809 193.05498314 C-15.22844215 192.15392845 -15.86910622 191.25287376 -16.52918434 190.32451439 C-17.16727028 189.43119408 -17.80535622 188.53787376 -18.46277809 187.61748314 C-21.149525 183.52615391 -21.22332854 180.37638916 -21.24558449 175.57950401 C-21.25215787 174.57556338 -21.25215787 174.57556338 -21.25886405 173.55134112 C-21.27224139 171.30377297 -21.27842858 169.05624403 -21.28455544 166.80864525 C-21.29245745 165.19883103 -21.30072646 163.58901858 -21.30933571 161.97920799 C-21.33555155 156.68677524 -21.35086621 151.3943346 -21.36512184 146.10185814 C-21.37048233 144.27848429 -21.37585984 142.4551105 -21.3812542 140.63173676 C-21.40288522 133.04408357 -21.42161985 125.45643251 -21.43287659 117.86875629 C-21.44910115 107.00458061 -21.48224001 96.1407634 -21.53927743 85.27672285 C-21.57803348 77.63325722 -21.59751617 69.98988722 -21.60279715 62.34632593 C-21.6064438 57.78403642 -21.61839116 53.2221293 -21.65089989 48.65994644 C-21.68107922 44.36293796 -21.68725749 40.06654123 -21.67551613 35.76944923 C-21.67529619 34.19815536 -21.68353469 32.62683229 -21.70116997 31.05563736 C-21.79448047 22.25844056 -21.58043946 14.44262948 -16.09168434 7.13701439 C-11.07128385 2.47168547 -6.95780116 0.01767501 0 0 Z " fill="#FCFCFC" transform="translate(103.09168434143066,77.86298561096191)"/>
<path d="M0 0 C1.58906267 -0.00761181 1.58906267 -0.00761181 3.21022761 -0.0153774 C4.37819829 -0.01587516 5.54616897 -0.01637292 6.7495327 -0.01688576 C8.60595235 -0.02345914 8.60595235 -0.02345914 10.49987543 -0.03016531 C13.94181169 -0.04123648 17.38370246 -0.04777979 20.82564998 -0.05234647 C24.53542485 -0.05830173 28.24518295 -0.06991181 31.95494652 -0.08063698 C40.91784442 -0.10516335 49.88074787 -0.1197888 58.843669 -0.13269705 C61.37519225 -0.13640891 63.90671496 -0.14038215 66.43823767 -0.14444971 C82.15829771 -0.16968696 97.87835862 -0.19174033 113.59843445 -0.20417786 C117.23997692 -0.20710756 120.88151935 -0.21006922 124.52306175 -0.21308327 C125.42815134 -0.21382932 126.33324094 -0.21457537 127.26575749 -0.21534403 C141.92562802 -0.22799596 156.58537723 -0.26121662 171.24519105 -0.3028851 C186.29596546 -0.34531413 201.34667778 -0.36887404 216.39751184 -0.37409842 C224.84805084 -0.37751152 233.29840026 -0.38925465 241.74888039 -0.42220116 C248.94629944 -0.45021622 256.14349005 -0.46119468 263.34095939 -0.4500057 C267.01206086 -0.44482262 270.68268405 -0.44768209 274.3537159 -0.47247124 C278.33773641 -0.49914879 282.32110683 -0.48689108 286.30519676 -0.47098732 C287.45978311 -0.48486941 288.61436946 -0.49875149 289.80394328 -0.51305425 C298.22468644 -0.43024326 304.25560458 1.48430332 310.28331566 7.51201439 C313.77716959 13.15593227 315.28252897 17.53889574 315.29599571 24.18900108 C315.30407402 25.20018496 315.30407402 25.20018496 315.31231552 26.2317968 C315.32652742 28.47179593 315.31950859 30.71119842 315.31236839 32.95122337 C315.31807552 34.56487563 315.32504111 36.17852386 315.33316612 37.79216576 C315.35107466 42.1620422 315.34993352 46.53171759 315.34422374 50.90161967 C315.34112859 54.55466401 315.34722795 58.20766991 315.35326248 61.86070877 C315.36729849 70.48091948 315.36575408 79.10103106 315.35436058 87.7212429 C315.34287959 96.60374189 315.35695678 105.48593893 315.38375705 114.36839813 C315.40593301 122.00514073 315.41254718 129.64178867 315.40668064 137.27856117 C315.40331448 141.83504886 315.40570351 146.391343 315.42293167 150.9478035 C315.43842904 155.23334643 315.43441452 159.51844295 315.41562653 163.80396843 C315.41194838 165.37285656 315.41502652 166.94177797 315.42551231 168.51063538 C315.4935999 179.5436361 314.40157013 186.57329499 306.90831566 195.13701439 C307.74362816 195.47732689 307.74362816 195.47732689 308.59581566 195.82451439 C319.66721438 202.10828123 322.16252446 217.43705754 325.97081566 228.69951439 C326.44264416 230.08450484 326.91490403 231.46934839 327.38756371 232.8540554 C328.38270838 235.77097473 329.37579694 238.68858184 330.36730003 241.60674095 C332.71751721 248.52066483 335.0857817 255.42840771 337.45393944 262.33620262 C338.19439627 264.49740307 338.93346444 266.65907378 339.67223167 268.82085228 C340.02375298 269.84731865 340.02375298 269.84731865 340.38237572 270.89452171 C340.84792002 272.25527812 341.31192513 273.61656216 341.77434349 274.97838402 C342.98635148 278.52974763 344.24437858 282.05598056 345.57311058 285.56548119 C348.54022341 293.4717017 350.92716986 300.50061909 350.59581566 309.07451439 C350.56475731 310.40688133 350.56475731 310.40688133 350.53307152 311.76616478 C350.24324576 318.33897732 349.45831443 324.08378994 344.90831566 329.13701439 C338.71084658 334.45228146 333.7257098 336.25724021 325.63160229 336.27402878 C324.33336523 336.27910332 323.03512817 336.28417786 321.69755059 336.28940618 C320.25346748 336.29000784 318.80938432 336.29050693 317.36530113 336.29091454 C315.83383628 336.29492982 314.30237248 336.29936815 312.77090997 336.30419409 C308.55593818 336.31615786 304.34097785 336.32180757 300.12599242 336.32637525 C295.58255489 336.33233199 291.03913104 336.34394156 286.49570274 336.35466576 C275.52059655 336.37918661 264.54548584 336.39381568 253.57036069 336.40672582 C250.47091226 336.41043774 247.37146427 336.41441096 244.27201629 336.41847849 C225.02727151 336.44371304 205.78252603 336.46576738 186.53776836 336.47820663 C182.08031079 336.48113635 177.62285325 336.48409802 173.16539574 336.48711205 C171.50356689 336.48823112 171.50356689 336.48823112 169.80816575 336.4893728 C151.85690775 336.50202928 133.90574873 336.53525668 115.95453701 336.57691388 C97.52725404 336.61932561 79.10002175 336.64290072 60.67269009 336.6481272 C50.32522862 336.65154198 39.97792188 336.66330528 29.63050842 336.69622993 C20.81916144 336.72422099 12.00800093 336.73523386 3.19661293 336.72403447 C-1.29874539 336.71884559 -5.79371315 336.72174948 -10.28901482 336.74650002 C-14.40673703 336.76898236 -18.52378789 336.76826088 -22.64152179 336.74929614 C-24.12877572 336.7464947 -25.61607508 336.75210283 -27.10325595 336.76710908 C-35.58546705 336.84744458 -42.24599545 336.51806962 -49.09168434 331.13701439 C-55.65476563 324.40122044 -56.97025483 317.37607385 -57.14563942 308.36479759 C-56.66232508 293.14587414 -49.93384613 278.38356471 -44.62561989 264.29790306 C-43.24864109 260.62105984 -42.00293123 256.90875736 -40.77449989 253.18005943 C-39.93785296 250.67673718 -39.02247923 248.21016203 -38.07605934 245.74638939 C-37.71544411 244.79957298 -37.35482887 243.85275658 -36.9832859 242.87724876 C-36.60655739 241.89047142 -36.22982887 240.90369408 -35.84168434 239.88701439 C-32.47630552 231.03538126 -29.33044743 222.14728152 -26.56336403 213.08916283 C-24.44282419 206.40959706 -21.55141075 198.70100137 -15.09168434 195.13701439 C-14.43168434 195.13701439 -13.77168434 195.13701439 -13.09168434 195.13701439 C-13.58539528 194.44994408 -14.07910622 193.76287376 -14.58777809 193.05498314 C-15.22844215 192.15392845 -15.86910622 191.25287376 -16.52918434 190.32451439 C-17.16727028 189.43119408 -17.80535622 188.53787376 -18.46277809 187.61748314 C-21.149525 183.52615391 -21.22332854 180.37638916 -21.24558449 175.57950401 C-21.25215787 174.57556338 -21.25215787 174.57556338 -21.25886405 173.55134112 C-21.27224139 171.30377297 -21.27842858 169.05624403 -21.28455544 166.80864525 C-21.29245745 165.19883103 -21.30072646 163.58901858 -21.30933571 161.97920799 C-21.33555155 156.68677524 -21.35086621 151.3943346 -21.36512184 146.10185814 C-21.37048233 144.27848429 -21.37585984 142.4551105 -21.3812542 140.63173676 C-21.40288522 133.04408357 -21.42161985 125.45643251 -21.43287659 117.86875629 C-21.44910115 107.00458061 -21.48224001 96.1407634 -21.53927743 85.27672285 C-21.57803348 77.63325722 -21.59751617 69.98988722 -21.60279715 62.34632593 C-21.6064438 57.78403642 -21.61839116 53.2221293 -21.65089989 48.65994644 C-21.68107922 44.36293796 -21.68725749 40.06654123 -21.67551613 35.76944923 C-21.67529619 34.19815536 -21.68353469 32.62683229 -21.70116997 31.05563736 C-21.79448047 22.25844056 -21.58043946 14.44262948 -16.09168434 7.13701439 C-11.07128385 2.47168547 -6.95780116 0.01767501 0 0 Z M-13.06745434 14.58824921 C-14.37065182 17.83121647 -14.47225941 20.42106829 -14.4793644 23.91725731 C-14.48474993 24.58629306 -14.49013547 25.25532881 -14.49568421 25.94463837 C-14.50995544 28.17936271 -14.50286246 30.41349399 -14.49573708 32.64824486 C-14.50144116 34.25337258 -14.50840557 35.85849624 -14.51653481 37.46361351 C-14.53447868 41.81907892 -14.53329535 46.17434299 -14.52759242 50.52983427 C-14.52450186 54.16796065 -14.53059165 57.80604829 -14.53663117 61.44416916 C-14.55067927 70.02882874 -14.54911318 78.61338881 -14.53772926 87.19804955 C-14.52625181 96.04871707 -14.54031675 104.89908144 -14.56712574 113.74970901 C-14.58929338 121.35327501 -14.5959176 128.95674594 -14.59004933 136.56034195 C-14.58668059 141.09950145 -14.58908903 145.63846669 -14.60630035 150.17759895 C-14.62178405 154.44751822 -14.61779832 158.71698915 -14.59899521 162.98689079 C-14.59531303 164.55135959 -14.59840702 166.11586169 -14.608881 167.68029976 C-14.97059063 178.69976791 -14.97059063 178.69976791 -10.09168434 188.13701439 C-3.87304144 192.74422108 1.5083107 192.70638211 9.08542442 192.65167809 C10.92352766 192.66209638 10.92352766 192.66209638 12.79876429 192.67272514 C16.18828269 192.68782862 19.57692114 192.6850595 22.96639955 192.67457211 C26.62635225 192.66757064 30.28621584 192.68358519 33.9461422 192.69656944 C41.11147366 192.718199 48.27664623 192.71808525 55.44199961 192.7099439 C61.26653208 192.70364108 67.09101825 192.70478351 72.91555023 192.71121597 C73.74490039 192.71211763 74.57425055 192.71301928 75.42873253 192.71394826 C77.11361596 192.71579949 78.79849937 192.71766205 80.48338277 192.71953582 C96.27933775 192.73611069 112.07520339 192.7273978 127.871153 192.71055024 C142.31806835 192.69585406 156.7647757 192.71048104 171.21166425 192.7393204 C186.05127004 192.76872278 200.89077986 192.77968421 215.7304135 192.7701382 C217.40936409 192.76911567 219.0883147 192.76812106 220.76726532 192.76715469 C221.59330779 192.7666783 222.41935026 192.76620191 223.27042432 192.76571109 C229.08620499 192.76354804 234.90189468 192.77334523 240.71765518 192.78792572 C247.80780676 192.80545345 254.89769321 192.80532554 261.98783439 192.78257407 C265.60413736 192.77143558 269.21997329 192.76825975 272.83625603 192.78687477 C276.75915566 192.80680801 280.68132632 192.78788596 284.60422325 192.76520348 C286.31303363 192.78295707 286.31303363 192.78295707 288.05636543 192.80106932 C294.83216982 192.72141108 299.85610743 191.91541245 304.90831566 187.13701439 C307.86178998 182.83174627 308.28788761 179.35533034 308.30945396 174.19855309 C308.31625063 173.52457936 308.3230473 172.85060563 308.33004993 172.15620846 C308.34895339 169.91080013 308.3465897 167.66594045 308.34410667 165.42046165 C308.35308839 163.80533208 308.36329759 162.19020894 308.37463951 160.57509422 C308.40109845 156.19698539 308.40817114 151.81905254 308.41008687 147.44087148 C308.41222146 144.70399226 308.41863015 141.96715759 308.42657852 139.23028946 C308.45431609 129.6779287 308.46658575 120.12569339 308.46422386 110.57329369 C308.46242091 101.67534481 308.49409329 92.77794122 308.54145485 83.88013035 C308.58070028 76.23407732 308.59677483 68.58820241 308.59485763 60.94204944 C308.59409336 56.37819128 308.60260871 51.81481812 308.63439178 47.25106049 C308.66346954 42.9588177 308.66365117 38.66752254 308.64184189 34.37524605 C308.63870869 32.80269865 308.64576798 31.23009189 308.66392326 29.65764618 C309.03740144 20.20266242 309.03740144 20.20266242 305.30026817 11.83414268 C299.91192267 6.41352196 293.49002291 5.78875534 286.24245507 5.72179788 C285.10879932 5.72644369 283.97514358 5.7310895 282.80713463 5.73587608 C281.58989958 5.72907941 280.37266453 5.72228274 279.11854357 5.71528012 C275.75197509 5.6996048 272.38588833 5.69731999 269.01931775 5.70086324 C265.38390883 5.70147669 261.74857101 5.6849056 258.11319542 5.67069054 C250.996025 5.64580185 243.87892912 5.63752748 236.76171882 5.6358534 C230.97628347 5.63442673 225.19087268 5.62825655 219.4054451 5.61875153 C202.99673151 5.59234244 186.58807673 5.57849208 170.17934174 5.58074295 C169.29527667 5.58086282 168.4112116 5.58098268 167.50035667 5.58110619 C166.17263736 5.58129015 166.17263736 5.58129015 164.81809544 5.58147783 C150.46815482 5.58269759 136.11845022 5.55397693 121.76857788 5.51169109 C107.02841905 5.4685983 92.28837534 5.44788051 77.54815191 5.45047241 C69.27486126 5.45146814 61.00181817 5.44323498 52.72858429 5.41093826 C45.68599176 5.38362129 38.64375908 5.37709869 31.60113651 5.39746653 C28.00904714 5.40726113 24.41764813 5.40743911 20.82562447 5.38140678 C16.92892355 5.35345704 13.03323034 5.37214169 9.13648033 5.39529991 C8.00505531 5.37986922 6.87363029 5.36443853 5.70791966 5.34854025 C-2.92247886 5.46197501 -7.66732946 7.88859584 -13.06745434 14.58824921 Z " fill="#111111" transform="translate(103.09168434143066,77.86298561096191)"/>
<path d="M0 0 C1.58906267 -0.00761181 1.58906267 -0.00761181 3.21022761 -0.0153774 C4.37819829 -0.01587516 5.54616897 -0.01637292 6.7495327 -0.01688576 C8.60595235 -0.02345914 8.60595235 -0.02345914 10.49987543 -0.03016531 C13.94181169 -0.04123648 17.38370246 -0.04777979 20.82564998 -0.05234647 C24.53542485 -0.05830173 28.24518295 -0.06991181 31.95494652 -0.08063698 C40.91784442 -0.10516335 49.88074787 -0.1197888 58.843669 -0.13269705 C61.37519225 -0.13640891 63.90671496 -0.14038215 66.43823767 -0.14444971 C82.15829771 -0.16968696 97.87835862 -0.19174033 113.59843445 -0.20417786 C117.23997692 -0.20710756 120.88151935 -0.21006922 124.52306175 -0.21308327 C125.42815134 -0.21382932 126.33324094 -0.21457537 127.26575749 -0.21534403 C141.92562802 -0.22799596 156.58537723 -0.26121662 171.24519105 -0.3028851 C186.29596546 -0.34531413 201.34667778 -0.36887404 216.39751184 -0.37409842 C224.84805084 -0.37751152 233.29840026 -0.38925465 241.74888039 -0.42220116 C248.94629944 -0.45021622 256.14349005 -0.46119468 263.34095939 -0.4500057 C267.01206086 -0.44482262 270.68268405 -0.44768209 274.3537159 -0.47247124 C278.33773641 -0.49914879 282.32110683 -0.48689108 286.30519676 -0.47098732 C287.45978311 -0.48486941 288.61436946 -0.49875149 289.80394328 -0.51305425 C298.22468644 -0.43024326 304.25560458 1.48430332 310.28331566 7.51201439 C313.77716959 13.15593227 315.28252897 17.53889574 315.29599571 24.18900108 C315.30407402 25.20018496 315.30407402 25.20018496 315.31231552 26.2317968 C315.32652742 28.47179593 315.31950859 30.71119842 315.31236839 32.95122337 C315.31807552 34.56487563 315.32504111 36.17852386 315.33316612 37.79216576 C315.35107466 42.1620422 315.34993352 46.53171759 315.34422374 50.90161967 C315.34112859 54.55466401 315.34722795 58.20766991 315.35326248 61.86070877 C315.36729849 70.48091948 315.36575408 79.10103106 315.35436058 87.7212429 C315.34287959 96.60374189 315.35695678 105.48593893 315.38375705 114.36839813 C315.40593301 122.00514073 315.41254718 129.64178867 315.40668064 137.27856117 C315.40331448 141.83504886 315.40570351 146.391343 315.42293167 150.9478035 C315.43842904 155.23334643 315.43441452 159.51844295 315.41562653 163.80396843 C315.41194838 165.37285656 315.41502652 166.94177797 315.42551231 168.51063538 C315.4935999 179.5436361 314.40157013 186.57329499 306.90831566 195.13701439 C307.74362816 195.47732689 307.74362816 195.47732689 308.59581566 195.82451439 C319.66721438 202.10828123 322.16252446 217.43705754 325.97081566 228.69951439 C326.44264416 230.08450484 326.91490403 231.46934839 327.38756371 232.8540554 C328.38270838 235.77097473 329.37579694 238.68858184 330.36730003 241.60674095 C332.71751721 248.52066483 335.0857817 255.42840771 337.45393944 262.33620262 C338.19439627 264.49740307 338.93346444 266.65907378 339.67223167 268.82085228 C340.02375298 269.84731865 340.02375298 269.84731865 340.38237572 270.89452171 C340.84792002 272.25527812 341.31192513 273.61656216 341.77434349 274.97838402 C342.98635148 278.52974763 344.24437858 282.05598056 345.57311058 285.56548119 C348.54022341 293.4717017 350.92716986 300.50061909 350.59581566 309.07451439 C350.56475731 310.40688133 350.56475731 310.40688133 350.53307152 311.76616478 C350.24324576 318.33897732 349.45831443 324.08378994 344.90831566 329.13701439 C338.71084658 334.45228146 333.7257098 336.25724021 325.63160229 336.27402878 C324.33336523 336.27910332 323.03512817 336.28417786 321.69755059 336.28940618 C320.25346748 336.29000784 318.80938432 336.29050693 317.36530113 336.29091454 C315.83383628 336.29492982 314.30237248 336.29936815 312.77090997 336.30419409 C308.55593818 336.31615786 304.34097785 336.32180757 300.12599242 336.32637525 C295.58255489 336.33233199 291.03913104 336.34394156 286.49570274 336.35466576 C275.52059655 336.37918661 264.54548584 336.39381568 253.57036069 336.40672582 C250.47091226 336.41043774 247.37146427 336.41441096 244.27201629 336.41847849 C225.02727151 336.44371304 205.78252603 336.46576738 186.53776836 336.47820663 C182.08031079 336.48113635 177.62285325 336.48409802 173.16539574 336.48711205 C171.50356689 336.48823112 171.50356689 336.48823112 169.80816575 336.4893728 C151.85690775 336.50202928 133.90574873 336.53525668 115.95453701 336.57691388 C97.52725404 336.61932561 79.10002175 336.64290072 60.67269009 336.6481272 C50.32522862 336.65154198 39.97792188 336.66330528 29.63050842 336.69622993 C20.81916144 336.72422099 12.00800093 336.73523386 3.19661293 336.72403447 C-1.29874539 336.71884559 -5.79371315 336.72174948 -10.28901482 336.74650002 C-14.40673703 336.76898236 -18.52378789 336.76826088 -22.64152179 336.74929614 C-24.12877572 336.7464947 -25.61607508 336.75210283 -27.10325595 336.76710908 C-35.58546705 336.84744458 -42.24599545 336.51806962 -49.09168434 331.13701439 C-55.65476563 324.40122044 -56.97025483 317.37607385 -57.14563942 308.36479759 C-56.66232508 293.14587414 -49.93384613 278.38356471 -44.62561989 264.29790306 C-43.24864109 260.62105984 -42.00293123 256.90875736 -40.77449989 253.18005943 C-39.93785296 250.67673718 -39.02247923 248.21016203 -38.07605934 245.74638939 C-37.71544411 244.79957298 -37.35482887 243.85275658 -36.9832859 242.87724876 C-36.60655739 241.89047142 -36.22982887 240.90369408 -35.84168434 239.88701439 C-32.47630552 231.03538126 -29.33044743 222.14728152 -26.56336403 213.08916283 C-24.44282419 206.40959706 -21.55141075 198.70100137 -15.09168434 195.13701439 C-14.43168434 195.13701439 -13.77168434 195.13701439 -13.09168434 195.13701439 C-13.58539528 194.44994408 -14.07910622 193.76287376 -14.58777809 193.05498314 C-15.22844215 192.15392845 -15.86910622 191.25287376 -16.52918434 190.32451439 C-17.16727028 189.43119408 -17.80535622 188.53787376 -18.46277809 187.61748314 C-21.149525 183.52615391 -21.22332854 180.37638916 -21.24558449 175.57950401 C-21.25215787 174.57556338 -21.25215787 174.57556338 -21.25886405 173.55134112 C-21.27224139 171.30377297 -21.27842858 169.05624403 -21.28455544 166.80864525 C-21.29245745 165.19883103 -21.30072646 163.58901858 -21.30933571 161.97920799 C-21.33555155 156.68677524 -21.35086621 151.3943346 -21.36512184 146.10185814 C-21.37048233 144.27848429 -21.37585984 142.4551105 -21.3812542 140.63173676 C-21.40288522 133.04408357 -21.42161985 125.45643251 -21.43287659 117.86875629 C-21.44910115 107.00458061 -21.48224001 96.1407634 -21.53927743 85.27672285 C-21.57803348 77.63325722 -21.59751617 69.98988722 -21.60279715 62.34632593 C-21.6064438 57.78403642 -21.61839116 53.2221293 -21.65089989 48.65994644 C-21.68107922 44.36293796 -21.68725749 40.06654123 -21.67551613 35.76944923 C-21.67529619 34.19815536 -21.68353469 32.62683229 -21.70116997 31.05563736 C-21.79448047 22.25844056 -21.58043946 14.44262948 -16.09168434 7.13701439 C-11.07128385 2.47168547 -6.95780116 0.01767501 0 0 Z M-13.06745434 14.58824921 C-14.37065182 17.83121647 -14.47225941 20.42106829 -14.4793644 23.91725731 C-14.48474993 24.58629306 -14.49013547 25.25532881 -14.49568421 25.94463837 C-14.50995544 28.17936271 -14.50286246 30.41349399 -14.49573708 32.64824486 C-14.50144116 34.25337258 -14.50840557 35.85849624 -14.51653481 37.46361351 C-14.53447868 41.81907892 -14.53329535 46.17434299 -14.52759242 50.52983427 C-14.52450186 54.16796065 -14.53059165 57.80604829 -14.53663117 61.44416916 C-14.55067927 70.02882874 -14.54911318 78.61338881 -14.53772926 87.19804955 C-14.52625181 96.04871707 -14.54031675 104.89908144 -14.56712574 113.74970901 C-14.58929338 121.35327501 -14.5959176 128.95674594 -14.59004933 136.56034195 C-14.58668059 141.09950145 -14.58908903 145.63846669 -14.60630035 150.17759895 C-14.62178405 154.44751822 -14.61779832 158.71698915 -14.59899521 162.98689079 C-14.59531303 164.55135959 -14.59840702 166.11586169 -14.608881 167.68029976 C-14.97059063 178.69976791 -14.97059063 178.69976791 -10.09168434 188.13701439 C-3.87304144 192.74422108 1.5083107 192.70638211 9.08542442 192.65167809 C10.92352766 192.66209638 10.92352766 192.66209638 12.79876429 192.67272514 C16.18828269 192.68782862 19.57692114 192.6850595 22.96639955 192.67457211 C26.62635225 192.66757064 30.28621584 192.68358519 33.9461422 192.69656944 C41.11147366 192.718199 48.27664623 192.71808525 55.44199961 192.7099439 C61.26653208 192.70364108 67.09101825 192.70478351 72.91555023 192.71121597 C73.74490039 192.71211763 74.57425055 192.71301928 75.42873253 192.71394826 C77.11361596 192.71579949 78.79849937 192.71766205 80.48338277 192.71953582 C96.27933775 192.73611069 112.07520339 192.7273978 127.871153 192.71055024 C142.31806835 192.69585406 156.7647757 192.71048104 171.21166425 192.7393204 C186.05127004 192.76872278 200.89077986 192.77968421 215.7304135 192.7701382 C217.40936409 192.76911567 219.0883147 192.76812106 220.76726532 192.76715469 C221.59330779 192.7666783 222.41935026 192.76620191 223.27042432 192.76571109 C229.08620499 192.76354804 234.90189468 192.77334523 240.71765518 192.78792572 C247.80780676 192.80545345 254.89769321 192.80532554 261.98783439 192.78257407 C265.60413736 192.77143558 269.21997329 192.76825975 272.83625603 192.78687477 C276.75915566 192.80680801 280.68132632 192.78788596 284.60422325 192.76520348 C286.31303363 192.78295707 286.31303363 192.78295707 288.05636543 192.80106932 C294.83216982 192.72141108 299.85610743 191.91541245 304.90831566 187.13701439 C307.86178998 182.83174627 308.28788761 179.35533034 308.30945396 174.19855309 C308.31625063 173.52457936 308.3230473 172.85060563 308.33004993 172.15620846 C308.34895339 169.91080013 308.3465897 167.66594045 308.34410667 165.42046165 C308.35308839 163.80533208 308.36329759 162.19020894 308.37463951 160.57509422 C308.40109845 156.19698539 308.40817114 151.81905254 308.41008687 147.44087148 C308.41222146 144.70399226 308.41863015 141.96715759 308.42657852 139.23028946 C308.45431609 129.6779287 308.46658575 120.12569339 308.46422386 110.57329369 C308.46242091 101.67534481 308.49409329 92.77794122 308.54145485 83.88013035 C308.58070028 76.23407732 308.59677483 68.58820241 308.59485763 60.94204944 C308.59409336 56.37819128 308.60260871 51.81481812 308.63439178 47.25106049 C308.66346954 42.9588177 308.66365117 38.66752254 308.64184189 34.37524605 C308.63870869 32.80269865 308.64576798 31.23009189 308.66392326 29.65764618 C309.03740144 20.20266242 309.03740144 20.20266242 305.30026817 11.83414268 C299.91192267 6.41352196 293.49002291 5.78875534 286.24245507 5.72179788 C285.10879932 5.72644369 283.97514358 5.7310895 282.80713463 5.73587608 C281.58989958 5.72907941 280.37266453 5.72228274 279.11854357 5.71528012 C275.75197509 5.6996048 272.38588833 5.69731999 269.01931775 5.70086324 C265.38390883 5.70147669 261.74857101 5.6849056 258.11319542 5.67069054 C250.996025 5.64580185 243.87892912 5.63752748 236.76171882 5.6358534 C230.97628347 5.63442673 225.19087268 5.62825655 219.4054451 5.61875153 C202.99673151 5.59234244 186.58807673 5.57849208 170.17934174 5.58074295 C169.29527667 5.58086282 168.4112116 5.58098268 167.50035667 5.58110619 C166.17263736 5.58129015 166.17263736 5.58129015 164.81809544 5.58147783 C150.46815482 5.58269759 136.11845022 5.55397693 121.76857788 5.51169109 C107.02841905 5.4685983 92.28837534 5.44788051 77.54815191 5.45047241 C69.27486126 5.45146814 61.00181817 5.44323498 52.72858429 5.41093826 C45.68599176 5.38362129 38.64375908 5.37709869 31.60113651 5.39746653 C28.00904714 5.40726113 24.41764813 5.40743911 20.82562447 5.38140678 C16.92892355 5.35345704 13.03323034 5.37214169 9.13648033 5.39529991 C8.00505531 5.37986922 6.87363029 5.36443853 5.70791966 5.34854025 C-2.92247886 5.46197501 -7.66732946 7.88859584 -13.06745434 14.58824921 Z M-17.30262184 207.12920189 C-19.99535238 212.60000634 -21.78983237 218.49105244 -23.71668434 224.26201439 C-24.15120121 225.5446702 -24.58651929 226.82705485 -25.02259254 228.10918236 C-25.92889484 230.77623504 -26.83174678 233.44441609 -27.73182106 236.11357689 C-29.8891265 242.50502122 -32.08292237 248.88386363 -34.27918434 255.26201439 C-34.69385963 256.46777122 -35.10853493 257.67352806 -35.53577614 258.91582298 C-38.21187798 266.66901524 -40.96360625 274.38906735 -43.84827614 282.06719017 C-48.78541725 293.76484486 -48.78541725 293.76484486 -49.09168434 306.13701439 C-46.91009289 308.89270885 -45.21990941 310.57290186 -42.09168434 312.13701439 C-40.48247525 312.22972434 -38.869424 312.25893751 -37.25754738 312.25726891 C-35.72625443 312.2593309 -35.72625443 312.2593309 -34.16402626 312.26143456 C-33.03977745 312.25783928 -31.91552864 312.254244 -30.75721169 312.25053978 C-29.57673759 312.25068581 -28.3962635 312.25083183 -27.18001747 312.25098228 C-23.93848659 312.25040398 -20.69699859 312.24538022 -17.45547628 312.23840833 C-14.06953523 312.23216745 -10.68359339 312.23157041 -7.29764748 312.23038292 C-0.88387424 312.22727178 5.529882 312.2190613 11.94364774 312.20903343 C19.24464112 312.19786558 26.54563531 312.19236014 33.8466351 312.18733799 C48.86720477 312.17687851 63.88775852 312.15928325 78.90831566 312.13701439 C78.90391126 311.37869977 78.89950686 310.62038515 78.89496899 309.8390913 C78.88983052 308.34939091 78.88983052 308.34939091 78.88458824 306.82959557 C78.88018384 305.84440595 78.87577944 304.85921633 78.87124157 303.84417248 C78.93536514 299.16185536 79.98817854 294.85094787 81.09581566 290.32451439 C81.29239769 289.42281517 81.48897972 288.52111595 81.69151878 287.59209251 C81.90099144 286.71359642 82.1104641 285.83510033 82.32628441 284.92998314 C82.50957298 284.15163109 82.69286156 283.37327904 82.88170433 282.57134056 C84.33895807 279.11586446 85.88760867 276.3752538 88.90831566 274.13701439 C92.58254193 273.24211101 96.18704752 273.33752569 99.95323753 273.39238548 C101.06759682 273.38508415 102.1819561 273.37778282 103.33008385 273.37026024 C107.0130316 273.35405023 110.69421895 273.38126496 114.37706566 273.41045189 C116.93626975 273.41148913 119.49547545 273.41045357 122.05467796 273.40743065 C127.41809904 273.40761009 132.78090291 273.42778875 138.1441555 273.46465111 C144.33881509 273.50698492 150.53273311 273.5140056 156.72750807 273.50152719 C162.69431742 273.49012477 168.66090394 273.50165884 174.62769127 273.52387428 C177.16343702 273.53157597 179.69920509 273.53387566 182.23496056 273.53070259 C185.77820444 273.52996133 189.32031941 273.55519785 192.86339378 273.58769798 C193.91289711 273.58274315 194.96240044 273.57778831 196.04370689 273.57268333 C200.45310329 273.63727659 203.16052256 273.69821839 207.01781273 275.96162987 C209.58030177 278.9102627 210.21116426 281.53480688 211.09581566 285.32451439 C211.33715233 286.33034569 211.33715233 286.33034569 211.58336449 287.35649681 C212.04087781 289.27963121 212.47524131 291.20822955 212.90831566 293.13701439 C213.12487816 294.00584251 213.34144066 294.87467064 213.56456566 295.76982689 C214.50678447 299.63569523 215.0834536 303.43651285 215.45909691 307.39873314 C215.54457787 308.28907249 215.63005882 309.17941185 215.71813011 310.09673119 C215.78089134 310.77002464 215.84365257 311.4433181 215.90831566 312.13701439 C231.32032795 312.20714045 246.73232827 312.26002018 262.14446259 312.2924509 C269.30082729 312.30791028 276.45709277 312.32898191 283.61339378 312.36333275 C289.85188422 312.3932637 296.09030278 312.41259615 302.32886302 312.41927987 C305.63121792 312.42318593 308.93331967 312.43392656 312.2356205 312.45420456 C315.92498309 312.47595973 319.61391885 312.47898203 323.30333519 312.47759056 C324.94008453 312.4937693 324.94008453 312.4937693 326.60989952 312.51027489 C332.09154773 312.48788206 336.24507908 312.37491352 340.90831566 309.13701439 C343.63460812 305.0475757 343.43563981 301.9377812 342.90831566 297.13701439 C342.09383994 294.07850306 340.89690554 291.23341419 339.65831566 288.32451439 C335.66815755 278.42796875 332.24454861 268.39204985 328.90831566 258.26201439 C327.87645 255.1393915 326.84346435 252.01713922 325.81065941 248.89482689 C325.56099922 248.13936073 325.31133904 247.38389458 325.05411339 246.60553551 C321.79093066 236.74116805 318.44540977 226.90684515 314.90831566 217.13701439 C314.66532738 216.4623513 314.4223391 215.78768822 314.17198753 215.0925808 C311.59420625 208.0477469 309.69608165 203.39269695 302.5782817 200.03925461 C299.72103557 199.07372833 297.52946329 198.88328827 294.52089024 198.87695217 C292.9092541 198.86635378 292.9092541 198.86635378 291.26505965 198.85554129 C289.50330971 198.85916392 289.50330971 198.85916392 287.70596886 198.86285973 C286.45369068 198.85762305 285.20141251 198.85238637 283.91118652 198.846991 C280.43762346 198.83281759 276.96414991 198.83114758 273.49056208 198.83158791 C269.7433402 198.82993913 265.99615514 198.81687155 262.24895287 198.80539513 C254.05682483 198.78255148 245.8647227 198.77462534 237.67256713 198.76956868 C232.55689467 198.7663112 227.44122973 198.75978845 222.32556152 198.75256729 C208.15993269 198.73300291 193.99431085 198.71659751 179.82866764 198.71369076 C178.92229909 198.71350319 178.01593053 198.71331562 177.08209627 198.71312236 C175.24469618 198.71275612 173.40729609 198.71239242 171.56989601 198.71203125 C170.20177775 198.71175704 170.20177775 198.71175704 168.80602074 198.71147728 C167.89282799 198.71129673 166.97963525 198.71111618 166.03877 198.71093016 C151.23931477 198.70738795 136.440005 198.6803619 121.64060023 198.64297939 C106.44398874 198.60490087 91.24744944 198.58553332 76.05078918 198.58523124 C67.51927942 198.58464661 58.98794321 198.57615025 50.45647812 198.54723358 C43.19246144 198.52272587 35.92868163 198.51543266 28.66463479 198.53048111 C24.95922302 198.53765238 21.25427905 198.53678389 17.54891968 198.51407051 C13.52947342 198.48966807 9.51109238 198.50410974 5.49161339 198.52228355 C4.32380559 198.50908359 3.15599779 198.49588362 1.95280188 198.48228365 C-6.45269145 198.56918249 -12.18341365 200.20108621 -17.30262184 207.12920189 Z " fill="#0C0C0C" transform="translate(103.09168434143066,77.86298561096191)"/>
<path d="M0 0 C1.2531326 -0.00538554 2.50626519 -0.01077108 3.79737151 -0.01631981 C7.26872847 -0.0307702 10.73984793 -0.02653106 14.21121788 -0.019153 C17.95774437 -0.01442255 21.70421938 -0.02693012 25.45072937 -0.03717041 C32.78796223 -0.05436657 40.12510949 -0.05519668 47.46235727 -0.04995751 C53.42659037 -0.04591586 59.39079817 -0.0473593 65.35503006 -0.05270576 C66.62839983 -0.0538284 66.62839983 -0.0538284 67.92749424 -0.05497371 C69.65207819 -0.05650519 71.37666213 -0.05804354 73.10124607 -0.05958868 C89.27440393 -0.07331684 105.44751341 -0.06787396 121.62067015 -0.05640347 C136.41357811 -0.04647218 151.20636096 -0.05940937 165.99924962 -0.08333766 C181.19137794 -0.10772642 196.38344799 -0.11733699 211.5755955 -0.11068493 C220.10370116 -0.10719203 228.63171062 -0.10942937 237.15980148 -0.12693596 C244.42012096 -0.14165522 251.6802765 -0.14229712 258.94059275 -0.12486505 C262.64391551 -0.11635005 266.3469454 -0.11421736 270.05025291 -0.1295166 C274.06734958 -0.14590651 278.0837391 -0.13122261 282.10083008 -0.11352539 C283.26795575 -0.1231304 284.43508143 -0.1327354 285.63757455 -0.14263147 C292.98747007 -0.07594141 298.78626843 0.81428363 304.33746946 5.91219622 C305.87563683 7.60597307 306.45964548 8.97842388 307.18521118 11.1415863 C307.44471558 11.89947449 307.70421997 12.65736267 307.97158813 13.43821716 C308.24575562 14.26716492 308.5199231 15.09611267 308.80239868 15.95018005 C309.42339765 17.77573313 310.04449626 19.60125232 310.66567993 21.42674255 C310.99261841 22.39772888 311.31955688 23.36871521 311.65640259 24.36912537 C313.40270738 29.53204084 315.20095397 34.67692071 316.98989868 39.82518005 C319.2054024 46.22048298 321.41533604 52.61764308 323.60890198 59.02050781 C324.26176366 60.92605899 324.91539231 62.83134545 325.56924438 64.73655701 C326.42592708 67.23331813 327.28125631 69.73054411 328.13516235 72.22825623 C330.14708735 78.08167189 332.22160717 83.88680667 334.50942993 89.63792419 C336.95731405 95.81114427 338.87355172 100.75446774 337.67739868 107.38768005 C335.14771394 110.66943323 333.60008537 112.08011783 329.67739868 113.38768005 C328.05322607 113.47739543 326.42558259 113.50964864 324.79893494 113.50793457 C323.79352661 113.50930923 322.78811829 113.5106839 321.75224304 113.51210022 C320.65029099 113.50850494 319.54833893 113.50490967 318.41299438 113.50120544 C316.67132492 113.50142448 316.67132492 113.50142448 314.89447021 113.50164795 C311.04735461 113.50094994 307.20028711 113.49316272 303.35317993 113.4853363 C300.68945738 113.48347173 298.0257375 113.48199883 295.36201477 113.48104858 C289.06160577 113.47793948 282.76121411 113.46973175 276.46081275 113.45969909 C269.28796791 113.44852491 262.11512225 113.44302421 254.94227087 113.43800366 C240.18730461 113.4275488 225.43235195 113.40995748 210.67739868 113.38768005 C210.54380951 112.43655838 210.41022034 111.48543671 210.27258301 110.50549316 C210.00672897 108.62585121 210.00672897 108.62585121 209.73550415 106.70823669 C209.56066498 105.46836502 209.38582581 104.22849335 209.20568848 102.9510498 C208.55144642 98.53811894 207.74835946 94.18363572 206.80239868 89.82518005 C206.5800354 88.69499451 206.5800354 88.69499451 206.35317993 87.54197693 C205.34956128 82.90330049 204.08928031 79.87315128 200.67739868 76.38768005 C198.28310408 75.19053275 196.77876537 75.24893196 194.10469055 75.22705078 C193.14153931 75.21700516 192.17838806 75.20695953 191.18605042 75.1966095 C189.59561668 75.18786301 189.59561668 75.18786301 187.97305298 75.17893982 C186.85913177 75.16915604 185.74521057 75.15937225 184.59753418 75.14929199 C180.89890752 75.11929458 177.20031708 75.097942 173.50161743 75.0790863 C171.61061278 75.06922856 171.61061278 75.06922856 169.68140602 75.05917168 C164.38420704 75.03327741 159.08702254 75.0097877 153.78978252 74.99467564 C146.19894244 74.97276622 138.60880945 74.93078981 131.01825207 74.86123806 C125.03708775 74.80829442 119.05624936 74.7881936 113.07483864 74.77947807 C110.5306531 74.77089917 107.98648099 74.75202182 105.44244957 74.72273445 C101.88437805 74.68397463 98.32815919 74.68276605 94.76992798 74.69065857 C93.71571152 74.67065796 92.66149506 74.65065735 91.57533264 74.63005066 C86.43103859 74.56828026 86.43103859 74.56828026 81.92016506 76.68461895 C79.44900066 79.55673836 77.95809087 82.51701313 77.09536743 86.1806488 C76.88589478 87.0591449 76.67642212 87.93764099 76.46060181 88.84275818 C76.26401978 89.7444574 76.06743774 90.64615662 75.86489868 91.57518005 C75.64898071 92.45754333 75.43306274 93.33990662 75.21060181 94.24900818 C74.13111064 98.95421889 73.63206045 103.24629043 73.65367126 108.08026123 C73.65880973 109.56996162 73.65880973 109.56996162 73.66405201 111.08975697 C73.66845641 111.84807158 73.67286081 112.6063862 73.67739868 113.38768005 C58.00462686 113.48117776 42.33193049 113.55168577 26.6589489 113.59492874 C19.38147526 113.61554213 12.10417506 113.64363907 4.82681274 113.68943787 C-1.51715363 113.72934343 -7.86099438 113.75512177 -14.20508277 113.76403403 C-17.56338483 113.76924259 -20.92132757 113.7814583 -24.27951431 113.81060028 C-28.03123601 113.83960425 -31.78221147 113.84363712 -35.5340271 113.84178162 C-36.64389481 113.85616272 -37.75376251 113.87054382 -38.89726257 113.88536072 C-44.99848462 113.85267384 -48.71362759 113.54264486 -53.32260132 109.38768005 C-55.83089195 104.37109879 -54.50948941 98.35297106 -52.85385132 93.2509613 C-52.19124629 91.39546675 -51.51339554 89.54536535 -50.82260132 87.70018005 C-50.46021362 86.6961615 -50.09782593 85.69214294 -49.72445679 84.65769958 C-48.60417437 81.5625013 -47.46500908 78.47477061 -46.32260132 75.38768005 C-45.34805859 72.72358199 -44.37685122 70.05828762 -43.40609741 67.39280701 C-42.76235701 65.62637415 -42.11682271 63.8605941 -41.46957397 62.09544373 C-38.84068267 54.89947561 -36.33308994 47.66390428 -33.85018921 40.41654968 C-27.57955722 22.12251456 -27.57955722 22.12251456 -24.94760132 14.88768005 C-24.52736694 13.72236755 -24.10713257 12.55705505 -23.67416382 11.35643005 C-18.69648857 0.42280813 -10.89431247 -0.055886 0 0 Z M-10.32260132 13.38768005 C-11.44743808 15.32622504 -11.44743808 15.32622504 -12.05184937 17.33250427 C-12.3052861 18.07032135 -12.55872284 18.80813843 -12.81983948 19.5683136 C-13.07211807 20.3517514 -13.32439667 21.13518921 -13.58432007 21.94236755 C-13.86105057 22.76214081 -14.13778107 23.58191406 -14.42289734 24.42652893 C-15.29927194 27.03415071 -16.15473266 29.64810239 -17.01010132 32.26268005 C-17.59536267 34.01182261 -18.18193883 35.76052581 -18.76986694 37.5087738 C-24.05708817 51.16359632 -24.05708817 51.16359632 -25.32260132 65.38768005 C-23.16236834 67.55353531 -21.77980304 68.32110553 -18.74008846 68.76372755 C-17.75346501 68.7642146 -16.76684156 68.76470166 -15.75032043 68.76520348 C-14.0386939 68.77693834 -14.0386939 68.77693834 -12.29248905 68.78891027 C-11.03841975 68.7822181 -9.78435045 68.77552594 -8.49227905 68.76863098 C-7.14698882 68.77208692 -5.80170141 68.77685106 -4.45641994 68.78281271 C-0.75618991 68.79536123 2.94380865 68.78913496 6.64403963 68.77985406 C10.63319262 68.77307961 14.62230518 68.78353681 18.6114502 68.79179382 C26.42755148 68.80515054 34.24356646 68.80224481 42.05967116 68.7935559 C48.41061726 68.78678737 54.76153913 68.78585903 61.11248779 68.78912735 C62.46709416 68.7898169 62.46709416 68.7898169 63.84906632 68.79052038 C65.68349926 68.79147953 67.5179322 68.79245217 69.35236514 68.79343815 C86.56359111 68.80199772 103.77476919 68.79214903 120.98598731 68.77603705 C135.76172915 68.76263336 150.5374003 68.76496129 165.31314087 68.77879333 C182.46176665 68.79483914 199.61035042 68.8011737 216.75898266 68.79195654 C218.58675829 68.79100087 220.41453393 68.79005776 222.24230957 68.78912735 C223.14166672 68.78866452 224.04102387 68.7882017 224.96763426 68.78772485 C231.31272263 68.78513195 237.6577844 68.78951239 244.00286865 68.79656601 C251.73287904 68.80497012 259.46279801 68.80272388 267.1927979 68.78672378 C271.13859163 68.77882633 275.0842328 68.77577442 279.03002548 68.78567123 C282.63974055 68.79458833 286.24916118 68.78973501 289.85884941 68.77373858 C291.78832867 68.7687819 293.71782826 68.77861399 295.64728642 68.78891027 C296.78837077 68.78108703 297.92945513 68.77326379 299.1051178 68.76520348 C300.09174125 68.76471642 301.0783647 68.76422936 302.09488583 68.76372755 C305.13459332 68.32110656 306.5166122 67.55282869 308.67739868 65.38768005 C309.29290062 60.22119405 308.20634157 56.17875239 306.48989868 51.32518005 C306.15260742 50.35463684 306.15260742 50.35463684 305.8085022 49.36448669 C304.6906673 46.16428063 303.5294866 42.98025755 302.37271118 39.79393005 C301.95763306 38.64924255 301.54255493 37.50455505 301.11489868 36.32518005 C300.70239868 35.18951599 300.28989868 34.05385193 299.86489868 32.8837738 C298.26175955 28.16400564 296.99177475 23.37434326 295.76724243 18.54393005 C294.37278071 14.50548894 292.64159526 10.36977834 288.67739868 8.38768005 C287.07186304 8.28962373 285.46228431 8.25487964 283.85376263 8.25066566 C282.31623727 8.24305385 282.31623727 8.24305385 280.7476508 8.23528826 C279.61294828 8.23479051 278.47824577 8.23429275 277.30915833 8.23377991 C276.11041291 8.22939765 274.9116675 8.2250154 273.67659646 8.22050035 C270.33869376 8.20941846 267.00083804 8.20288257 263.66292369 8.1983192 C260.06704626 8.19236948 256.47118618 8.18075814 252.87532043 8.17002869 C244.18640786 8.14549136 235.49748952 8.13087619 226.80855295 8.11796862 C224.35548003 8.11425785 221.90240769 8.11028453 219.44933534 8.10621595 C204.22412157 8.08098214 188.99890694 8.05892368 173.77367687 8.04648781 C170.24606002 8.043558 166.7184432 8.04059635 163.19082642 8.0375824 C162.31402823 8.03683635 161.43723004 8.0360903 160.53386221 8.03532164 C146.3238809 8.02266257 132.11402455 7.98943281 117.90410169 7.94778056 C103.32346337 7.90539108 88.74288909 7.88179629 74.1621893 7.87656724 C65.97221416 7.87314987 57.78243436 7.8613564 49.59251976 7.82846451 C42.6189388 7.80050385 35.64559322 7.78944704 28.67196056 7.80065997 C25.11274578 7.80585685 21.55402422 7.80289429 17.99488068 7.77819443 C14.13858175 7.75165527 10.28296005 7.76372736 6.42658997 7.77967834 C4.73457444 7.75885521 4.73457444 7.75885521 3.00837678 7.73761141 C-3.15238056 7.80067167 -6.51331863 8.012636 -10.32260132 13.38768005 Z " fill="#FCFCFC" transform="translate(108.32260131835938,276.61231994628906)"/>
<path d="M0 0 C1.21723505 -0.00709439 2.4344701 -0.01418877 3.68859106 -0.02149814 C7.05550508 -0.03602847 10.42100699 -0.02820815 13.78781688 -0.01077521 C17.42322956 0.00261493 21.05853675 -0.01284422 24.69393921 -0.02459717 C31.81119252 -0.0429665 38.92817109 -0.03446604 46.04541581 -0.01650894 C51.83086009 -0.00247638 57.61622986 0.00140845 63.40168953 -0.00195122 C64.22548897 -0.00242866 65.0492884 -0.0029061 65.89805146 -0.00339801 C67.57166089 -0.00442436 69.2452703 -0.00547972 70.9188797 -0.00656378 C85.7149007 -0.01512955 100.5107892 0.00153953 115.30677795 0.03126526 C129.65807157 0.06009712 144.00917426 0.06718853 158.36048889 0.05177307 C173.99334959 0.035004 189.62611965 0.03098431 205.25898272 0.04848343 C206.92669935 0.05032779 208.59441599 0.05216251 210.26213264 0.0539875 C211.08264689 0.05489959 211.90316114 0.05581168 212.74853946 0.05675141 C218.52522532 0.06235282 224.30186688 0.05905327 230.07855034 0.05244255 C237.12110813 0.04470307 244.16347812 0.05148381 251.20599812 0.07661759 C254.79792919 0.08909912 258.3895681 0.09527579 261.98151016 0.08407593 C265.87807133 0.07215587 269.77413025 0.09132033 273.6706543 0.11352539 C274.80207932 0.10528462 275.93350434 0.09704386 277.09921497 0.08855337 C284.43898789 0.16580435 289.82131785 1.11792114 295.47349918 5.9838109 C298.9624924 9.66075477 299.52459837 12.62593891 299.52700806 17.56665039 C299.53410244 18.24062412 299.54119683 18.91459785 299.5485062 19.60899502 C299.56603044 21.85483389 299.54801262 24.09892904 299.52992249 26.34474182 C299.53506355 27.95987229 299.54234625 29.57499714 299.55160522 31.19010925 C299.57010528 35.56839522 299.55718909 39.94607148 299.53751493 44.324332 C299.52111268 48.91081863 299.52994365 53.49726712 299.53503418 58.08377075 C299.53955383 65.78658265 299.52369441 73.48915162 299.4957428 81.19190979 C299.46370282 90.08976667 299.46370263 98.98718517 299.48095757 107.88507313 C299.4968382 116.45265397 299.49007848 125.02007453 299.47302055 133.58764839 C299.46615866 137.22985681 299.46717368 140.87193642 299.47456551 144.51414299 C299.48224369 148.80627502 299.47005251 153.09791006 299.4427166 157.38995743 C299.43584727 158.96247572 299.43571922 160.53504055 299.44293213 162.1075573 C299.50473942 177.34125693 299.50473942 177.34125693 294.89881897 182.62818909 C288.67779144 187.23829827 283.29516977 187.19534439 275.71498108 187.13612366 C273.8758195 187.1454836 273.8758195 187.1454836 271.99950314 187.15503263 C268.60804617 187.16820317 265.21747848 187.1634962 261.82607603 187.15108776 C258.1641052 187.14202521 254.50221122 187.15601294 250.84025574 187.16700745 C243.67124124 187.18478446 236.50239435 187.18095637 229.33337331 187.16935688 C223.50645018 187.1603196 217.679574 187.15909983 211.85264587 187.16345215 C211.02300699 187.16406508 210.19336811 187.16467801 209.33858865 187.16530952 C207.6531395 187.16658843 205.96769035 187.16788529 204.28224123 187.16919988 C188.48154315 187.18060328 172.68093794 187.16749575 156.8802551 187.14599842 C143.32552416 187.12812764 129.77093025 187.13123182 116.21620178 187.14967346 C100.47165579 187.17108442 84.72719116 187.17950467 68.98263264 187.16722441 C67.30341913 187.16595022 65.6242056 187.16469274 63.94499207 187.16345215 C63.11880888 187.16283505 62.2926257 187.16221794 61.44140667 187.16158214 C55.62216769 187.15812992 49.80298037 187.16395483 43.98374939 187.17337036 C36.89103345 187.18459424 29.79849455 187.1815422 22.70579886 187.16024739 C19.08765784 187.14974209 15.4698119 187.14560598 11.85167313 187.15884399 C7.9285012 187.17298087 4.00581141 187.15608955 0.08265686 187.13612366 C-1.0594629 187.14504654 -2.20158266 187.15396943 -3.37831211 187.16316271 C-9.84536715 187.0991998 -13.85745414 186.51463451 -19.10118103 182.62818909 C-24.73370685 176.15209226 -23.66475015 168.00144474 -23.61875916 159.8740387 C-23.62418392 158.26699185 -23.63130857 156.65994998 -23.63999939 155.05291748 C-23.65819219 150.70170354 -23.65118243 146.35087012 -23.63848305 141.99964976 C-23.62833612 137.44072512 -23.63775326 132.88183245 -23.64402771 128.32290649 C-23.65129845 120.66899278 -23.64173071 113.01523362 -23.62266541 105.36134338 C-23.60088996 96.51741915 -23.60795516 87.67386369 -23.62997103 78.82994837 C-23.64813211 71.22974429 -23.65068013 63.62965112 -23.64021635 56.02943236 C-23.63398631 51.4931414 -23.63313246 46.95702371 -23.6463623 42.42074394 C-23.6579308 38.15652667 -23.64987707 33.89278429 -23.62678528 29.62861824 C-23.62150383 28.06534742 -23.62300236 26.50203652 -23.63183594 24.93878174 C-23.64279806 22.80154689 -23.62902284 20.66582541 -23.6091156 18.52868652 C-23.6076075 17.33391662 -23.6060994 16.13914671 -23.60454559 14.90817165 C-22.79230989 9.61554852 -20.0902007 6.21694056 -16.10750484 2.7924509 C-11.13352675 -0.49366709 -5.77374253 -0.06027972 0 0 Z M-12.10118103 15.62818909 C-12.55284052 18.56400942 -12.55284052 18.56400942 -12.47540283 21.9737854 C-12.47937724 22.62013882 -12.48335164 23.26649223 -12.48744649 23.93243212 C-12.49708494 26.10215503 -12.48524279 28.27122841 -12.47349548 30.44093323 C-12.47592293 31.99476363 -12.47964179 33.54859247 -12.48455811 35.10241699 C-12.49397651 39.32546259 -12.48453419 43.54827682 -12.47122598 47.77130437 C-12.45992601 52.18530524 -12.46401781 56.59929449 -12.4659729 61.01330566 C-12.46685625 68.42541799 -12.45576628 75.83743892 -12.43736267 83.24952698 C-12.41618662 91.82751768 -12.41268658 100.40537455 -12.41892463 108.9833861 C-12.42461244 117.22577313 -12.41898003 125.46811287 -12.40775108 133.71049309 C-12.40309814 137.22282724 -12.40223423 140.73513254 -12.40433693 144.24746895 C-12.40621584 148.38017727 -12.39814674 152.51274869 -12.38227654 156.6454258 C-12.3780218 158.16522404 -12.37719108 159.68503614 -12.37996674 161.2048378 C-12.38317214 163.27323595 -12.37414896 165.34122079 -12.36187744 167.40957642 C-12.35982457 168.56898271 -12.3577717 169.728389 -12.35565662 170.92292881 C-12.37725776 173.77729629 -12.37725776 173.77729629 -10.10118103 175.62818909 C-7.87489746 175.93136293 -7.87489746 175.93136293 -5.25634098 175.87987137 C-3.71174044 175.88769461 -3.71174044 175.88769461 -2.13593584 175.8956759 C-0.42599929 175.88898373 -0.42599929 175.88898373 1.31848145 175.88215637 C2.52272154 175.88527635 3.72696164 175.88839633 4.96769387 175.89161086 C8.32092619 175.89823055 11.67393601 175.89581749 15.02715504 175.88963842 C18.63935259 175.88512946 22.25153013 175.89208996 25.86372375 175.89759827 C32.94447689 175.90651089 40.02518772 175.90456189 47.10594254 175.89877298 C52.8591152 175.89426347 58.61227598 175.89364051 64.36544991 175.89582062 C65.59184153 175.89628032 65.59184153 175.89628032 66.84300875 175.8967493 C68.50374349 175.89738873 70.16447823 175.89803716 71.82521296 175.89869449 C87.41352344 175.90440334 103.00181042 175.89783137 118.59011704 175.88709375 C131.97501188 175.87815941 145.35987203 175.87970824 158.74476624 175.88893127 C174.27424077 175.89962699 189.80369468 175.9038522 205.33317238 175.89770675 C206.98823901 175.89706963 208.64330564 175.89644088 210.29837227 175.89582062 C211.11277269 175.89551207 211.9271731 175.89520352 212.76625232 175.89488561 C218.51416059 175.89315645 224.26205583 175.89607857 230.00996208 175.90077972 C237.01246794 175.90638088 244.01492894 175.90488835 251.01742964 175.89421824 C254.59243572 175.88895091 258.16736694 175.88692271 261.74237251 175.89351654 C265.61234858 175.90054661 269.48220123 175.89216984 273.35217285 175.88215637 C274.48989983 175.88661782 275.62762682 175.89107926 276.79983038 175.8956759 C277.83217182 175.8904604 278.86451326 175.88524491 279.92813778 175.87987137 C280.82205445 175.87954666 281.71597113 175.87922196 282.63697618 175.87888741 C285.18050469 175.77237705 285.18050469 175.77237705 287.89881897 173.62818909 C288.35682972 170.79823529 288.35682972 170.79823529 288.2797699 167.40957642 C288.28444987 166.76478299 288.28912984 166.11998957 288.29395163 165.45565695 C288.30596136 163.28517803 288.29642169 161.11532359 288.28700256 158.94483948 C288.29106568 157.39277781 288.29640609 155.84071903 288.30293274 154.28866577 C288.31664437 150.06550524 288.31129163 145.84256383 288.30179548 141.61939931 C288.29421738 137.20585478 288.30123946 132.79232942 288.30595398 128.37878418 C288.31141752 120.96489584 288.30420487 113.55109704 288.28993225 106.13722229 C288.27361058 97.55980499 288.27888829 88.98260167 288.29541147 80.40518957 C288.30901651 73.04888133 288.31095063 65.69263758 288.30309546 58.33632082 C288.29841275 53.93924638 288.29781032 49.54227256 288.30770493 45.14520454 C288.31635787 41.01081877 288.3103835 36.8767093 288.29302216 32.74235344 C288.28904807 31.222975 288.29020708 29.70357339 288.29681015 28.1842041 C288.30497997 26.11374835 288.29476078 24.04418399 288.2797699 21.9737854 C288.27863882 20.81400208 288.27750774 19.65421877 288.27634239 18.4592905 C288.13538069 15.67300774 288.13538069 15.67300774 286.68474066 13.97484046 C284.32182551 12.19311456 282.89187155 12.2522769 279.94654846 12.25066566 C278.40418644 12.2389308 278.40418644 12.2389308 276.83066559 12.22695887 C275.69751167 12.23365104 274.56435776 12.2403432 273.39686584 12.24723816 C272.19585487 12.24255819 270.9948439 12.23787822 269.75743866 12.23305643 C266.41776786 12.22313745 263.07860081 12.22673858 259.73896027 12.23601508 C256.13972206 12.24278538 252.5405288 12.23233441 248.94129944 12.22407532 C241.88807193 12.21071412 234.83494002 12.21362631 227.78170872 12.22231324 C222.05096208 12.22908002 216.32024229 12.23001087 210.5894928 12.22674179 C209.77480923 12.22628209 208.96012567 12.22582239 208.12075472 12.22534876 C206.46589851 12.22438962 204.8110423 12.22341698 203.1561861 12.22243099 C187.62747136 12.21387011 172.09880969 12.22372216 156.57010365 12.23983209 C143.2369405 12.25323591 129.9038557 12.25090801 116.57069397 12.23707581 C101.0987036 12.2210323 85.62675979 12.21469414 70.15476227 12.2239126 C68.5058899 12.22486827 66.85701752 12.22581139 65.20814514 12.22674179 C64.39680382 12.22720462 63.5854625 12.22766744 62.74953508 12.2281443 C57.02365028 12.23073788 51.29779492 12.22635527 45.57191467 12.21930313 C38.59686042 12.21090157 31.62190749 12.21313984 24.64686489 12.22914536 C21.0859971 12.2370463 17.52529842 12.24008891 13.96443176 12.23019791 C10.10978226 12.21965256 6.25541155 12.23221781 2.40077209 12.24723816 C0.70104122 12.23719991 0.70104122 12.23719991 -1.03302765 12.22695887 C-2.061269 12.23478211 -3.08951035 12.24260535 -4.14891052 12.25066566 C-5.03924736 12.25115272 -5.9295842 12.25163978 -6.84690094 12.25214159 C-9.58358396 12.70866108 -10.47358469 13.41138711 -12.10118103 15.62818909 Z " fill="#F9F9F9" transform="translate(112.10118103027344,83.37181091308594)"/>
<path d="M0 0 C1.02824135 -0.00782324 2.0564827 -0.01564648 3.11588287 -0.02370679 C4.81561375 -0.01366855 4.81561375 -0.01366855 6.54968262 -0.00342751 C7.75069359 -0.00810748 8.95170456 -0.01278745 10.1891098 -0.01760924 C13.52878061 -0.02752822 16.86794765 -0.02392708 20.2075882 -0.01465058 C23.8068264 -0.00788029 27.40601966 -0.01833125 31.00524902 -0.02659035 C38.05847653 -0.03995154 45.11160844 -0.03703936 52.16483974 -0.02835242 C57.89558639 -0.02158565 63.62630618 -0.02065479 69.35705566 -0.02392387 C70.57908101 -0.02461342 70.57908101 -0.02461342 71.82579374 -0.0253169 C73.48064996 -0.02627605 75.13550616 -0.02724869 76.79036236 -0.02823468 C92.3190771 -0.03679556 107.84773878 -0.0269435 123.37644482 -0.01083358 C136.70960796 0.00257024 150.04269276 0.00024235 163.37585449 -0.01358986 C178.84784486 -0.02963336 194.31978867 -0.03597152 209.79178619 -0.02675307 C211.44065856 -0.02579739 213.08953094 -0.02485428 214.73840332 -0.02392387 C215.54974464 -0.02346105 216.36108596 -0.02299822 217.19701338 -0.02252137 C222.92289819 -0.01992778 228.64875354 -0.0243104 234.37463379 -0.03136253 C241.34968804 -0.03976409 248.32464097 -0.03752583 255.29968357 -0.0215203 C258.86055136 -0.01361936 262.42125004 -0.01057676 265.9821167 -0.02046776 C269.8367662 -0.0310131 273.69113692 -0.01844785 277.54577637 -0.00342751 C278.67893028 -0.01011967 279.8120842 -0.01681184 280.97957611 -0.02370679 C282.52193813 -0.01197193 282.52193813 -0.01197193 284.09545898 0 C284.98579582 0.00048706 285.87613266 0.00097411 286.7934494 0.00147593 C289.53016094 0.45800017 290.41997879 1.16083001 292.04772949 3.37752342 C292.42525291 6.20862484 292.42525291 6.20862484 292.42868042 9.72311974 C292.43336039 10.36947315 292.43804036 11.01582657 292.44286215 11.68176645 C292.45484551 13.85147444 292.44534251 16.02055469 292.43591309 18.19026756 C292.43997729 19.74409924 292.44531831 21.29792803 292.45184326 22.85175133 C292.46553966 27.07478563 292.460209 31.29760048 292.45070601 35.5206387 C292.44312276 39.93464525 292.45015117 44.34863273 292.4548645 48.76264 C292.46032539 56.17474818 292.45312113 63.58676673 292.43884277 70.99886131 C292.42250959 79.57688735 292.42780824 88.15469956 292.44432199 96.73272043 C292.45792023 104.08988246 292.45986486 111.44697999 292.45200598 118.80415052 C292.44732107 123.20173712 292.44672711 127.59922309 292.45661545 131.99680328 C292.46525894 136.12955781 292.4593115 140.26203561 292.44193268 144.39476013 C292.43795402 145.91455945 292.43912533 147.43438192 292.44572067 148.95417213 C292.4538723 151.02273651 292.44369384 153.09040413 292.42868042 155.15891075 C292.42754934 156.31831704 292.42641827 157.47772333 292.42525291 158.67226315 C292.30067019 159.56499904 292.17608746 160.45773493 292.04772949 161.37752342 C288.77745709 163.55770503 287.86178792 163.62783094 284.0770483 163.6292057 C283.04470686 163.6344212 282.01236542 163.63963669 280.9487409 163.64501023 C279.81101392 163.64054879 278.67328693 163.63608735 277.50108337 163.63149071 C276.29528328 163.63461069 275.0894832 163.63773067 273.84714371 163.6409452 C270.49423992 163.64755771 267.14155914 163.64515692 263.78866875 163.63897276 C260.1751446 163.63445932 256.56164035 163.64142647 252.94812012 163.6469326 C245.86717119 163.65583986 238.78626458 163.65389875 231.70531397 163.64810732 C225.95263337 163.64359642 220.19996465 163.64297544 214.44728279 163.64515495 C213.62953514 163.64546142 212.81178749 163.64576789 211.96925961 163.64608364 C210.30820067 163.64672307 208.64714173 163.64737149 206.9860828 163.64802882 C191.39970578 163.65373593 175.81335225 163.64716808 160.22697908 163.63642809 C146.841778 163.62749056 133.45661159 163.62904554 120.07141113 163.63826561 C104.54047403 163.64895865 89.00955752 163.65318833 73.47861725 163.64704108 C71.82386498 163.64640396 70.16911271 163.64577522 68.51436043 163.64515495 C67.70011429 163.6448464 66.88586814 163.64453785 66.04694788 163.64421995 C60.29805726 163.64249023 54.54917967 163.64541403 48.80029106 163.65011406 C41.79887878 163.6557121 34.79751136 163.65422916 27.79610424 163.64355257 C24.2212151 163.63828154 20.64640088 163.63626333 17.07151222 163.64285088 C13.20342938 163.64987113 9.33547034 163.64151224 5.46739197 163.63149071 C3.75745541 163.63818287 3.75745541 163.63818287 2.01297468 163.64501023 C0.98324098 163.63979474 -0.04649271 163.63457924 -1.10743046 163.6292057 C-2.00118478 163.628881 -2.8949391 163.62855629 -3.81577688 163.62822175 C-5.95227051 163.37752342 -5.95227051 163.37752342 -7.95227051 161.37752342 C-8.2067461 158.67226315 -8.2067461 158.67226315 -8.21296692 155.15891075 C-8.21679247 154.51411733 -8.22061801 153.8693239 -8.22455949 153.20499128 C-8.23491551 151.03463694 -8.23089253 148.86454586 -8.22692871 146.69417381 C-8.23127377 145.14211341 -8.23645622 143.59005515 -8.24241638 142.03800011 C-8.2558401 137.81488725 -8.25638131 133.59186369 -8.25385308 129.36873364 C-8.25278562 125.84719856 -8.25766097 122.32568171 -8.2624585 118.80415052 C-8.27356542 110.4982721 -8.27398449 102.19243889 -8.26794434 93.88655663 C-8.26190276 85.30914841 -8.27421747 76.73190415 -8.2955144 68.15452391 C-8.31310998 60.79822366 -8.31913499 53.44197569 -8.31587666 46.08565515 C-8.31406034 41.68857109 -8.31673453 37.29160396 -8.3305912 32.89453888 C-8.34313174 28.7601684 -8.3412615 24.62605414 -8.32818031 20.49168777 C-8.32580668 18.9723038 -8.32857724 17.452902 -8.33680344 15.93353844 C-8.34720691 13.86309822 -8.33922318 11.79352795 -8.32649231 9.72311974 C-8.32666005 8.56333642 -8.32682779 7.4035531 -8.32700062 6.20862484 C-7.95227051 3.37752342 -7.95227051 3.37752342 -6.73836678 1.7241748 C-4.37532279 -0.05747409 -2.94538542 0.00161127 0 0 Z M-0.95227051 7.37752342 C-0.95227051 56.87752342 -0.95227051 106.37752342 -0.95227051 157.37752342 C93.42772949 157.37752342 187.80772949 157.37752342 285.04772949 157.37752342 C285.04772949 107.87752342 285.04772949 58.37752342 285.04772949 7.37752342 C190.66772949 7.37752342 96.28772949 7.37752342 -0.95227051 7.37752342 Z " fill="#0C0C0C" transform="translate(107.9522705078125,95.62247657775879)"/>
<path d="M0 0 C0.52638943 0.16240453 1.05277885 0.32480905 1.59511948 0.49213493 C4.60333254 1.12741237 7.40157506 1.1254116 10.47808838 1.12584114 C11.12984087 1.12729458 11.78159335 1.12874802 12.45309591 1.13024551 C14.64616276 1.13390704 16.83916017 1.13041836 19.03222656 1.12698364 C20.61675172 1.1281354 22.20127661 1.12972329 23.78580093 1.13171089 C28.14725264 1.13589671 32.50868255 1.13381686 36.87013435 1.13072467 C41.57093582 1.12846777 46.27173347 1.13195164 50.97253418 1.13470459 C60.18429158 1.13915815 69.39604085 1.13818765 78.60779858 1.13529195 C86.0924149 1.1330363 93.57702894 1.1327261 101.06164551 1.13381577 C102.12568737 1.133969 103.18972924 1.13412223 104.2860148 1.13428011 C106.44739374 1.13459982 108.60877268 1.13492404 110.77015162 1.1352527 C131.05159792 1.13810628 151.3330397 1.13482237 171.61448526 1.12945233 C189.02814869 1.12498441 206.44180545 1.12576037 223.85546875 1.13037109 C244.06287114 1.135719 264.27026958 1.1378316 284.47767258 1.13475883 C286.63123321 1.13444027 288.78479385 1.1341259 290.93835449 1.13381577 C291.99803004 1.13366149 293.05770558 1.13350721 294.1494925 1.13334826 C301.62769811 1.13248376 309.10590122 1.13394456 316.58410645 1.13629532 C325.6938232 1.13909591 334.80353134 1.13834955 343.91324711 1.13301457 C348.5637872 1.13038109 353.21431291 1.12936657 357.86485291 1.13266373 C362.11841815 1.13563389 366.37195561 1.13402176 370.62551832 1.12868617 C372.16785514 1.12756509 373.71019429 1.1281464 375.25252962 1.13056196 C377.34235741 1.13358502 379.43208893 1.13050155 381.52191162 1.12584114 C382.6847253 1.12567879 383.84753899 1.12551644 385.04558945 1.12534916 C387.55278659 1.01897428 389.61505531 0.73581609 392 0 C391.56562648 4.92289989 389.356381 7.48750825 386 11 C382.59455926 13.22454798 379.72200646 13.25483271 375.70487595 13.26564884 C373.75137022 13.27809733 373.75137022 13.27809733 371.75839972 13.29079729 C370.30969718 13.28992775 368.86099475 13.28885911 367.41229248 13.28761292 C365.87598785 13.29349586 364.3396863 13.30023472 362.80338883 13.30775779 C358.57507467 13.32585168 354.34682284 13.33135426 350.11847472 13.33474457 C345.56072733 13.34049754 341.00302007 13.35762269 336.44529724 13.37309265 C325.4360895 13.4078599 314.42688503 13.42343234 303.41763437 13.43721595 C298.2344574 13.44417549 293.05128443 13.45333258 287.86811066 13.46232414 C270.64090964 13.49152815 253.41371254 13.5163225 236.18648911 13.52694798 C235.08372309 13.52763867 233.98095707 13.52832936 232.8447739 13.52904099 C231.18664462 13.53007901 231.18664462 13.53007901 229.49501777 13.531138 C227.25497929 13.53255 225.01494081 13.53397081 222.77490234 13.53540039 C221.66376352 13.53610556 220.5526247 13.53681073 219.40781501 13.53753727 C201.40086512 13.54978933 183.39412569 13.59258767 165.38726315 13.64834059 C146.90460894 13.70510264 128.42206118 13.73559681 109.9393189 13.73996013 C99.55997328 13.74304366 89.18092005 13.75757261 78.80165863 13.80124092 C69.96387947 13.83831901 61.12647188 13.85153573 52.2886261 13.83353604 C47.77907785 13.82507533 43.27028854 13.82795956 38.76083946 13.86135483 C34.6312318 13.89166663 30.50294565 13.88958363 26.37333146 13.86186682 C24.88070644 13.85752402 23.38798984 13.86498553 21.89550003 13.88553984 C9.37663019 14.0471477 9.37663019 14.0471477 4.11902237 9.66139126 C1.17405073 6.67974355 0 4.30236521 0 0 Z " fill="#F7F7F7" transform="translate(54,394)"/>
<path d="M0 0 C1.19376424 -0.00031393 1.19376424 -0.00031393 2.41164494 -0.00063419 C3.32713108 -0.01046833 4.24261723 -0.02030247 5.18584538 -0.03043461 C6.18800587 -0.02076664 7.19016636 -0.01109867 8.22269535 -0.00113773 C9.27984745 -0.00654072 10.33699955 -0.0119437 11.42618656 -0.01751041 C14.92968365 -0.03004381 18.43236632 -0.01347423 21.93583012 0.0044775 C24.36576728 0.00432261 26.7957047 0.00283527 29.2256403 0.00006771 C34.32258852 -0.0013184 39.41925608 0.01127662 44.51615238 0.03401852 C51.05462636 0.06238831 57.59263321 0.05967254 64.13114166 0.04692841 C69.15053653 0.03997785 74.16982316 0.04775371 79.18920422 0.06018543 C81.60018404 0.06470703 84.01117545 0.06503058 86.42215633 0.06112003 C89.79080793 0.05821439 93.15881289 0.07468525 96.52738285 0.09651852 C97.52751911 0.09201687 98.52765537 0.08751522 99.55809879 0.08287716 C100.47640476 0.09278179 101.39471073 0.10268642 102.34084415 0.1128912 C103.13706401 0.11532109 103.93328386 0.11775099 104.75363159 0.12025452 C107.51195221 0.60011966 108.8920118 1.62121186 110.93973637 3.50057125 C111.86869144 5.88899899 111.86869144 5.88899899 112.45926762 8.684165 C112.78507816 10.1991357 112.78507816 10.1991357 113.11747074 11.74471188 C113.3269434 12.79852047 113.53641605 13.85232906 113.75223637 14.93807125 C113.98104496 15.98801266 114.20985355 17.03795406 114.44559574 18.11971188 C116.07746121 25.94967188 116.07746121 25.94967188 114.93973637 30.50057125 C74.01973637 30.50057125 33.09973637 30.50057125 -9.06026363 30.50057125 C-10.69302137 25.60229805 -8.90560357 21.01025575 -7.81026363 16.06307125 C-7.59241207 15.01312984 -7.37456051 13.96318844 -7.15010738 12.88143063 C-6.9296777 11.87016109 -6.70924801 10.85889156 -6.48213863 9.8169775 C-6.28201168 8.89344479 -6.08188473 7.96991207 -5.87569332 7.01839352 C-4.77947206 3.63356422 -3.65866428 0.88892612 0 0 Z " fill="#FBFBFB" transform="translate(197.06026363372803,356.4994287490845)"/>
<path d="M0 0 C36.63 0 73.26 0 111 0 C111 3.63 111 7.26 111 11 C74.04 11 37.08 11 -1 11 C-1 3 -1 3 0 0 Z " fill="#FAFAFA" transform="translate(195,327)"/>
<path d="M0 0 C1.65 0 3.3 0 5 0 C7.16115853 4.75914697 9.25979008 9.54163305 11.25 14.375 C11.58515625 15.18710938 11.9203125 15.99921875 12.265625 16.8359375 C13 19 13 19 13 22 C13.66 22 14.32 22 15 22 C15.10183594 21.18273437 15.20367187 20.36546875 15.30859375 19.5234375 C16.1293064 15.34104875 17.51904991 11.5856863 19.0625 7.625 C19.34416016 6.88894531 19.62582031 6.15289062 19.91601562 5.39453125 C20.60566618 3.5944264 21.30213932 1.7969379 22 0 C23.98 0 25.96 0 28 0 C28.71589268 4.62588527 29.42786202 9.25235108 30.13623047 13.87939453 C30.3776699 15.45280184 30.62017345 17.02604624 30.86376953 18.59912109 C31.21407659 20.86253363 31.56053056 23.12650778 31.90625 25.390625 C32.0156189 26.09181458 32.12498779 26.79300415 32.2376709 27.51544189 C32.72645454 30.73993874 33 33.72609245 33 37 C30.69 37 28.38 37 26 37 C25.79503906 35.71222656 25.59007812 34.42445313 25.37890625 33.09765625 C25.10698348 31.41923637 24.83483649 29.7408528 24.5625 28.0625 C24.42779297 27.21236328 24.29308594 26.36222656 24.15429688 25.48632812 C23.95610352 24.27299805 23.95610352 24.27299805 23.75390625 23.03515625 C23.63345947 22.2862915 23.5130127 21.53742676 23.38891602 20.76586914 C23.16240096 18.9829115 23.16240096 18.9829115 22 18 C19.69 24.27 17.38 30.54 15 37 C14.01 37 13.02 37 12 37 C9.69 30.4 7.38 23.8 5 17 C3.50412092 18.49587908 3.70266371 19.91545903 3.5 22 C3.4175 22.804375 3.335 23.60875 3.25 24.4375 C3.12625 25.7059375 3.12625 25.7059375 3 27 C2.83735957 28.66706438 2.67089623 30.33376171 2.5 32 C2.4278125 32.7425 2.355625 33.485 2.28125 34.25 C2 36 2 36 1 37 C-1.33297433 37.04092937 -3.66705225 37.04241723 -6 37 C-5.02985661 27.98337319 -3.91919598 19.01088859 -2.4375 10.0625 C-2.31076904 9.28793457 -2.18403809 8.51336914 -2.0534668 7.71533203 C-1.12690347 2.25380694 -1.12690347 2.25380694 0 0 Z " fill="#0B0B0B" transform="translate(152,135)"/>
<path d="M0 0 C15 0 15 0 18.9375 1.875 C21.43648582 5.66134214 21.79029395 8.07887417 21.54296875 12.55078125 C20.68039691 16.44166286 18.8582309 18.28468065 16 21 C17.32038384 24.6150315 18.93170407 27.59250151 21.125 30.75 C24 34.90430622 24 34.90430622 24 36 C20.74890324 36.79618696 18.21236693 37.03690325 15 36 C12.02069213 32.30824895 9.98705646 28.29357537 8 24 C7.67 27.96 7.34 31.92 7 36 C4.69 36 2.38 36 0 36 C0 24.12 0 12.24 0 0 Z " fill="#080808" transform="translate(221,136)"/>
<path d="M0 0 C1.98 0 3.96 0 6 0 C9.39932049 7.74652842 12.39900533 15.6228389 15.3125 23.5625 C15.67408203 24.53848145 16.03566406 25.51446289 16.40820312 26.52001953 C16.9119043 27.90423096 16.9119043 27.90423096 17.42578125 29.31640625 C17.88078003 30.56079468 17.88078003 30.56079468 18.3449707 31.83032227 C19 34 19 34 19 37 C16.69 37 14.38 37 12 37 C11.01 34.69 10.02 32.38 9 30 C5.04 30 1.08 30 -3 30 C-3.99 32.31 -4.98 34.62 -6 37 C-8.31 37 -10.62 37 -13 37 C-11.50696372 28.7343353 -8.50165915 21.19204841 -5.375 13.4375 C-4.85354366 12.12980555 -4.33270546 10.82186443 -3.8125 9.51367188 C-2.5477061 6.33997606 -1.2767405 3.16890434 0 0 Z " fill="#080808" transform="translate(199,135)"/>
<path d="M0 0 C48.18 0 96.36 0 146 0 C146 1.32 146 2.64 146 4 C97.82 4 49.64 4 0 4 C0 2.68 0 1.36 0 0 Z " fill="#121212" transform="translate(120,206)"/>
<path d="M0 0 C4.04790179 0.02582393 6.47952997 0.7180232 9.75 3.25 C9.09 4.9 8.43 6.55 7.75 8.25 C4.78 7.92 1.81 7.59 -1.25 7.25 C-1.58 8.9 -1.91 10.55 -2.25 12.25 C-1.47914063 12.64832031 -0.70828125 13.04664063 0.0859375 13.45703125 C1.08882812 13.98683594 2.09171875 14.51664063 3.125 15.0625 C4.62160156 15.84560547 4.62160156 15.84560547 6.1484375 16.64453125 C8.75 18.25 8.75 18.25 10.75 21.25 C11.35695266 25.45925614 11.18802698 29.18951362 9.5625 33.125 C6.47146632 36.74897052 4.05830616 38.08348831 -0.6875 38.6875 C-4.92883251 38.1666346 -7.02097664 37.01773431 -10.25 34.25 C-11.125 32 -11.125 32 -11.25 30.25 C-9.93 29.26 -8.61 28.27 -7.25 27.25 C-6.71375 27.91 -6.1775 28.57 -5.625 29.25 C-3.35041408 31.56024799 -3.35041408 31.56024799 0 31.5 C0.9075 31.4175 1.815 31.335 2.75 31.25 C2.75 28.94 2.75 26.63 2.75 24.25 C1.84507812 23.79560547 1.84507812 23.79560547 0.921875 23.33203125 C-7.85229346 18.73266875 -7.85229346 18.73266875 -10.25 14.25 C-10.84587717 11.43677223 -10.92937209 9.05240986 -10.25 6.25 C-7.8125 3.3125 -7.8125 3.3125 -5.25 1.25 C-3.68966377 -0.31033623 -2.16052864 0.04292441 0 0 Z " fill="#090909" transform="translate(133.25,134.75)"/>
<path d="M0 0 C3.33986907 1.66993454 4.08827368 5.41043861 5.4765625 8.71875 C5.80667328 9.49182495 6.13678406 10.2648999 6.47689819 11.06140137 C7.17421015 12.6976621 7.86834892 14.33527817 8.55957031 15.97412109 C9.62167129 18.49210842 10.69273878 21.00612303 11.765625 23.51953125 C12.44062946 25.10654751 13.11512599 26.69377993 13.7890625 28.28125 C14.11089508 29.03853394 14.43272766 29.79581787 14.76431274 30.5760498 C17 35.88211971 17 35.88211971 17 37 C15.35 37 13.7 37 12 37 C10.68 34.03 9.36 31.06 8 28 C2.72 27.67 -2.56 27.34 -8 27 C-8.99 29.97 -9.98 32.94 -11 36 C-13.475 36.495 -13.475 36.495 -16 37 C-13.7498913 29.69894801 -10.83211016 22.80581691 -7.70166016 15.84033203 C-6.86503391 13.97781324 -6.03560333 12.11220759 -5.20703125 10.24609375 C-1.13778832 1.13778832 -1.13778832 1.13778832 0 0 Z " fill="#111111" transform="translate(309,135)"/>
<path d="M0 0 C10.23 0 20.46 0 31 0 C30 8 30 8 29 11 C18.44 11 7.88 11 -3 11 C-1 2 -1 2 0 0 Z " fill="#F6F6F6" transform="translate(98,310)"/>
<path d="M0 0 C7.26 0 14.52 0 22 0 C22 1.98 22 3.96 22 6 C19.36 6 16.72 6 14 6 C14 15.9 14 25.8 14 36 C11.69 36 9.38 36 7 36 C7 26.1 7 16.2 7 6 C4.69 6 2.38 6 0 6 C0 4.02 0 2.04 0 0 Z " fill="#090909" transform="translate(244,136)"/>
<path d="M0 0 C9.9 0 19.8 0 30 0 C33 6 33 6 33 11 C23.1 11 13.2 11 3 11 C0 3 0 3 0 0 Z " fill="#F7F7F7" transform="translate(371,310)"/>
<path d="M0 0 C2.31508779 1.47555046 4.01559692 3.06399699 6 5 C5.67 5.66 5.34 6.32 5 7 C4.484375 6.855625 3.96875 6.71125 3.4375 6.5625 C-2.38129982 4.94841893 -2.38129982 4.94841893 -8 6 C-8.48577109 8.84410804 -8.48577109 8.84410804 -8 12 C-5.4781494 14.15224019 -5.4781494 14.15224019 -2.1875 15.6875 C5.14921722 19.50048924 5.14921722 19.50048924 7 22 C7.41303987 26.26807869 7.47454353 28.87608111 5.8125 32.8125 C2.95322073 36.26335429 0.51097024 37.77496188 -3.9375 38.4375 C-7.83530088 37.8806713 -9.93989651 36.43417323 -13 34 C-15 31 -15 31 -15 28 C-13.68 27.67 -12.36 27.34 -11 27 C-10.525625 27.804375 -10.05125 28.60875 -9.5625 29.4375 C-8.23099846 31.84753488 -8.23099846 31.84753488 -7 33 C-1.97500306 32.71530797 -1.97500306 32.71530797 2 30 C2.83483326 27.13023717 2.83483326 27.13023717 2 24 C-0.42708497 21.90333501 -3.17988661 20.50372294 -6 19 C-11.78120185 15.4375963 -11.78120185 15.4375963 -13 13 C-13.34556568 9.98864195 -13.57794337 7.90638829 -13 5 C-9.08169048 0.41271081 -5.97706438 -1.06733293 0 0 Z " fill="#151515" transform="translate(370,135)"/>
<path d="M0 0 C2.31508779 1.47555046 4.01559692 3.06399699 6 5 C5.67 5.66 5.34 6.32 5 7 C4.484375 6.855625 3.96875 6.71125 3.4375 6.5625 C-2.38129982 4.94841893 -2.38129982 4.94841893 -8 6 C-8.48577109 8.84410804 -8.48577109 8.84410804 -8 12 C-5.4781494 14.15224019 -5.4781494 14.15224019 -2.1875 15.6875 C5.14921722 19.50048924 5.14921722 19.50048924 7 22 C7.41303987 26.26807869 7.47454353 28.87608111 5.8125 32.8125 C2.95322073 36.26335429 0.51097024 37.77496188 -3.9375 38.4375 C-7.83530088 37.8806713 -9.93989651 36.43417323 -13 34 C-15 31 -15 31 -15 28 C-13.68 27.67 -12.36 27.34 -11 27 C-10.525625 27.804375 -10.05125 28.60875 -9.5625 29.4375 C-8.23099846 31.84753488 -8.23099846 31.84753488 -7 33 C-1.97500306 32.71530797 -1.97500306 32.71530797 2 30 C2.83483326 27.13023717 2.83483326 27.13023717 2 24 C-0.42708497 21.90333501 -3.17988661 20.50372294 -6 19 C-11.78120185 15.4375963 -11.78120185 15.4375963 -13 13 C-13.34556568 9.98864195 -13.57794337 7.90638829 -13 5 C-9.08169048 0.41271081 -5.97706438 -1.06733293 0 0 Z " fill="#151515" transform="translate(283,135)"/>
<path d="M0 0 C3.9336482 0.26224321 5.6958038 0.8246089 8.75 3.25 C9.08 4.24 9.41 5.23 9.75 6.25 C8.76 6.91 7.77 7.57 6.75 8.25 C6.193125 7.755 5.63625 7.26 5.0625 6.75 C2.33491075 4.98075292 0.94151509 4.8300638 -2.25 5.25 C-4.4444157 7.07652751 -4.4444157 7.07652751 -4.73828125 9.6484375 C-4.50401188 12.50143143 -4.50401188 12.50143143 -1.73046875 14.1640625 C-0.64378906 14.72867188 0.44289063 15.29328125 1.5625 15.875 C8.94039935 19.771095 8.94039935 19.771095 10.75 22.25 C11.67402251 26.69529748 11.31862505 30.29552224 9 34.1875 C5.89683856 37.03206465 4.06026074 38.07909642 -0.125 38.625 C-4.18336385 38.13799634 -6.16636607 36.91313839 -9.25 34.25 C-10.625 31 -10.625 31 -11.25 28.25 C-9.93 27.92 -8.61 27.59 -7.25 27.25 C-6.71375 28.24 -6.1775 29.23 -5.625 30.25 C-3.56127481 33.56406608 -3.56127481 33.56406608 -0.1875 33.6875 C2.8017137 33.32888766 2.8017137 33.32888766 5.75 32.25 C5.75 29.28 5.75 26.31 5.75 23.25 C4.83476562 22.77949219 3.91953125 22.30898437 2.9765625 21.82421875 C1.77583262 21.19571171 0.5753232 20.56678337 -0.625 19.9375 C-1.22828125 19.62876953 -1.8315625 19.32003906 -2.453125 19.00195312 C-5.63258325 17.32390572 -7.21537552 16.30193672 -9.25 13.25 C-9.6875 9.875 -9.6875 9.875 -9.25 6.25 C-6.8125 3.375 -6.8125 3.375 -4.25 1.25 C-3.25 0.25 -3.25 0.25 0 0 Z " fill="#141414" transform="translate(339.25,134.75)"/>
<path d="M0 0 C6.6 0 13.2 0 20 0 C23 7 23 7 23 11 C16.07 11 9.14 11 2 11 C1.34 7.37 0.68 3.74 0 0 Z " fill="#F7F7F7" transform="translate(387,327)"/>
<path d="M0 0 C6.6 0 13.2 0 20 0 C19.34 3.63 18.68 7.26 18 11 C11.07 11 4.14 11 -3 11 C-2 4 -2 4 0 0 Z " fill="#F8F8F8" transform="translate(93,327)"/>
<path d="M0 0 C6.27 0 12.54 0 19 0 C19.33 3.63 19.66 7.26 20 11 C13.73 11 7.46 11 1 11 C0 7 0 7 0 0 Z " fill="#F7F7F7" transform="translate(337,327)"/>
<path d="M0 0 C1.18613892 0.00785522 1.18613892 0.00785522 2.39624023 0.01586914 C3.67724609 0.02070313 3.67724609 0.02070313 4.98413086 0.02563477 C5.88196289 0.03401367 6.77979492 0.04239258 7.70483398 0.05102539 C8.6065332 0.05553711 9.50823242 0.06004883 10.43725586 0.06469727 C12.67230988 0.07652295 14.90733 0.09445901 17.14233398 0.11352539 C16.48233398 3.74352539 15.82233398 7.37352539 15.14233398 11.11352539 C8.87233398 11.11352539 2.60233398 11.11352539 -3.85766602 11.11352539 C-2.88856476 0.17652551 -2.88856476 0.17652551 0 0 Z " fill="#F6F6F6" transform="translate(146.857666015625,326.886474609375)"/>
<path d="M0 0 C5.94 0 11.88 0 18 0 C20 5 20 5 20 11 C13.73 11 7.46 11 1 11 C0.67 7.37 0.34 3.74 0 0 Z " fill="#F5F5F5" transform="translate(362,327)"/>
<path d="M0 0 C5.94 0 11.88 0 18 0 C17.125 8.75 17.125 8.75 16 11 C10.06 11 4.12 11 -2 11 C-2 4 -2 4 0 0 Z " fill="#F6F6F6" transform="translate(120,327)"/>
<path d="M0 0 C5.94 0 11.88 0 18 0 C18 8 18 8 17 11 C10.73 11 4.46 11 -2 11 C-1.34 7.37 -0.68 3.74 0 0 Z " fill="#F8F8F8" transform="translate(170,327)"/>
<path d="M0 0 C5.94 0 11.88 0 18 0 C18.33 3.63 18.66 7.26 19 11 C13.06 11 7.12 11 1 11 C0 8 0 8 0 0 Z " fill="#F9F9F9" transform="translate(312,327)"/>
<path d="M0 0 C5.94 0 11.88 0 18 0 C17.67 3.63 17.34 7.26 17 11 C11.06 11 5.12 11 -1 11 C-0.67 7.37 -0.34 3.74 0 0 Z " fill="#F4F4F4" transform="translate(159,310)"/>
<path d="M0 0 C5.94 0 11.88 0 18 0 C20 7 20 7 20 11 C14.06 11 8.12 11 2 11 C1.34 7.37 0.68 3.74 0 0 Z " fill="#F4F4F4" transform="translate(347,310)"/>
<path d="M0 0 C5.94 0 11.88 0 18 0 C18.33 3.63 18.66 7.26 19 11 C13.06 11 7.12 11 1 11 C0.67 7.37 0.34 3.74 0 0 Z " fill="#F4F4F4" transform="translate(300,310)"/>
<path d="M0 0 C1.4656401 0.03315928 2.93087264 0.09269146 4.39453125 0.17578125 C5.14412109 0.19833984 5.89371094 0.22089844 6.66601562 0.24414062 C8.51387595 0.30298968 10.36070792 0.39267187 12.20703125 0.48828125 C12.06595378 1.94708234 11.9190071 3.40531676 11.76953125 4.86328125 C11.68832031 5.67539062 11.60710937 6.4875 11.5234375 7.32421875 C11.20703125 9.48828125 11.20703125 9.48828125 10.20703125 11.48828125 C4.26703125 11.48828125 -1.67296875 11.48828125 -7.79296875 11.48828125 C-6.0071417 0.77331896 -6.0071417 0.77331896 0 0 Z " fill="#F0F0F0" transform="translate(108.79296875,291.51171875)"/>
<path d="M0 0 C5.61 0 11.22 0 17 0 C18.71466036 3.42932071 18.05404056 7.21716065 18 11 C12.39 11 6.78 11 1 11 C0 7 0 7 0 0 Z " fill="#F4F4F4" transform="translate(324,310)"/>
<path d="M0 0 C5.28 0 10.56 0 16 0 C20 7.625 20 7.625 20 11 C14.06 11 8.12 11 2 11 C1.34 7.37 0.68 3.74 0 0 Z " fill="#F2F2F2" transform="translate(379,292)"/>
<path d="M0 0 C5.61 0 11.22 0 17 0 C16.125 8.75 16.125 8.75 15 11 C9.06 11 3.12 11 -3 11 C-2.01 7.37 -1.02 3.74 0 0 Z " fill="#F3F3F3" transform="translate(128,292)"/>
<path d="M0 0 C5.61 0 11.22 0 17 0 C16 7 16 7 15 11 C9.39 11 3.78 11 -2 11 C-2 5 -2 5 0 0 Z " fill="#F6F6F6" transform="translate(136,310)"/>
<path d="M0 0 C5.28 0 10.56 0 16 0 C16 7 16 7 14 11 C8.72 11 3.44 11 -2 11 C-2 4 -2 4 0 0 Z " fill="#F0F0F0" transform="translate(152,292)"/>
<path d="M0 0 C5.61 0 11.22 0 17 0 C17 3.63 17 7.26 17 11 C11.39 11 5.78 11 0 11 C0 7.37 0 3.74 0 0 Z " fill="#F3F3F3" transform="translate(230,310)"/>
<path d="M0 0 C5.61 0 11.22 0 17 0 C16.67 3.63 16.34 7.26 16 11 C10.39 11 4.78 11 -1 11 C-1 3 -1 3 0 0 Z " fill="#F6F6F6" transform="translate(184,310)"/>
<path d="M0 0 C5.61 0 11.22 0 17 0 C17 3.63 17 7.26 17 11 C14.35409986 11.02684679 11.70846904 11.04676357 9.0625 11.0625 C7.93038086 11.07506836 7.93038086 11.07506836 6.77539062 11.08789062 C4.85005687 11.09652441 2.92464419 11.05224333 1 11 C0 10 0 10 -0.09765625 7.71484375 C-0.06510417 5.14322917 -0.03255208 2.57161458 0 0 Z " fill="#F8F8F8" transform="translate(277,310)"/>
<path d="M0 0 C5.61 0 11.22 0 17 0 C17.09765625 7.71484375 17.09765625 7.71484375 17 10 C16 11 16 11 12.40234375 11.09765625 C10.91403133 11.0909822 9.42573568 11.07902183 7.9375 11.0625 C6.79958008 11.05573242 6.79958008 11.05573242 5.63867188 11.04882812 C3.75908129 11.0370068 1.87953101 11.01907078 0 11 C0 7.37 0 3.74 0 0 Z " fill="#F5F5F5" transform="translate(207,310)"/>
<path d="M0 0 C1.48831242 0.00667405 2.97660807 0.01863442 4.46484375 0.03515625 C5.22345703 0.03966797 5.98207031 0.04417969 6.76367188 0.04882812 C8.64326246 0.06064945 10.52281274 0.07858547 12.40234375 0.09765625 C12.40234375 3.72765625 12.40234375 7.35765625 12.40234375 11.09765625 C6.79234375 11.09765625 1.18234375 11.09765625 -4.59765625 11.09765625 C-4.6953125 3.3828125 -4.6953125 3.3828125 -4.59765625 1.09765625 C-3.59765625 0.09765625 -3.59765625 0.09765625 0 0 Z " fill="#EDEDED" transform="translate(223.59765625,291.90234375)"/>
<path d="M0 0 C5.28 0 10.56 0 16 0 C17.71466036 3.42932071 17.05404056 7.21716065 17 11 C11.39 11 5.78 11 0 11 C0 7.37 0 3.74 0 0 Z " fill="#F5F5F5" transform="translate(254,310)"/>
<path d="M0 0 C5.28 0 10.56 0 16 0 C18 5 18 5 18 11 C12.72 11 7.44 11 2 11 C0 5 0 5 0 0 Z " fill="#F3F3F3" transform="translate(356,292)"/>
<path d="M0 0 C0.70253906 0.00386719 1.40507812 0.00773437 2.12890625 0.01171875 C2.83144531 0.00785156 3.53398437 0.00398438 4.2578125 0 C9.50229247 0.01010497 9.50229247 0.01010497 10.62890625 1.13671875 C10.77147814 4.47290106 10.67118782 7.79647481 10.62890625 11.13671875 C5.01890625 11.13671875 -0.59109375 11.13671875 -6.37109375 11.13671875 C-6.46875 3.421875 -6.46875 3.421875 -6.37109375 1.13671875 C-4.61549433 -0.61888067 -2.33526933 0.00449956 0 0 Z " fill="#EEEEEE" transform="translate(248.37109375,291.86328125)"/>
<path d="M0 0 C5.28 0 10.56 0 16 0 C18 7 18 7 18 11 C12.39 11 6.78 11 1 11 C0.67 7.37 0.34 3.74 0 0 Z " fill="#F3F3F3" transform="translate(333,292)"/>
<path d="M0 0 C0.70253906 0.00386719 1.40507812 0.00773437 2.12890625 0.01171875 C2.83144531 0.00785156 3.53398437 0.00398438 4.2578125 0 C9.50229247 0.01010497 9.50229247 0.01010497 10.62890625 1.13671875 C10.77147814 4.47290106 10.67118782 7.79647481 10.62890625 11.13671875 C5.34890625 11.13671875 0.06890625 11.13671875 -5.37109375 11.13671875 C-6.25 3.421875 -6.25 3.421875 -6.37109375 1.13671875 C-4.61549433 -0.61888067 -2.33526933 0.00449956 0 0 Z " fill="#F2F2F2" transform="translate(293.37109375,291.86328125)"/>
<path d="M0 0 C2.64590014 -0.02684679 5.29153096 -0.04676357 7.9375 -0.0625 C8.69224609 -0.07087891 9.44699219 -0.07925781 10.22460938 -0.08789062 C12.14994313 -0.09652441 14.07535581 -0.05224333 16 0 C17 1 17 1 17.09765625 3.28515625 C17.06510417 5.85677083 17.03255208 8.42838542 17 11 C11.72 11 6.44 11 1 11 C0.67 7.37 0.34 3.74 0 0 Z " fill="#F2F2F2" transform="translate(310,292)"/>
<path d="M0 0 C5.28 0 10.56 0 16 0 C16 3.63 16 7.26 16 11 C10.39 11 4.78 11 -1 11 C-0.67 7.37 -0.34 3.74 0 0 Z " fill="#F1F1F1" transform="translate(197,292)"/>
<path d="M0 0 C1.39456452 0.00667256 2.78911118 0.01863093 4.18359375 0.03515625 C4.89451172 0.03966797 5.60542969 0.04417969 6.33789062 0.04882812 C8.09899388 0.06064761 9.86005411 0.07858362 11.62109375 0.09765625 C11.62109375 3.72765625 11.62109375 7.35765625 11.62109375 11.09765625 C6.01109375 11.09765625 0.40109375 11.09765625 -5.37890625 11.09765625 C-4.40685519 0.12736576 -4.40685519 0.12736576 0 0 Z " fill="#F4F4F4" transform="translate(178.37890625,291.90234375)"/>
<path d="M0 0 C2.47923801 -0.02685095 4.9581884 -0.04676547 7.4375 -0.0625 C8.14455078 -0.07087891 8.85160156 -0.07925781 9.58007812 -0.08789062 C11.38693559 -0.09653588 13.19387603 -0.05220011 15 0 C16 1 16 1 16.09765625 3.28515625 C16.06510417 5.85677083 16.03255208 8.42838542 16 11 C10.72 11 5.44 11 0 11 C0 7.37 0 3.74 0 0 Z " fill="#F6F6F6" transform="translate(265,292)"/>
<path d="M0 0 C0.66 0 1.32 0 2 0 C2 3.96 2 7.92 2 12 C7.61 12 13.22 12 19 12 C19 8.04 19 4.08 19 0 C19.66 0 20.32 0 21 0 C21 9.24 21 18.48 21 28 C20.34 28 19.68 28 19 28 C19 23.38 19 18.76 19 14 C13.39 14 7.78 14 2 14 C2 18.62 2 23.24 2 28 C1.34 28 0.68 28 0 28 C0 18.76 0 9.52 0 0 Z " fill="#292929" transform="translate(353,193)"/>
<path d="M0 0 C4.62 0 9.24 0 14 0 C14 0.66 14 1.32 14 2 C10.04 2 6.08 2 2 2 C2 5.3 2 8.6 2 12 C5.63 12 9.26 12 13 12 C13 12.33 13 12.66 13 13 C9.37 13 5.74 13 2 13 C2 17.29 2 21.58 2 26 C5.96 26 9.92 26 14 26 C14 26.66 14 27.32 14 28 C9.38 28 4.76 28 0 28 C0 18.76 0 9.52 0 0 Z " fill="#292929" transform="translate(296,193)"/>
<path d="M0 0 C2.33984375 1.5234375 2.33984375 1.5234375 4 3 C3.67 3.66 3.34 4.32 3 5 C2.13375 4.505 1.2675 4.01 0.375 3.5 C-3.24472537 1.89123317 -5.10348102 1.43175765 -9 2 C-12.6578218 4.03993908 -14.66946174 5.50419262 -17 9 C-17.61780406 13.28451124 -17.45715817 16.97683649 -15.6875 20.9375 C-13.62011443 23.46430459 -11.999876 24.88476005 -8.6953125 25.265625 C-2.12724855 25.23946874 -2.12724855 25.23946874 4 23 C3.1875 24.9375 3.1875 24.9375 2 27 C-2.38058099 28.46019366 -6.43159296 28.74063569 -11 28 C-15.23852951 25.62549533 -18.17705245 22.51477663 -20 18 C-20.72798272 13.34429655 -20.42814156 9.85628313 -18.3125 5.625 C-13.08879241 -0.30461402 -7.71699699 -1.17307555 0 0 Z " fill="#363636" transform="translate(339,193)"/>
<path d="M0 0 C3.58880268 4.30254214 4.52200925 8.6510811 6 14 C2.04 14 -1.92 14 -6 14 C-5.19074658 11.85294019 -4.37750887 9.7073817 -3.5625 7.5625 C-3.11003906 6.36753906 -2.65757812 5.17257813 -2.19140625 3.94140625 C-1 1 -1 1 0 0 Z " fill="#F0F0F0" transform="translate(309,144)"/>
<path d="M0 0 C5.28 0 10.56 0 16 0 C16 0.66 16 1.32 16 2 C13.69 2 11.38 2 9 2 C9 10.58 9 19.16 9 28 C8.34 28 7.68 28 7 28 C7 19.09 7 10.18 7 1 C4.69 1 2.38 1 0 1 C0 0.67 0 0.34 0 0 Z " fill="#343434" transform="translate(272,193)"/>
<path d="M0 0 C1.65 0 3.3 0 5 0 C7 2 7 2 7.25 5 C7 8 7 8 5 10 C3.35 10 1.7 10 0 10 C0 6.7 0 3.4 0 0 Z " fill="#FDFDFD" transform="translate(228,142)"/>
<path d="M0 0 C2 1 2 1 2.8515625 2.9609375 C3.10679687 3.75757813 3.36203125 4.55421875 3.625 5.375 C3.88539063 6.16648438 4.14578125 6.95796875 4.4140625 7.7734375 C5 10 5 10 5 13 C2.36 13 -0.28 13 -3 13 C-2.68991116 11.39536551 -2.37683713 9.79130769 -2.0625 8.1875 C-1.88847656 7.29417969 -1.71445313 6.40085938 -1.53515625 5.48046875 C-1 3 -1 3 0 0 Z " fill="#E0E0E0" transform="translate(201,146)"/>
<path d="M0 0 C2 1.8125 2 1.8125 4 4 C4 4.99 4 5.98 4 7 C3.38125 7.268125 2.7625 7.53625 2.125 7.8125 C-0.2995233 8.95556848 -0.2995233 8.95556848 -2 12 C-2.28875 10.88625 -2.5775 9.7725 -2.875 8.625 C-3.69241329 4.99708908 -3.69241329 4.99708908 -6 3 C-4.68 3 -3.36 3 -2 3 C-2 2.34 -2 1.68 -2 1 C-1.34 0.67 -0.68 0.34 0 0 Z " fill="#0E0E0E" transform="translate(310,354)"/>
<path d="M0 0 C0.95648438 -0.02578125 1.91296875 -0.0515625 2.8984375 -0.078125 C6.00392147 0.29560086 7.33036066 1.18373709 9.625 3.25 C9.295 3.91 8.965 4.57 8.625 5.25 C7.75875 4.755 6.8925 4.26 6 3.75 C2.38027463 2.14123317 0.52151898 1.68175765 -3.375 2.25 C-7.71394906 4.59303249 -10.49931869 7.26828741 -13.375 11.25 C-12.96034283 6.41233301 -10.9551385 4.39353624 -7.375 1.25 C-4.80935275 -0.03282363 -2.86466931 0.04608047 0 0 Z " fill="#222222" transform="translate(333.375,192.75)"/>
<path d="M0 0 C-0.33 1.65 -0.66 3.3 -1 5 C-2.65 4.67 -4.3 4.34 -6 4 C-6 2.68 -6 1.36 -6 0 C-3.50907189 -1.24546405 -2.58919267 -0.7767578 0 0 Z " fill="#111111" transform="translate(253,88)"/>
<path d="M0 0 C0 0.99 0 1.98 0 3 C-3.90028225 5.60018816 -7.47434569 5.15085514 -12 5 C-12 4.67 -12 4.34 -12 4 C-10.7625 3.71125 -9.525 3.4225 -8.25 3.125 C-5.27551258 2.38665206 -2.666144 1.55525067 0 0 Z " fill="#232323" transform="translate(342,216)"/>
<path d="M0 0 C0.66 0.66 1.32 1.32 2 2 C1.34 3.32 0.68 4.64 0 6 C-1.32 6 -2.64 6 -4 6 C-3.67 4.35 -3.34 2.7 -3 1 C-2.01 1.33 -1.02 1.66 0 2 C0 1.34 0 0.68 0 0 Z " fill="#212121" transform="translate(67,325)"/>
<path d="M0 0 C0.66 0 1.32 0 2 0 C1.67 1.65 1.34 3.3 1 5 C-1.475 4.01 -1.475 4.01 -4 3 C-2.68 2.67 -1.36 2.34 0 2 C0 1.34 0 0.68 0 0 Z " fill="#151515" transform="translate(308,355)"/>
</svg>
