<?xml version="1.0" encoding="UTF-8"?>
<svg version="1.1" xmlns="http://www.w3.org/2000/svg" width="500" height="500">
<path d="M0 0 C165 0 330 0 500 0 C500 165 500 330 500 500 C335 500 170 500 0 500 C0 335 0 170 0 0 Z " fill="#E2DCDB" transform="translate(0,0)"/>
<path d="M0 0 C1.24017637 -0.0060911 2.48035275 -0.01218221 3.75811023 -0.01845789 C7.19341936 -0.03221696 10.62824996 -0.03254217 14.06355059 -0.02708292 C17.77124696 -0.02441115 21.47888231 -0.03894734 25.18655396 -0.05117798 C32.44791549 -0.07222857 39.70919718 -0.07677302 46.97058562 -0.07499009 C52.87378902 -0.07368218 58.77696753 -0.07748809 64.68016624 -0.08491516 C66.38095607 -0.08701437 68.0817459 -0.08911198 69.78253573 -0.09120798 C71.05236461 -0.09277327 71.05236461 -0.09277327 72.34784659 -0.09437019 C88.35745705 -0.11327135 104.36702168 -0.11222285 120.37663867 -0.10540086 C135.01693155 -0.09982652 149.65704936 -0.12064638 164.29730133 -0.15376133 C179.33462484 -0.18751003 194.37186451 -0.20266512 209.4092266 -0.1980443 C217.84964242 -0.19580067 226.28989648 -0.20102707 234.73027992 -0.22593689 C241.91666756 -0.24696539 249.10280475 -0.25052684 256.28920273 -0.2316373 C259.95423438 -0.22248853 263.6187993 -0.22130929 267.2837944 -0.24199295 C271.26111686 -0.2641905 275.23774396 -0.24746321 279.21508789 -0.22705078 C280.94389788 -0.24582755 280.94389788 -0.24582755 282.70763332 -0.26498365 C291.11860507 -0.17245942 297.15218192 1.74857169 303.17301941 7.76940918 C306.66687334 13.41332706 308.17223272 17.79629053 308.18569946 24.44639587 C308.19377777 25.45757975 308.19377777 25.45757975 308.20201927 26.48919159 C308.21623117 28.72919072 308.20921234 30.96859321 308.20207214 33.20861816 C308.20777927 34.82227042 308.21474486 36.43591865 308.22286987 38.04956055 C308.24077841 42.41943699 308.23963727 46.78911238 308.23392749 51.15901446 C308.23083235 54.8120588 308.2369317 58.4650647 308.24296623 62.11810356 C308.25700224 70.73831427 308.25545783 79.35842585 308.24406433 87.9786377 C308.23258334 96.86113668 308.24666053 105.74333372 308.27346081 114.62579292 C308.29563676 122.26253552 308.30225093 129.89918347 308.29638439 137.53595597 C308.29301823 142.09244365 308.29540726 146.64873779 308.31263542 151.20519829 C308.32813279 155.49074122 308.32411827 159.77583774 308.30533028 164.06136322 C308.30165213 165.63025135 308.30473027 167.19917277 308.31521606 168.76803017 C308.38330365 179.80103089 307.29127388 186.83068978 299.79801941 195.39440918 C300.63333191 195.73472168 300.63333191 195.73472168 301.48551941 196.08190918 C314.17091631 203.28172904 317.28421003 224.33779102 321.61051941 237.20690918 C322.96958695 241.23479735 324.33077058 245.2619686 325.69255066 249.28894043 C326.02820038 250.28169983 326.3638501 251.27445923 326.70967102 252.29730225 C329.15726013 259.52654312 331.62680657 266.74794596 334.12223816 273.96081543 C334.44698624 274.90455521 334.77173431 275.84829498 335.10632324 276.82063293 C336.83779007 281.80679139 338.70753763 286.67330962 340.79801941 291.51940918 C344.39261286 301.56959905 345.19997172 315.4865881 340.73551941 325.39440918 C336.80562994 331.61118348 331.72602198 334.37506893 324.79801941 336.39440918 C321.67906022 336.64971018 321.67906022 336.64971018 318.27800369 336.65726471 C316.97640124 336.664947 315.67479878 336.67262929 314.33375382 336.68054438 C312.89624399 336.67898407 311.45873436 336.67722653 310.02122498 336.67529297 C308.4887448 336.68046296 306.95626732 336.68649003 305.42379355 336.69329977 C301.21525667 336.70941451 297.00678806 336.71301749 292.79822397 336.71449471 C288.25819989 336.71820018 283.71821106 336.73329696 279.1782074 336.74676514 C269.25259288 336.77391379 259.32699454 336.7859781 249.40134907 336.79478645 C243.20304078 336.80031375 237.00473871 336.80878885 230.80643463 336.8177948 C213.64263425 336.84217666 196.47883884 336.86277671 179.31502151 336.86954498 C178.21679648 336.86998412 177.11857144 336.87042325 175.98706685 336.87087569 C174.88622939 336.87131224 173.78539193 336.8717488 172.65119576 336.87219858 C170.42051458 336.87308551 168.1898334 336.87397864 165.95915222 336.87487793 C164.29941335 336.87554222 164.29941335 336.87554222 162.6061444 336.87621993 C144.67506201 336.88411681 126.74414214 336.91902913 108.81312254 336.96559697 C90.40045576 337.01302951 71.98787053 337.03794889 53.57514167 337.04028082 C43.23827495 337.04211392 32.90162006 337.05360839 22.56481171 337.08992004 C13.76339382 337.12072943 4.96225323 337.13095876 -3.83920833 337.11444384 C-8.32868864 337.10663344 -12.81761059 337.10847548 -17.30702209 337.13655853 C-21.42050548 337.16205445 -25.53301151 337.15962848 -29.6464937 337.13537711 C-31.13101402 337.13146597 -32.61560377 337.13760775 -34.10002658 337.15506583 C-43.1684717 337.25492883 -50.17037264 336.53311826 -57.20198059 330.39440918 C-59.20217741 327.84668873 -60.79187041 325.30645068 -62.20198059 322.39440918 C-62.53198059 321.73440918 -62.86198059 321.07440918 -63.20198059 320.39440918 C-63.55522852 317.04908932 -63.57374638 313.69342048 -63.63948059 310.33190918 C-63.68524231 309.43407715 -63.73100403 308.53624512 -63.77815247 307.61120605 C-63.91621301 298.96141279 -61.11766693 291.68163727 -58.0813446 283.7416687 C-56.56074513 279.68277895 -55.18675734 275.57463375 -53.79963684 271.46862793 C-53.21332443 269.74652868 -52.62673355 268.02452422 -52.03987122 266.3026123 C-51.44797212 264.56241269 -50.85617534 262.82217828 -50.26448059 261.08190918 C-29.39556662 199.7105608 -29.39556662 199.7105608 -22.20198059 195.39440918 C-21.54198059 195.39440918 -20.88198059 195.39440918 -20.20198059 195.39440918 C-20.69569153 194.70733887 -21.18940247 194.02026855 -21.69807434 193.31237793 C-22.3387384 192.41132324 -22.97940247 191.51026855 -23.63948059 190.58190918 C-24.27756653 189.68858887 -24.91565247 188.79526855 -25.57307434 187.87487793 C-28.25982125 183.7835487 -28.33362479 180.63378395 -28.35588074 175.8368988 C-28.36245412 174.83295817 -28.36245412 174.83295817 -28.36916029 173.80873591 C-28.38253764 171.56116776 -28.38872482 169.31363882 -28.39485168 167.06604004 C-28.4027537 165.45622582 -28.41102271 163.84641337 -28.41963196 162.23660278 C-28.4458478 156.94417003 -28.46116246 151.65172939 -28.47541809 146.35925293 C-28.48077857 144.53587909 -28.48615609 142.71250529 -28.49155045 140.88913155 C-28.51318146 133.30147836 -28.5319161 125.7138273 -28.54317284 118.12615108 C-28.55939739 107.2619754 -28.59253626 96.3981582 -28.64957368 85.53411764 C-28.68832973 77.89065201 -28.70781242 70.24728201 -28.7130934 62.60372072 C-28.71674005 58.04143121 -28.72868741 53.47952409 -28.76119614 48.91734123 C-28.79137547 44.62033275 -28.79755374 40.32393602 -28.78581238 36.02684402 C-28.78559244 34.45555015 -28.79383094 32.88422708 -28.81146622 31.31303215 C-28.905977 22.40267474 -28.5108834 14.90389056 -23.20198059 7.39440918 C-20.76448059 4.95690918 -20.76448059 4.95690918 -18.20198059 3.39440918 C-17.41079488 2.87531731 -16.61960917 2.35622543 -15.80444813 1.8214035 C-10.54184923 -0.26319509 -5.61208198 -0.02579359 0 0 Z " fill="#E1DBDA" transform="translate(110.20198059082031,77.6055908203125)"/>
<path d="M0 0 C1.24017637 -0.0060911 2.48035275 -0.01218221 3.75811023 -0.01845789 C7.19341936 -0.03221696 10.62824996 -0.03254217 14.06355059 -0.02708292 C17.77124696 -0.02441115 21.47888231 -0.03894734 25.18655396 -0.05117798 C32.44791549 -0.07222857 39.70919718 -0.07677302 46.97058562 -0.07499009 C52.87378902 -0.07368218 58.77696753 -0.07748809 64.68016624 -0.08491516 C66.38095607 -0.08701437 68.0817459 -0.08911198 69.78253573 -0.09120798 C71.05236461 -0.09277327 71.05236461 -0.09277327 72.34784659 -0.09437019 C88.35745705 -0.11327135 104.36702168 -0.11222285 120.37663867 -0.10540086 C135.01693155 -0.09982652 149.65704936 -0.12064638 164.29730133 -0.15376133 C179.33462484 -0.18751003 194.37186451 -0.20266512 209.4092266 -0.1980443 C217.84964242 -0.19580067 226.28989648 -0.20102707 234.73027992 -0.22593689 C241.91666756 -0.24696539 249.10280475 -0.25052684 256.28920273 -0.2316373 C259.95423438 -0.22248853 263.6187993 -0.22130929 267.2837944 -0.24199295 C271.26111686 -0.2641905 275.23774396 -0.24746321 279.21508789 -0.22705078 C280.94389788 -0.24582755 280.94389788 -0.24582755 282.70763332 -0.26498365 C291.11860507 -0.17245942 297.15218192 1.74857169 303.17301941 7.76940918 C306.66687334 13.41332706 308.17223272 17.79629053 308.18569946 24.44639587 C308.19377777 25.45757975 308.19377777 25.45757975 308.20201927 26.48919159 C308.21623117 28.72919072 308.20921234 30.96859321 308.20207214 33.20861816 C308.20777927 34.82227042 308.21474486 36.43591865 308.22286987 38.04956055 C308.24077841 42.41943699 308.23963727 46.78911238 308.23392749 51.15901446 C308.23083235 54.8120588 308.2369317 58.4650647 308.24296623 62.11810356 C308.25700224 70.73831427 308.25545783 79.35842585 308.24406433 87.9786377 C308.23258334 96.86113668 308.24666053 105.74333372 308.27346081 114.62579292 C308.29563676 122.26253552 308.30225093 129.89918347 308.29638439 137.53595597 C308.29301823 142.09244365 308.29540726 146.64873779 308.31263542 151.20519829 C308.32813279 155.49074122 308.32411827 159.77583774 308.30533028 164.06136322 C308.30165213 165.63025135 308.30473027 167.19917277 308.31521606 168.76803017 C308.38330365 179.80103089 307.29127388 186.83068978 299.79801941 195.39440918 C300.63333191 195.73472168 300.63333191 195.73472168 301.48551941 196.08190918 C314.17091631 203.28172904 317.28421003 224.33779102 321.61051941 237.20690918 C322.96958695 241.23479735 324.33077058 245.2619686 325.69255066 249.28894043 C326.02820038 250.28169983 326.3638501 251.27445923 326.70967102 252.29730225 C329.15726013 259.52654312 331.62680657 266.74794596 334.12223816 273.96081543 C334.44698624 274.90455521 334.77173431 275.84829498 335.10632324 276.82063293 C336.83779007 281.80679139 338.70753763 286.67330962 340.79801941 291.51940918 C344.39261286 301.56959905 345.19997172 315.4865881 340.73551941 325.39440918 C336.80562994 331.61118348 331.72602198 334.37506893 324.79801941 336.39440918 C321.67906022 336.64971018 321.67906022 336.64971018 318.27800369 336.65726471 C316.97640124 336.664947 315.67479878 336.67262929 314.33375382 336.68054438 C312.89624399 336.67898407 311.45873436 336.67722653 310.02122498 336.67529297 C308.4887448 336.68046296 306.95626732 336.68649003 305.42379355 336.69329977 C301.21525667 336.70941451 297.00678806 336.71301749 292.79822397 336.71449471 C288.25819989 336.71820018 283.71821106 336.73329696 279.1782074 336.74676514 C269.25259288 336.77391379 259.32699454 336.7859781 249.40134907 336.79478645 C243.20304078 336.80031375 237.00473871 336.80878885 230.80643463 336.8177948 C213.64263425 336.84217666 196.47883884 336.86277671 179.31502151 336.86954498 C178.21679648 336.86998412 177.11857144 336.87042325 175.98706685 336.87087569 C174.88622939 336.87131224 173.78539193 336.8717488 172.65119576 336.87219858 C170.42051458 336.87308551 168.1898334 336.87397864 165.95915222 336.87487793 C164.29941335 336.87554222 164.29941335 336.87554222 162.6061444 336.87621993 C144.67506201 336.88411681 126.74414214 336.91902913 108.81312254 336.96559697 C90.40045576 337.01302951 71.98787053 337.03794889 53.57514167 337.04028082 C43.23827495 337.04211392 32.90162006 337.05360839 22.56481171 337.08992004 C13.76339382 337.12072943 4.96225323 337.13095876 -3.83920833 337.11444384 C-8.32868864 337.10663344 -12.81761059 337.10847548 -17.30702209 337.13655853 C-21.42050548 337.16205445 -25.53301151 337.15962848 -29.6464937 337.13537711 C-31.13101402 337.13146597 -32.61560377 337.13760775 -34.10002658 337.15506583 C-43.1684717 337.25492883 -50.17037264 336.53311826 -57.20198059 330.39440918 C-59.20217741 327.84668873 -60.79187041 325.30645068 -62.20198059 322.39440918 C-62.53198059 321.73440918 -62.86198059 321.07440918 -63.20198059 320.39440918 C-63.55522852 317.04908932 -63.57374638 313.69342048 -63.63948059 310.33190918 C-63.68524231 309.43407715 -63.73100403 308.53624512 -63.77815247 307.61120605 C-63.91621301 298.96141279 -61.11766693 291.68163727 -58.0813446 283.7416687 C-56.56074513 279.68277895 -55.18675734 275.57463375 -53.79963684 271.46862793 C-53.21332443 269.74652868 -52.62673355 268.02452422 -52.03987122 266.3026123 C-51.44797212 264.56241269 -50.85617534 262.82217828 -50.26448059 261.08190918 C-29.39556662 199.7105608 -29.39556662 199.7105608 -22.20198059 195.39440918 C-21.54198059 195.39440918 -20.88198059 195.39440918 -20.20198059 195.39440918 C-20.69569153 194.70733887 -21.18940247 194.02026855 -21.69807434 193.31237793 C-22.3387384 192.41132324 -22.97940247 191.51026855 -23.63948059 190.58190918 C-24.27756653 189.68858887 -24.91565247 188.79526855 -25.57307434 187.87487793 C-28.25982125 183.7835487 -28.33362479 180.63378395 -28.35588074 175.8368988 C-28.36245412 174.83295817 -28.36245412 174.83295817 -28.36916029 173.80873591 C-28.38253764 171.56116776 -28.38872482 169.31363882 -28.39485168 167.06604004 C-28.4027537 165.45622582 -28.41102271 163.84641337 -28.41963196 162.23660278 C-28.4458478 156.94417003 -28.46116246 151.65172939 -28.47541809 146.35925293 C-28.48077857 144.53587909 -28.48615609 142.71250529 -28.49155045 140.88913155 C-28.51318146 133.30147836 -28.5319161 125.7138273 -28.54317284 118.12615108 C-28.55939739 107.2619754 -28.59253626 96.3981582 -28.64957368 85.53411764 C-28.68832973 77.89065201 -28.70781242 70.24728201 -28.7130934 62.60372072 C-28.71674005 58.04143121 -28.72868741 53.47952409 -28.76119614 48.91734123 C-28.79137547 44.62033275 -28.79755374 40.32393602 -28.78581238 36.02684402 C-28.78559244 34.45555015 -28.79383094 32.88422708 -28.81146622 31.31303215 C-28.905977 22.40267474 -28.5108834 14.90389056 -23.20198059 7.39440918 C-20.76448059 4.95690918 -20.76448059 4.95690918 -18.20198059 3.39440918 C-17.41079488 2.87531731 -16.61960917 2.35622543 -15.80444813 1.8214035 C-10.54184923 -0.26319509 -5.61208198 -0.02579359 0 0 Z M-20.17775059 14.845644 C-21.48094807 18.08861126 -21.58255566 20.67846308 -21.58966064 24.1746521 C-21.59504618 24.84368785 -21.60043172 25.5127236 -21.60598046 26.20203316 C-21.62025168 28.4367575 -21.61315871 30.67088878 -21.60603333 32.90563965 C-21.61173741 34.51076737 -21.61870182 36.11589103 -21.62683105 37.7210083 C-21.64477493 42.07647371 -21.6435916 46.43173779 -21.63788867 50.78722906 C-21.63479811 54.42535544 -21.6408879 58.06344308 -21.64692742 61.70156395 C-21.66097552 70.28622353 -21.65940943 78.8707836 -21.64802551 87.45544434 C-21.63654806 96.30611186 -21.65061299 105.15647623 -21.67742199 114.0071038 C-21.69958963 121.6106698 -21.70621385 129.21414073 -21.70034558 136.81773674 C-21.69697684 141.35689624 -21.69938528 145.89586148 -21.7165966 150.43499374 C-21.7320803 154.70491301 -21.72809457 158.97438394 -21.70929146 163.24428558 C-21.70560928 164.80875438 -21.70870327 166.37325649 -21.71917725 167.93769455 C-22.08088688 178.9571627 -22.08088688 178.9571627 -17.20198059 188.39440918 C-10.98333769 193.00161587 -5.60198555 192.9637769 1.97512817 192.90907288 C3.81323141 192.91949117 3.81323141 192.91949117 5.68846804 192.93011993 C9.07798644 192.94522341 12.46662489 192.94245429 15.8561033 192.9319669 C19.516056 192.92496543 23.17591959 192.94097998 26.83584595 192.95396423 C34.00117741 192.97559379 41.16634999 192.97548004 48.33170336 192.96733869 C54.15623583 192.96103588 59.980722 192.9621783 65.80525398 192.96861076 C66.63460414 192.96951242 67.4639543 192.97041407 68.31843628 192.97134305 C70.00331971 192.97319428 71.68820312 192.97505684 73.37308652 192.97693061 C89.1690415 192.99350548 104.96490714 192.98479259 120.76085676 192.96794503 C135.2077721 192.95324885 149.65447945 192.96787583 164.101368 192.9967152 C178.94097379 193.02611757 193.78048361 193.037079 208.62011725 193.02753299 C210.29906784 193.02651046 211.97801845 193.02551585 213.65696907 193.02454948 C214.48301154 193.02407309 215.30905401 193.0235967 216.16012807 193.02310588 C221.97590874 193.02094283 227.79159844 193.03074002 233.60735893 193.04532051 C240.69751051 193.06284824 247.78739696 193.06272033 254.87753814 193.03996886 C258.49384111 193.02883037 262.10967704 193.02565454 265.72595978 193.04426956 C269.64885941 193.0642028 273.57103007 193.04528075 277.493927 193.02259827 C279.20273738 193.04035186 279.20273738 193.04035186 280.94606918 193.05846411 C287.79084033 192.97799508 292.61812572 192.07220274 297.79801941 187.39440918 C300.98341182 183.54923698 301.17874019 180.45400819 301.19915771 175.53823853 C301.20595438 174.86103567 301.21275105 174.18383281 301.21975368 173.48610866 C301.23869831 171.22377668 301.23629075 168.96198734 301.23381042 166.69958496 C301.24278968 165.07475083 301.25299831 163.4499231 301.26434326 161.82510376 C301.29083003 157.41594527 301.29787614 153.00696147 301.29979062 148.59773111 C301.30192395 145.84192879 301.30833031 143.08617079 301.31628227 140.33037949 C301.34403098 130.71318494 301.35628834 121.09611509 301.35392761 111.47888184 C301.35212524 102.51903921 301.38378337 93.55973843 301.4311586 84.60003293 C301.47040449 76.90304523 301.48647852 69.2062345 301.48456138 61.50914752 C301.483797 56.91397668 301.49231782 52.3192875 301.52409554 47.72421646 C301.55317334 43.40162036 301.55335483 39.07996524 301.53154564 34.75733566 C301.52841226 33.17350132 301.53547281 31.58960803 301.55362701 30.00587463 C301.93493987 20.50035547 301.93493987 20.50035547 298.18997192 12.08480835 C292.7985527 6.67226154 286.37742942 6.0461289 279.13215882 5.97919267 C277.99850307 5.98383848 276.86484733 5.98848429 275.69683838 5.99327087 C274.47960333 5.9864742 273.26236828 5.97967754 272.00824732 5.97267491 C268.64167884 5.95699959 265.27559208 5.95471478 261.9090215 5.95825803 C258.27361258 5.95887148 254.63827476 5.94230039 251.00289917 5.92808533 C243.88572875 5.90319664 236.76863288 5.89492227 229.65142257 5.89324819 C223.86598722 5.89182152 218.08057643 5.88565134 212.29514885 5.87614632 C195.88643527 5.84973724 179.47778048 5.83588687 163.06904549 5.83813774 C162.18498042 5.83825761 161.30091535 5.83837748 160.39006042 5.83850098 C159.06234111 5.83868494 159.06234111 5.83868494 157.70779919 5.83887262 C143.35785857 5.84009238 129.00815397 5.81137172 114.65828163 5.76908588 C99.9181228 5.72599309 85.17807909 5.7052753 70.43785566 5.70786721 C62.16456501 5.70886293 53.89152192 5.70062977 45.61828804 5.66833305 C38.57569551 5.64101608 31.53346283 5.63449348 24.49084026 5.65486132 C20.89875089 5.66465592 17.30735188 5.6648339 13.71532822 5.63880157 C9.8186273 5.61085183 5.92293409 5.62953648 2.02618408 5.6526947 C0.89475906 5.63726401 -0.23666596 5.62183332 -1.40237659 5.60593504 C-10.03277511 5.7193698 -14.77762571 8.14599063 -20.17775059 14.845644 Z " fill="#101010" transform="translate(110.20198059082031,77.6055908203125)"/>
<path d="M0 0 C1.24017637 -0.0060911 2.48035275 -0.01218221 3.75811023 -0.01845789 C7.19341936 -0.03221696 10.62824996 -0.03254217 14.06355059 -0.02708292 C17.77124696 -0.02441115 21.47888231 -0.03894734 25.18655396 -0.05117798 C32.44791549 -0.07222857 39.70919718 -0.07677302 46.97058562 -0.07499009 C52.87378902 -0.07368218 58.77696753 -0.07748809 64.68016624 -0.08491516 C66.38095607 -0.08701437 68.0817459 -0.08911198 69.78253573 -0.09120798 C71.05236461 -0.09277327 71.05236461 -0.09277327 72.34784659 -0.09437019 C88.35745705 -0.11327135 104.36702168 -0.11222285 120.37663867 -0.10540086 C135.01693155 -0.09982652 149.65704936 -0.12064638 164.29730133 -0.15376133 C179.33462484 -0.18751003 194.37186451 -0.20266512 209.4092266 -0.1980443 C217.84964242 -0.19580067 226.28989648 -0.20102707 234.73027992 -0.22593689 C241.91666756 -0.24696539 249.10280475 -0.25052684 256.28920273 -0.2316373 C259.95423438 -0.22248853 263.6187993 -0.22130929 267.2837944 -0.24199295 C271.26111686 -0.2641905 275.23774396 -0.24746321 279.21508789 -0.22705078 C280.94389788 -0.24582755 280.94389788 -0.24582755 282.70763332 -0.26498365 C291.11860507 -0.17245942 297.15218192 1.74857169 303.17301941 7.76940918 C306.66687334 13.41332706 308.17223272 17.79629053 308.18569946 24.44639587 C308.19377777 25.45757975 308.19377777 25.45757975 308.20201927 26.48919159 C308.21623117 28.72919072 308.20921234 30.96859321 308.20207214 33.20861816 C308.20777927 34.82227042 308.21474486 36.43591865 308.22286987 38.04956055 C308.24077841 42.41943699 308.23963727 46.78911238 308.23392749 51.15901446 C308.23083235 54.8120588 308.2369317 58.4650647 308.24296623 62.11810356 C308.25700224 70.73831427 308.25545783 79.35842585 308.24406433 87.9786377 C308.23258334 96.86113668 308.24666053 105.74333372 308.27346081 114.62579292 C308.29563676 122.26253552 308.30225093 129.89918347 308.29638439 137.53595597 C308.29301823 142.09244365 308.29540726 146.64873779 308.31263542 151.20519829 C308.32813279 155.49074122 308.32411827 159.77583774 308.30533028 164.06136322 C308.30165213 165.63025135 308.30473027 167.19917277 308.31521606 168.76803017 C308.38330365 179.80103089 307.29127388 186.83068978 299.79801941 195.39440918 C300.63333191 195.73472168 300.63333191 195.73472168 301.48551941 196.08190918 C314.17091631 203.28172904 317.28421003 224.33779102 321.61051941 237.20690918 C322.96958695 241.23479735 324.33077058 245.2619686 325.69255066 249.28894043 C326.02820038 250.28169983 326.3638501 251.27445923 326.70967102 252.29730225 C329.15726013 259.52654312 331.62680657 266.74794596 334.12223816 273.96081543 C334.44698624 274.90455521 334.77173431 275.84829498 335.10632324 276.82063293 C336.83779007 281.80679139 338.70753763 286.67330962 340.79801941 291.51940918 C344.39261286 301.56959905 345.19997172 315.4865881 340.73551941 325.39440918 C336.80562994 331.61118348 331.72602198 334.37506893 324.79801941 336.39440918 C321.67906022 336.64971018 321.67906022 336.64971018 318.27800369 336.65726471 C316.97640124 336.664947 315.67479878 336.67262929 314.33375382 336.68054438 C312.89624399 336.67898407 311.45873436 336.67722653 310.02122498 336.67529297 C308.4887448 336.68046296 306.95626732 336.68649003 305.42379355 336.69329977 C301.21525667 336.70941451 297.00678806 336.71301749 292.79822397 336.71449471 C288.25819989 336.71820018 283.71821106 336.73329696 279.1782074 336.74676514 C269.25259288 336.77391379 259.32699454 336.7859781 249.40134907 336.79478645 C243.20304078 336.80031375 237.00473871 336.80878885 230.80643463 336.8177948 C213.64263425 336.84217666 196.47883884 336.86277671 179.31502151 336.86954498 C178.21679648 336.86998412 177.11857144 336.87042325 175.98706685 336.87087569 C174.88622939 336.87131224 173.78539193 336.8717488 172.65119576 336.87219858 C170.42051458 336.87308551 168.1898334 336.87397864 165.95915222 336.87487793 C164.29941335 336.87554222 164.29941335 336.87554222 162.6061444 336.87621993 C144.67506201 336.88411681 126.74414214 336.91902913 108.81312254 336.96559697 C90.40045576 337.01302951 71.98787053 337.03794889 53.57514167 337.04028082 C43.23827495 337.04211392 32.90162006 337.05360839 22.56481171 337.08992004 C13.76339382 337.12072943 4.96225323 337.13095876 -3.83920833 337.11444384 C-8.32868864 337.10663344 -12.81761059 337.10847548 -17.30702209 337.13655853 C-21.42050548 337.16205445 -25.53301151 337.15962848 -29.6464937 337.13537711 C-31.13101402 337.13146597 -32.61560377 337.13760775 -34.10002658 337.15506583 C-43.1684717 337.25492883 -50.17037264 336.53311826 -57.20198059 330.39440918 C-59.20217741 327.84668873 -60.79187041 325.30645068 -62.20198059 322.39440918 C-62.53198059 321.73440918 -62.86198059 321.07440918 -63.20198059 320.39440918 C-63.55522852 317.04908932 -63.57374638 313.69342048 -63.63948059 310.33190918 C-63.68524231 309.43407715 -63.73100403 308.53624512 -63.77815247 307.61120605 C-63.91621301 298.96141279 -61.11766693 291.68163727 -58.0813446 283.7416687 C-56.56074513 279.68277895 -55.18675734 275.57463375 -53.79963684 271.46862793 C-53.21332443 269.74652868 -52.62673355 268.02452422 -52.03987122 266.3026123 C-51.44797212 264.56241269 -50.85617534 262.82217828 -50.26448059 261.08190918 C-29.39556662 199.7105608 -29.39556662 199.7105608 -22.20198059 195.39440918 C-21.54198059 195.39440918 -20.88198059 195.39440918 -20.20198059 195.39440918 C-20.69569153 194.70733887 -21.18940247 194.02026855 -21.69807434 193.31237793 C-22.3387384 192.41132324 -22.97940247 191.51026855 -23.63948059 190.58190918 C-24.27756653 189.68858887 -24.91565247 188.79526855 -25.57307434 187.87487793 C-28.25982125 183.7835487 -28.33362479 180.63378395 -28.35588074 175.8368988 C-28.36245412 174.83295817 -28.36245412 174.83295817 -28.36916029 173.80873591 C-28.38253764 171.56116776 -28.38872482 169.31363882 -28.39485168 167.06604004 C-28.4027537 165.45622582 -28.41102271 163.84641337 -28.41963196 162.23660278 C-28.4458478 156.94417003 -28.46116246 151.65172939 -28.47541809 146.35925293 C-28.48077857 144.53587909 -28.48615609 142.71250529 -28.49155045 140.88913155 C-28.51318146 133.30147836 -28.5319161 125.7138273 -28.54317284 118.12615108 C-28.55939739 107.2619754 -28.59253626 96.3981582 -28.64957368 85.53411764 C-28.68832973 77.89065201 -28.70781242 70.24728201 -28.7130934 62.60372072 C-28.71674005 58.04143121 -28.72868741 53.47952409 -28.76119614 48.91734123 C-28.79137547 44.62033275 -28.79755374 40.32393602 -28.78581238 36.02684402 C-28.78559244 34.45555015 -28.79383094 32.88422708 -28.81146622 31.31303215 C-28.905977 22.40267474 -28.5108834 14.90389056 -23.20198059 7.39440918 C-20.76448059 4.95690918 -20.76448059 4.95690918 -18.20198059 3.39440918 C-17.41079488 2.87531731 -16.61960917 2.35622543 -15.80444813 1.8214035 C-10.54184923 -0.26319509 -5.61208198 -0.02579359 0 0 Z M-20.17775059 14.845644 C-21.48094807 18.08861126 -21.58255566 20.67846308 -21.58966064 24.1746521 C-21.59504618 24.84368785 -21.60043172 25.5127236 -21.60598046 26.20203316 C-21.62025168 28.4367575 -21.61315871 30.67088878 -21.60603333 32.90563965 C-21.61173741 34.51076737 -21.61870182 36.11589103 -21.62683105 37.7210083 C-21.64477493 42.07647371 -21.6435916 46.43173779 -21.63788867 50.78722906 C-21.63479811 54.42535544 -21.6408879 58.06344308 -21.64692742 61.70156395 C-21.66097552 70.28622353 -21.65940943 78.8707836 -21.64802551 87.45544434 C-21.63654806 96.30611186 -21.65061299 105.15647623 -21.67742199 114.0071038 C-21.69958963 121.6106698 -21.70621385 129.21414073 -21.70034558 136.81773674 C-21.69697684 141.35689624 -21.69938528 145.89586148 -21.7165966 150.43499374 C-21.7320803 154.70491301 -21.72809457 158.97438394 -21.70929146 163.24428558 C-21.70560928 164.80875438 -21.70870327 166.37325649 -21.71917725 167.93769455 C-22.08088688 178.9571627 -22.08088688 178.9571627 -17.20198059 188.39440918 C-10.98333769 193.00161587 -5.60198555 192.9637769 1.97512817 192.90907288 C3.81323141 192.91949117 3.81323141 192.91949117 5.68846804 192.93011993 C9.07798644 192.94522341 12.46662489 192.94245429 15.8561033 192.9319669 C19.516056 192.92496543 23.17591959 192.94097998 26.83584595 192.95396423 C34.00117741 192.97559379 41.16634999 192.97548004 48.33170336 192.96733869 C54.15623583 192.96103588 59.980722 192.9621783 65.80525398 192.96861076 C66.63460414 192.96951242 67.4639543 192.97041407 68.31843628 192.97134305 C70.00331971 192.97319428 71.68820312 192.97505684 73.37308652 192.97693061 C89.1690415 192.99350548 104.96490714 192.98479259 120.76085676 192.96794503 C135.2077721 192.95324885 149.65447945 192.96787583 164.101368 192.9967152 C178.94097379 193.02611757 193.78048361 193.037079 208.62011725 193.02753299 C210.29906784 193.02651046 211.97801845 193.02551585 213.65696907 193.02454948 C214.48301154 193.02407309 215.30905401 193.0235967 216.16012807 193.02310588 C221.97590874 193.02094283 227.79159844 193.03074002 233.60735893 193.04532051 C240.69751051 193.06284824 247.78739696 193.06272033 254.87753814 193.03996886 C258.49384111 193.02883037 262.10967704 193.02565454 265.72595978 193.04426956 C269.64885941 193.0642028 273.57103007 193.04528075 277.493927 193.02259827 C279.20273738 193.04035186 279.20273738 193.04035186 280.94606918 193.05846411 C287.79084033 192.97799508 292.61812572 192.07220274 297.79801941 187.39440918 C300.98341182 183.54923698 301.17874019 180.45400819 301.19915771 175.53823853 C301.20595438 174.86103567 301.21275105 174.18383281 301.21975368 173.48610866 C301.23869831 171.22377668 301.23629075 168.96198734 301.23381042 166.69958496 C301.24278968 165.07475083 301.25299831 163.4499231 301.26434326 161.82510376 C301.29083003 157.41594527 301.29787614 153.00696147 301.29979062 148.59773111 C301.30192395 145.84192879 301.30833031 143.08617079 301.31628227 140.33037949 C301.34403098 130.71318494 301.35628834 121.09611509 301.35392761 111.47888184 C301.35212524 102.51903921 301.38378337 93.55973843 301.4311586 84.60003293 C301.47040449 76.90304523 301.48647852 69.2062345 301.48456138 61.50914752 C301.483797 56.91397668 301.49231782 52.3192875 301.52409554 47.72421646 C301.55317334 43.40162036 301.55335483 39.07996524 301.53154564 34.75733566 C301.52841226 33.17350132 301.53547281 31.58960803 301.55362701 30.00587463 C301.93493987 20.50035547 301.93493987 20.50035547 298.18997192 12.08480835 C292.7985527 6.67226154 286.37742942 6.0461289 279.13215882 5.97919267 C277.99850307 5.98383848 276.86484733 5.98848429 275.69683838 5.99327087 C274.47960333 5.9864742 273.26236828 5.97967754 272.00824732 5.97267491 C268.64167884 5.95699959 265.27559208 5.95471478 261.9090215 5.95825803 C258.27361258 5.95887148 254.63827476 5.94230039 251.00289917 5.92808533 C243.88572875 5.90319664 236.76863288 5.89492227 229.65142257 5.89324819 C223.86598722 5.89182152 218.08057643 5.88565134 212.29514885 5.87614632 C195.88643527 5.84973724 179.47778048 5.83588687 163.06904549 5.83813774 C162.18498042 5.83825761 161.30091535 5.83837748 160.39006042 5.83850098 C159.06234111 5.83868494 159.06234111 5.83868494 157.70779919 5.83887262 C143.35785857 5.84009238 129.00815397 5.81137172 114.65828163 5.76908588 C99.9181228 5.72599309 85.17807909 5.7052753 70.43785566 5.70786721 C62.16456501 5.70886293 53.89152192 5.70062977 45.61828804 5.66833305 C38.57569551 5.64101608 31.53346283 5.63449348 24.49084026 5.65486132 C20.89875089 5.66465592 17.30735188 5.6648339 13.71532822 5.63880157 C9.8186273 5.61085183 5.92293409 5.62953648 2.02618408 5.6526947 C0.89475906 5.63726401 -0.23666596 5.62183332 -1.40237659 5.60593504 C-10.03277511 5.7193698 -14.77762571 8.14599063 -20.17775059 14.845644 Z M-24.41291809 207.38659668 C-27.10563891 212.85738139 -28.90025048 218.74842665 -30.82698059 224.51940918 C-31.26224713 225.80498868 -31.69829753 227.09030302 -32.13508606 228.37536621 C-33.04193763 231.04540961 -33.94541947 233.71655753 -34.84651184 236.3885498 C-36.97566515 242.69282775 -39.15357275 248.98027366 -41.32698059 255.26940918 C-42.15252972 257.66262858 -42.97805094 260.05585762 -43.80354309 262.44909668 C-46.09930479 269.09882519 -48.39688007 275.74791156 -50.70198059 282.39440918 C-51.19142151 283.80955811 -51.19142151 283.80955811 -51.69075012 285.2532959 C-54.02331594 291.96795717 -54.02331594 291.96795717 -55.39338684 295.23815918 C-56.78173797 298.94042885 -56.91162735 302.51594374 -56.20198059 306.39440918 C-54.02038914 309.15010365 -52.33020566 310.83029665 -49.20198059 312.39440918 C-47.5927715 312.48711913 -45.97972025 312.51633231 -44.36784363 312.5146637 C-42.83655067 312.51672569 -42.83655067 312.51672569 -41.27432251 312.51882935 C-40.1500737 312.51523407 -39.02582489 312.51163879 -37.86750793 312.50793457 C-36.68703384 312.5080806 -35.50655975 312.50822662 -34.29031372 312.50837708 C-31.04878284 312.50779877 -27.80729484 312.50277501 -24.56577253 312.49580312 C-21.17983148 312.48956224 -17.79388964 312.4889652 -14.40794373 312.48777771 C-7.99417049 312.48466657 -1.58041425 312.47645609 4.83335149 312.46642822 C12.13434488 312.45526037 19.43533906 312.44975494 26.73633885 312.44473279 C41.75690852 312.4342733 56.77746227 312.41667804 71.79801941 312.39440918 C71.79361501 311.70802998 71.78921061 311.02165077 71.78467274 310.3144722 C71.77953427 308.96369646 71.77953427 308.96369646 71.77429199 307.58563232 C71.76988759 306.69300312 71.76548319 305.80037392 71.76094532 304.88069534 C71.8312834 300.16363827 72.9322956 295.72200281 73.98551941 291.14440918 C74.18210144 290.19050293 74.37868347 289.23659668 74.58122253 288.25378418 C74.79069519 287.32565918 75.00016785 286.39753418 75.21598816 285.44128418 C75.49092102 284.20136719 75.49092102 284.20136719 75.77140808 282.93640137 C77.19273009 279.41706611 78.73766016 276.65542641 81.79801941 274.39440918 C85.47245933 273.50013151 89.07666893 273.59491928 92.84294128 273.64978027 C93.95730057 273.64247894 95.07165985 273.63517761 96.2197876 273.62765503 C99.90273535 273.61144503 103.5839227 273.63865975 107.26676941 273.66784668 C109.8259735 273.66888392 112.3851792 273.66784836 114.94438171 273.66482544 C120.30780279 273.66500488 125.67060666 273.68518354 131.03385925 273.7220459 C137.22851884 273.76437971 143.42243686 273.77140039 149.61721182 273.75892198 C155.58402117 273.74751956 161.55060769 273.75905363 167.51739502 273.78126907 C170.05314077 273.78897076 172.58890884 273.79127045 175.12466431 273.78809738 C178.66790819 273.78735612 182.21002316 273.81259264 185.75309753 273.84509277 C186.80260086 273.84013794 187.85210419 273.83518311 188.93341064 273.83007812 C193.34280704 273.89467138 196.05022631 273.95561318 199.90751648 276.21902466 C202.47000552 279.16765749 203.10086801 281.79220167 203.98551941 285.58190918 C204.22685608 286.58774048 204.22685608 286.58774048 204.47306824 287.6138916 C204.93058156 289.537026 205.36494506 291.46562434 205.79801941 293.39440918 C206.01458191 294.2632373 206.23114441 295.13206543 206.45426941 296.02722168 C207.39648822 299.89309002 207.97315735 303.69390764 208.34880066 307.65612793 C208.43428162 308.54646729 208.51976257 309.43680664 208.60783386 310.35412598 C208.67059509 311.02741943 208.73335632 311.70071289 208.79801941 312.39440918 C224.1927323 312.48794752 239.58742386 312.55843486 254.98235416 312.60165787 C262.13088558 312.62226264 269.27924017 312.65034301 276.42765808 312.69616699 C282.65993272 312.73609903 288.89207926 312.76185715 295.12447828 312.77076316 C298.42303265 312.77596729 301.72113629 312.79026815 305.01959419 312.81732941 C308.70645479 312.84637371 312.39255692 312.85036456 316.07951355 312.84851074 C317.1670845 312.86289185 318.25465546 312.87727295 319.37518311 312.89208984 C325.72354203 312.85755902 329.64715165 312.21032758 334.79801941 308.39440918 C336.75625222 304.47794355 336.32574987 299.5440588 335.29899597 295.36169434 C334.57117958 293.27901172 333.76514185 291.24605836 332.92301941 289.20690918 C329.88222473 281.42763514 327.15396902 273.58189905 324.55686951 265.6434021 C320.93058818 254.56464997 317.11054252 243.58807623 312.91618347 232.70861816 C311.19100764 228.21215744 309.55079115 223.72989355 308.14958191 219.12097168 C307.89660339 218.29822754 307.64362488 217.4754834 307.38298035 216.62780762 C306.93034262 215.12420363 306.4966015 213.61468964 306.08805847 212.09851074 C304.45818951 206.69256138 301.60753954 203.38794531 296.79801941 200.39440918 C293.66704855 199.40804228 290.80617003 199.26562484 287.53364182 199.25739479 C286.46120877 199.25232025 285.38877573 199.24724571 284.28384471 199.24201739 C283.10643191 199.24151963 281.9290191 199.24102187 280.71592712 199.24050903 C279.46450338 199.23612678 278.21307963 199.23174453 276.92373395 199.22722948 C273.447934 199.2152765 269.97214792 199.20961852 266.49633145 199.20504832 C262.7484199 199.19908754 259.00052489 199.18747904 255.25262451 199.17675781 C246.20116097 199.15224708 237.14969196 199.13760982 228.09820545 199.12469774 C225.54172758 199.12098523 222.98525025 199.11701206 220.42877293 199.11294508 C204.55268838 199.08771104 188.67660295 199.06565846 172.80050278 199.05321693 C169.12405647 199.05028726 165.44761018 199.04732559 161.77116394 199.04431152 C160.40052657 199.04319245 160.40052657 199.04319245 159.00219956 199.04205076 C144.19622083 199.0293941 129.3903621 198.99616573 114.58443949 198.95450969 C99.3833466 198.91209233 84.18231518 198.88852225 68.98116326 198.88329637 C60.44627592 198.87988233 51.91157622 198.86812782 43.37674713 198.83519363 C36.10905654 198.80719486 28.84159207 198.79619306 21.57385173 198.8073891 C17.86641426 198.81257599 14.15945036 198.8096877 10.45208168 198.78492355 C6.43040791 198.75828433 2.40977649 198.77048992 -1.61195374 198.78640747 C-3.36468861 198.76558434 -3.36468861 198.76558434 -5.15283227 198.74434054 C-13.56191459 198.82643794 -19.29153385 200.45553603 -24.41291809 207.38659668 Z " fill="#0B0B0B" transform="translate(110.20198059082031,77.6055908203125)"/>
<path d="M0 0 C1.25469259 -0.0055344 2.50938518 -0.01106879 3.80209875 -0.0167709 C7.27320872 -0.03149763 10.74386374 -0.02136128 14.21495891 -0.00703418 C17.96281183 0.00408773 21.71060157 -0.00787101 25.45845032 -0.01687622 C32.79591555 -0.03080243 40.13320856 -0.02325712 47.47066557 -0.00820064 C56.01695919 0.00866816 64.56321001 0.00544809 73.10951513 0.00170528 C88.35921837 -0.00417217 103.60883903 0.00999373 118.85852051 0.03465271 C133.65314836 0.05857314 148.44766586 0.06565682 163.24230957 0.05516052 C179.35601382 0.04374887 195.46966705 0.04182432 211.58337069 0.05625862 C213.30190308 0.05778444 215.02043549 0.0593048 216.7389679 0.06081963 C218.00726583 0.06195635 218.00726583 0.06195635 219.30118594 0.06311603 C225.25716939 0.06785694 231.21313005 0.06600879 237.16911316 0.06175423 C244.42832605 0.05682539 251.68743466 0.06282162 258.94662368 0.08264852 C262.64977688 0.09251398 266.35277135 0.09763376 270.055933 0.08975601 C274.07104895 0.08138945 278.08574248 0.09629136 282.10083008 0.11352539 C283.27018648 0.10751535 284.43954288 0.1015053 285.64433432 0.09531313 C292.87055446 0.15183545 298.06814242 0.70447182 303.85583496 5.35276794 C305.78895953 7.80363903 306.68345585 9.91545853 307.66369629 12.87620544 C308.19954346 14.46247742 308.19954346 14.46247742 308.74621582 16.08079529 C309.11472656 17.20953064 309.4832373 18.33826599 309.86291504 19.50120544 C310.65812435 21.86851511 311.45370081 24.23570149 312.24963379 26.60276794 C312.63941406 27.77484802 313.02919434 28.9469281 313.43078613 30.15452576 C314.96646625 34.74482298 316.56554095 39.31151667 318.17541504 43.87620544 C318.74207139 45.49200317 319.30847945 47.107888 319.87463379 48.72386169 C320.15097656 49.51164001 320.42731934 50.29941833 320.71203613 51.11106873 C322.13863304 55.17815776 323.56344976 59.24586942 324.98791504 63.31370544 C325.41088867 64.52075134 325.41088867 64.52075134 325.84240723 65.75218201 C327.48120258 70.43261104 329.11129231 75.11595713 330.73400879 79.80198669 C331.09889404 80.85474792 331.4637793 81.90750916 331.83972168 82.99217224 C332.55232491 85.04921915 333.26378851 87.10666128 333.97399902 89.16453552 C334.29570068 90.09290222 334.61740234 91.02126892 334.94885254 91.97776794 C335.23421875 92.80357361 335.51958496 93.62937927 335.81359863 94.48020935 C336.51773205 96.53066919 336.51773205 96.53066919 337.55041504 98.50120544 C337.97115882 101.56061381 338.03040927 104.44717624 337.55041504 107.50120544 C335.0207303 110.78295863 333.47310172 112.19364322 329.55041504 113.50120544 C327.92624243 113.59092082 326.29859894 113.62317403 324.67195129 113.62145996 C323.66654297 113.62283463 322.66113464 113.62420929 321.6252594 113.62562561 C320.52330734 113.62203033 319.42135529 113.61843506 318.28601074 113.61473083 C316.54434128 113.61494987 316.54434128 113.61494987 314.76748657 113.61517334 C310.92037096 113.61447533 307.07330346 113.60668811 303.22619629 113.59886169 C300.56247373 113.59699712 297.89875386 113.59552422 295.23503113 113.59457397 C288.93462213 113.59146487 282.63423047 113.58325714 276.3338291 113.57322448 C269.16098427 113.5620503 261.98813861 113.5565496 254.81528723 113.55152905 C240.06032097 113.54107419 225.3053683 113.52348288 210.55041504 113.50120544 C210.41682587 112.55008377 210.28323669 111.5989621 210.14559937 110.61901855 C209.87974533 108.7393766 209.87974533 108.7393766 209.60852051 106.82176208 C209.43368134 105.58189041 209.25884216 104.34201874 209.07870483 103.0645752 C208.42446278 98.65164433 207.62137582 94.29716111 206.67541504 89.93870544 C206.45305176 88.8085199 206.45305176 88.8085199 206.22619629 87.65550232 C205.22257764 83.01682588 203.96229667 79.98667667 200.55041504 76.50120544 C198.15612044 75.30405814 196.65178172 75.36245735 193.97770691 75.34057617 C193.01455566 75.33053055 192.05140442 75.32048492 191.05906677 75.31013489 C189.46863304 75.3013884 189.46863304 75.3013884 187.84606934 75.29246521 C186.73214813 75.28268143 185.61822693 75.27289764 184.47055054 75.26281738 C180.77192388 75.23281997 177.07333344 75.21146739 173.37463379 75.19261169 C171.48362914 75.18275395 171.48362914 75.18275395 169.55442238 75.17269707 C164.25722339 75.1468028 158.9600389 75.12331309 153.66279888 75.10820103 C146.07195879 75.08629161 138.48182581 75.0443152 130.89126843 74.97476345 C124.91010411 74.92181981 118.92926572 74.90171899 112.947855 74.89300346 C110.40366946 74.88442456 107.85949735 74.86554721 105.31546593 74.83625984 C101.75739441 74.79750002 98.20117555 74.79629144 94.64294434 74.80418396 C93.58872787 74.78418335 92.53451141 74.76418274 91.448349 74.74357605 C86.30558643 74.68271011 86.30558643 74.68271011 81.79318142 76.79435921 C79.24246806 79.75346097 77.80719539 82.76513228 76.96838379 86.54808044 C76.75891113 87.47620544 76.54943848 88.40433044 76.33361816 89.36058044 C76.13703613 90.31448669 75.9404541 91.26839294 75.73791504 92.25120544 C75.41403809 93.65886169 75.41403809 93.65886169 75.08361816 95.09495544 C74.07932564 99.71151284 73.50335054 103.96276 73.52668762 108.69242859 C73.53182609 110.04320433 73.53182609 110.04320433 73.53706837 111.42126846 C73.54147277 112.10764767 73.54587717 112.79402687 73.55041504 113.50120544 C57.87764322 113.59470315 42.20494685 113.66521116 26.53196526 113.70845413 C19.25449162 113.72906752 11.97719141 113.75716446 4.6998291 113.80296326 C-1.64413727 113.84286882 -7.98797802 113.86864716 -14.33206642 113.87755942 C-17.69036848 113.88276798 -21.04831121 113.89498369 -24.40649796 113.92412567 C-28.15821965 113.95312964 -31.90919511 113.95716251 -35.66101074 113.95530701 C-36.77087845 113.96968811 -37.88074615 113.98406921 -39.02424622 113.99888611 C-45.12546826 113.96619923 -48.84061123 113.65617025 -53.44958496 109.50120544 C-55.65629287 105.08778963 -54.935027 100.18437364 -53.61364746 95.60276794 C-52.53835718 92.62226535 -51.41889138 89.66187567 -50.27966309 86.70530701 C-48.66524823 82.41856073 -47.19451083 78.08072804 -45.69958496 73.75120544 C-45.00569173 71.7537689 -44.31167836 69.75637408 -43.61755371 67.75901794 C-42.15685706 63.54717698 -40.70181287 59.33343 -39.25036621 55.11839294 C-36.99632691 48.57482165 -34.72628554 42.03692272 -32.44958496 35.50120544 C-32.05029785 34.3503949 -31.65101074 33.19958435 -31.23962402 32.01390076 C-30.04797387 28.58969549 -28.84422687 25.16997597 -27.63708496 21.75120544 C-27.27622803 20.70980408 -26.91537109 19.66840271 -26.5435791 18.59544373 C-23.97636964 11.38101861 -21.76663577 5.20376312 -14.69429302 1.33557308 C-9.97998044 -0.41675717 -4.96621277 -0.0407921 0 0 Z M-10.44958496 13.50120544 C-11.76571302 16.0106425 -11.76571302 16.0106425 -12.57458496 18.68870544 C-12.86591309 19.54851013 -13.15724121 20.40831482 -13.45739746 21.29417419 C-14.01033593 23.08142808 -14.55824511 24.87033341 -15.08654785 26.6650238 C-16.45540169 31.30926627 -17.90838909 35.90589256 -19.49255371 40.48167419 C-19.84382324 41.5006781 -20.19509277 42.51968201 -20.55700684 43.56956482 C-21.28194092 45.66309056 -22.01381095 47.75422641 -22.75231934 49.84300232 C-25.476366 57.51497257 -25.476366 57.51497257 -25.44958496 65.50120544 C-22.38899204 68.52264777 -20.09480404 68.87664685 -15.87730408 68.87872887 C-14.16567754 68.89046373 -14.16567754 68.89046373 -12.41947269 68.90243566 C-11.16540339 68.8957435 -9.9113341 68.88905133 -8.6192627 68.88215637 C-7.27397246 68.88561232 -5.92868505 68.89037645 -4.58340359 68.89633811 C-0.88317355 68.90888662 2.81682501 68.90266035 6.51705599 68.89337945 C10.50620897 68.886605 14.49532154 68.8970622 18.48446655 68.90531921 C26.30056784 68.91867593 34.11658282 68.9157702 41.93268752 68.90708129 C48.28363362 68.90031276 54.63455548 68.89938442 60.98550415 68.90265274 C62.34011052 68.90334229 62.34011052 68.90334229 63.72208267 68.90404577 C65.55651562 68.90500492 67.39094856 68.90597756 69.22538149 68.90696354 C86.43660747 68.91552311 103.64778554 68.90567442 120.85900366 68.88956244 C135.63474551 68.87615875 150.41041666 68.87848668 165.18615723 68.89231873 C182.33478301 68.90836453 199.48336678 68.91469909 216.63199902 68.90548193 C218.45977465 68.90452626 220.28755028 68.90358315 222.11532593 68.90265274 C223.01468308 68.90218991 223.91404022 68.90172709 224.84065062 68.90125024 C231.18573898 68.89865735 237.53080076 68.90303778 243.87588501 68.9100914 C251.6058954 68.91849551 259.33581437 68.91624927 267.06581426 68.90024917 C271.01160798 68.89235172 274.95724916 68.88929981 278.90304184 68.89919662 C282.51275691 68.90811372 286.12217753 68.9032604 289.73186576 68.88726397 C291.66134503 68.88230729 293.59084461 68.89213938 295.52030277 68.90243566 C296.66138713 68.89461242 297.80247149 68.88678918 298.97813416 68.87872887 C299.9647576 68.87824181 300.95138105 68.87775475 301.96790218 68.87725294 C305.00833596 68.4345262 306.3905919 67.668754 308.55041504 65.50120544 C309.12552825 60.51131812 308.19321307 56.64309459 306.50354004 51.96604919 C306.07041504 50.74337341 305.63729004 49.52069763 305.19104004 48.26097107 C304.72817859 46.98663526 304.26463496 45.71254702 303.80041504 44.43870544 C300.71713125 35.85660013 297.83862252 27.34973661 295.53381348 18.52684021 C294.04028909 13.93169429 292.59897335 11.20024432 288.55041504 8.50120544 C286.22986229 8.19751757 286.22986229 8.19751757 283.60373116 8.24114323 C282.5767232 8.23407764 281.54971525 8.22701204 280.49158585 8.21973234 C279.35979617 8.22214743 278.2280065 8.22456251 277.06192017 8.22705078 C275.26252041 8.21919576 275.26252041 8.21919576 273.42676914 8.21118206 C270.09107032 8.19874673 266.75558202 8.19533928 263.41987443 8.19577897 C259.82468623 8.19413319 256.22953663 8.18107123 252.6343689 8.16958618 C244.77082582 8.14671915 236.9073097 8.13881387 229.04373789 8.13375974 C224.13547646 8.13050495 219.2272229 8.12398383 214.31896591 8.11675835 C200.73416712 8.09719086 187.14937564 8.0807873 173.56456184 8.07788181 C172.69494731 8.07769424 171.82533277 8.07750667 170.92936628 8.07731342 C169.16638557 8.07694716 167.40340486 8.07658347 165.64042415 8.07622231 C164.32767384 8.07594809 164.32767384 8.07594809 162.98840332 8.07566833 C162.11217063 8.07548779 161.23593795 8.07530724 160.33315276 8.07512122 C146.12969467 8.0715783 131.92638807 8.04454931 117.72298254 8.00717045 C103.14682532 7.96911697 88.57074334 7.94972456 73.99453533 7.9494223 C65.80793811 7.94883709 57.62152164 7.94030424 49.43497086 7.91142464 C42.46506336 7.88695033 35.49540253 7.87960099 28.52546372 7.89467216 C24.96827485 7.90185725 21.41157345 7.90091597 17.85443878 7.87826157 C14.00036681 7.85395084 10.14699567 7.8682626 6.2928772 7.88647461 C5.16554896 7.87327464 4.03822073 7.86007467 2.87673104 7.84647471 C-3.27610489 7.9131675 -6.66140722 8.11988299 -10.44958496 13.50120544 Z " fill="#E0DBDA" transform="translate(108.4495849609375,276.49879455566406)"/>
<path d="M0 0 C1.21723505 -0.00709439 2.4344701 -0.01418877 3.68859106 -0.02149814 C7.05550508 -0.03602847 10.42100699 -0.02820815 13.78781688 -0.01077521 C17.42322956 0.00261493 21.05853675 -0.01284422 24.69393921 -0.02459717 C31.81119252 -0.0429665 38.92817109 -0.03446604 46.04541581 -0.01650894 C51.83086009 -0.00247638 57.61622986 0.00140845 63.40168953 -0.00195122 C64.22548897 -0.00242866 65.0492884 -0.0029061 65.89805146 -0.00339801 C67.57166089 -0.00442436 69.2452703 -0.00547972 70.9188797 -0.00656378 C85.7149007 -0.01512955 100.5107892 0.00153953 115.30677795 0.03126526 C129.65807157 0.06009712 144.00917426 0.06718853 158.36048889 0.05177307 C173.99334959 0.035004 189.62611965 0.03098431 205.25898272 0.04848343 C206.92669935 0.05032779 208.59441599 0.05216251 210.26213264 0.0539875 C211.08264689 0.05489959 211.90316114 0.05581168 212.74853946 0.05675141 C218.52522532 0.06235282 224.30186688 0.05905327 230.07855034 0.05244255 C237.12110813 0.04470307 244.16347812 0.05148381 251.20599812 0.07661759 C254.79792919 0.08909912 258.3895681 0.09527579 261.98151016 0.08407593 C265.87807133 0.07215587 269.77413025 0.09132033 273.6706543 0.11352539 C274.80207932 0.10528462 275.93350434 0.09704386 277.09921497 0.08855337 C284.43953976 0.16581016 289.81918372 1.11901451 295.47326261 5.98247623 C298.97307357 9.66868879 299.52601715 12.65135711 299.53373718 17.60461426 C299.54153714 18.28267154 299.54933709 18.96072882 299.5573734 19.65933329 C299.57723014 21.91896356 299.56155601 24.1768976 299.54579163 26.4365387 C299.55257071 28.06152322 299.56147548 29.68650007 299.57234192 31.3114624 C299.59510933 35.71658742 299.5863092 40.12112601 299.57044649 44.52626109 C299.55777201 49.14078376 299.5695321 53.75525681 299.57737732 58.36978149 C299.58647029 66.11966447 299.5744962 73.86930911 299.55067444 81.61915588 C299.52347338 90.57160303 299.53227122 99.52348063 299.55980647 108.47591394 C299.58251806 116.16869915 299.58568732 123.86131317 299.57261312 131.55412108 C299.56482863 136.14582465 299.56374918 140.7372608 299.58029556 145.32894707 C299.59477065 149.64742029 299.58466364 153.96516159 299.55582428 158.28355598 C299.5492292 159.86575227 299.55108417 161.44801046 299.5621376 163.03018188 C299.64723157 176.45078044 299.64723157 176.45078044 296.73338318 180.9367981 C290.233232 187.10862806 284.38938909 187.06076817 275.8352356 187.01586914 C274.6099823 187.02125468 273.384729 187.02664022 272.12234682 187.03218895 C268.7287747 187.04401193 265.33569424 187.04240119 261.94214165 187.03502214 C258.27947915 187.03029109 254.61686926 187.04279974 250.95422363 187.05303955 C243.7817595 187.07023403 236.60938294 187.07106624 229.43690354 187.06582665 C223.60710103 187.06178499 217.7773244 187.06322845 211.94752312 187.06857491 C210.70286156 187.06969754 210.70286156 187.06969754 209.43305532 187.07084285 C207.74736464 187.07237433 206.06167396 187.07391268 204.37598329 187.07545782 C188.56863229 187.08918516 172.76133079 187.08374348 156.95398092 187.07227261 C142.49342242 187.06233951 128.03299185 187.07528178 113.57245309 187.0992068 C98.72272305 187.12359055 83.87305263 187.13320748 69.02330297 187.12655407 C60.68693569 187.1230603 52.35066681 187.12530435 44.01431465 187.1428051 C36.91792344 187.15751802 29.82169995 187.15817448 22.72531206 187.14073419 C19.10514675 187.1322143 15.48528115 187.13009842 11.86513138 187.14538574 C7.93972902 187.16175682 4.01479047 187.14710281 0.08938599 187.12939453 C-1.62481683 187.14380204 -1.62481683 187.14380204 -3.37365001 187.15850061 C-9.84353014 187.0983282 -13.85565172 186.51730026 -19.10118103 182.62818909 C-24.73370685 176.15209226 -23.66475015 168.00144474 -23.61875916 159.8740387 C-23.62418392 158.26699185 -23.63130857 156.65994998 -23.63999939 155.05291748 C-23.65819219 150.70170354 -23.65118243 146.35087012 -23.63848305 141.99964976 C-23.62833612 137.44072512 -23.63775326 132.88183245 -23.64402771 128.32290649 C-23.65129845 120.66899278 -23.64173071 113.01523362 -23.62266541 105.36134338 C-23.60088996 96.51741915 -23.60795516 87.67386369 -23.62997103 78.82994837 C-23.64813211 71.22974429 -23.65068013 63.62965112 -23.64021635 56.02943236 C-23.63398631 51.4931414 -23.63313246 46.95702371 -23.6463623 42.42074394 C-23.6579308 38.15652667 -23.64987707 33.89278429 -23.62678528 29.62861824 C-23.62150383 28.06534742 -23.62300236 26.50203652 -23.63183594 24.93878174 C-23.64279806 22.80154689 -23.62902284 20.66582541 -23.6091156 18.52868652 C-23.6076075 17.33391662 -23.6060994 16.13914671 -23.60454559 14.90817165 C-22.79230989 9.61554852 -20.0902007 6.21694056 -16.10750484 2.7924509 C-11.13352675 -0.49366709 -5.77374253 -0.06027972 0 0 Z M-12.10118103 15.62818909 C-12.55557836 18.54409642 -12.55557836 18.54409642 -12.48213196 21.92909241 C-12.48681193 22.5706567 -12.4914919 23.212221 -12.49631369 23.87322664 C-12.50829663 26.02678269 -12.49879418 28.17970624 -12.48936462 30.33326721 C-12.49342888 31.87562431 -12.49876994 33.4179785 -12.5052948 34.96032715 C-12.51899163 39.15243837 -12.51366006 43.34432854 -12.50415754 47.53644371 C-12.49657317 51.91928589 -12.50360315 56.30210888 -12.50831604 60.68495178 C-12.51377717 68.04578558 -12.50657264 75.40652914 -12.49229431 82.76734924 C-12.47596709 91.28287185 -12.48125535 99.798179 -12.49777353 108.31369638 C-12.51137825 115.61906993 -12.51331303 122.92437853 -12.50545752 130.22976065 C-12.50077541 134.59552131 -12.50017087 138.96118063 -12.51006699 143.32693481 C-12.51871967 147.43096589 -12.51274606 151.53471862 -12.49538422 155.63871956 C-12.49141025 157.14681091 -12.49256894 158.6549256 -12.49917221 160.16300774 C-12.50734236 162.2180856 -12.49712256 164.27226549 -12.48213196 166.32728577 C-12.48100088 167.47839592 -12.4798698 168.62950607 -12.47870445 169.81549835 C-12.33577692 172.58573192 -12.33577692 172.58573192 -10.88710272 174.28056163 C-8.52380205 176.06386988 -7.09538259 176.00310127 -4.14891052 176.0029192 C-3.12066917 176.01012574 -2.09242783 176.01733228 -1.03302765 176.02475721 C0.10012627 176.01738292 1.23328018 176.01000864 2.40077209 176.00241089 C3.60178307 176.00638529 4.80279404 176.0103597 6.04019928 176.01445454 C9.37987602 176.02243254 12.71904221 176.01689541 16.05867767 176.00570405 C19.65790995 175.99688067 23.25710663 176.00530014 26.8563385 176.01156616 C33.90957197 176.02106712 40.96270332 176.01444301 48.01592922 176.00230322 C56.22444212 175.98869991 64.43293053 175.9903196 72.64145184 175.99243655 C87.28455355 175.99562833 101.92760667 175.9839479 116.57069397 175.96437073 C130.78945903 175.94536577 145.00816712 175.93828294 159.22694397 175.94386292 C174.69893026 175.94991671 190.17089147 175.94975098 205.64287567 175.93837708 C207.29174805 175.93716975 208.94062042 175.93596377 210.5894928 175.93475914 C211.40083412 175.9341556 212.21217544 175.93355206 213.04810286 175.93293023 C218.7739792 175.92904609 224.49984624 175.92944663 230.22572327 175.93134499 C237.20076122 175.93346414 244.17574919 175.92826418 251.15077305 175.91373143 C254.71160632 175.90647317 258.27236671 175.90242255 261.83320618 175.90697479 C265.68780864 175.91178283 269.54227779 175.90116341 273.39686584 175.8888855 C274.53001976 175.89266482 275.66317368 175.89644415 276.83066559 175.90033799 C277.85890694 175.8945058 278.88714828 175.88867361 279.94654846 175.88266468 C280.8368853 175.8817979 281.72722214 175.88093113 282.64453888 175.88003808 C285.18147144 175.77117345 285.18147144 175.77117345 287.89881897 173.62818909 C288.35682972 170.79823529 288.35682972 170.79823529 288.2797699 167.40957642 C288.28444987 166.76478299 288.28912984 166.11998957 288.29395163 165.45565695 C288.30596136 163.28517803 288.29642169 161.11532359 288.28700256 158.94483948 C288.29106568 157.39277781 288.29640609 155.84071903 288.30293274 154.28866577 C288.31664437 150.06550524 288.31129163 145.84256383 288.30179548 141.61939931 C288.29421738 137.20585478 288.30123946 132.79232942 288.30595398 128.37878418 C288.31141752 120.96489584 288.30420487 113.55109704 288.28993225 106.13722229 C288.27361058 97.55980499 288.27888829 88.98260167 288.29541147 80.40518957 C288.30901651 73.04888133 288.31095063 65.69263758 288.30309546 58.33632082 C288.29841275 53.93924638 288.29781032 49.54227256 288.30770493 45.14520454 C288.31635787 41.01081877 288.3103835 36.8767093 288.29302216 32.74235344 C288.28904807 31.222975 288.29020708 29.70357339 288.29681015 28.1842041 C288.30497997 26.11374835 288.29476078 24.04418399 288.2797699 21.9737854 C288.27863882 20.81400208 288.27750774 19.65421877 288.27634239 18.4592905 C288.13538069 15.67300774 288.13538069 15.67300774 286.68474066 13.97484046 C284.32182551 12.19311456 282.89187155 12.2522769 279.94654846 12.25066566 C278.40418644 12.2389308 278.40418644 12.2389308 276.83066559 12.22695887 C275.69751167 12.23365104 274.56435776 12.2403432 273.39686584 12.24723816 C272.19585487 12.24255819 270.9948439 12.23787822 269.75743866 12.23305643 C266.41776786 12.22313745 263.07860081 12.22673858 259.73896027 12.23601508 C256.13972206 12.24278538 252.5405288 12.23233441 248.94129944 12.22407532 C241.88807193 12.21071412 234.83494002 12.21362631 227.78170872 12.22231324 C222.05096208 12.22908002 216.32024229 12.23001087 210.5894928 12.22674179 C209.77480923 12.22628209 208.96012567 12.22582239 208.12075472 12.22534876 C206.46589851 12.22438962 204.8110423 12.22341698 203.1561861 12.22243099 C187.62747136 12.21387011 172.09880969 12.22372216 156.57010365 12.23983209 C143.2369405 12.25323591 129.9038557 12.25090801 116.57069397 12.23707581 C101.0987036 12.2210323 85.62675979 12.21469414 70.15476227 12.2239126 C68.5058899 12.22486827 66.85701752 12.22581139 65.20814514 12.22674179 C64.39680382 12.22720462 63.5854625 12.22766744 62.74953508 12.2281443 C57.02365028 12.23073788 51.29779492 12.22635527 45.57191467 12.21930313 C38.59686042 12.21090157 31.62190749 12.21313984 24.64686489 12.22914536 C21.0859971 12.2370463 17.52529842 12.24008891 13.96443176 12.23019791 C10.10978226 12.21965256 6.25541155 12.23221781 2.40077209 12.24723816 C0.70104122 12.23719991 0.70104122 12.23719991 -1.03302765 12.22695887 C-2.061269 12.23478211 -3.08951035 12.24260535 -4.14891052 12.25066566 C-5.03924736 12.25115272 -5.9295842 12.25163978 -6.84690094 12.25214159 C-9.58322517 12.70860123 -10.47300949 13.4124657 -12.10118103 15.62818909 Z " fill="#DFD9D8" transform="translate(112.10118103027344,83.37181091308594)"/>
<path d="M0 0 C1.02824135 -0.00782324 2.0564827 -0.01564648 3.11588287 -0.02370679 C4.81561375 -0.01366855 4.81561375 -0.01366855 6.54968262 -0.00342751 C7.75069359 -0.00810748 8.95170456 -0.01278745 10.1891098 -0.01760924 C13.52878061 -0.02752822 16.86794765 -0.02392708 20.2075882 -0.01465058 C23.8068264 -0.00788029 27.40601966 -0.01833125 31.00524902 -0.02659035 C38.05847653 -0.03995154 45.11160844 -0.03703936 52.16483974 -0.02835242 C57.89558639 -0.02158565 63.62630618 -0.02065479 69.35705566 -0.02392387 C70.57908101 -0.02461342 70.57908101 -0.02461342 71.82579374 -0.0253169 C73.48064996 -0.02627605 75.13550616 -0.02724869 76.79036236 -0.02823468 C92.3190771 -0.03679556 107.84773878 -0.0269435 123.37644482 -0.01083358 C136.70960796 0.00257024 150.04269276 0.00024235 163.37585449 -0.01358986 C178.84784486 -0.02963336 194.31978867 -0.03597152 209.79178619 -0.02675307 C211.44065856 -0.02579739 213.08953094 -0.02485428 214.73840332 -0.02392387 C215.54974464 -0.02346105 216.36108596 -0.02299822 217.19701338 -0.02252137 C222.92289819 -0.01992778 228.64875354 -0.0243104 234.37463379 -0.03136253 C241.34968804 -0.03976409 248.32464097 -0.03752583 255.29968357 -0.0215203 C258.86055136 -0.01361936 262.42125004 -0.01057676 265.9821167 -0.02046776 C269.8367662 -0.0310131 273.69113692 -0.01844785 277.54577637 -0.00342751 C278.67893028 -0.01011967 279.8120842 -0.01681184 280.97957611 -0.02370679 C282.52193813 -0.01197193 282.52193813 -0.01197193 284.09545898 0 C284.98579582 0.00048706 285.87613266 0.00097411 286.7934494 0.00147593 C289.53016094 0.45800017 290.41997879 1.16083001 292.04772949 3.37752342 C292.42525291 6.20862484 292.42525291 6.20862484 292.42868042 9.72311974 C292.43336039 10.36947315 292.43804036 11.01582657 292.44286215 11.68176645 C292.45484551 13.85147444 292.44534251 16.02055469 292.43591309 18.19026756 C292.43997729 19.74409924 292.44531831 21.29792803 292.45184326 22.85175133 C292.46553966 27.07478563 292.460209 31.29760048 292.45070601 35.5206387 C292.44312276 39.93464525 292.45015117 44.34863273 292.4548645 48.76264 C292.46032539 56.17474818 292.45312113 63.58676673 292.43884277 70.99886131 C292.42250959 79.57688735 292.42780824 88.15469956 292.44432199 96.73272043 C292.45792023 104.08988246 292.45986486 111.44697999 292.45200598 118.80415052 C292.44732107 123.20173712 292.44672711 127.59922309 292.45661545 131.99680328 C292.46525894 136.12955781 292.4593115 140.26203561 292.44193268 144.39476013 C292.43795402 145.91455945 292.43912533 147.43438192 292.44572067 148.95417213 C292.4538723 151.02273651 292.44369384 153.09040413 292.42868042 155.15891075 C292.42754934 156.31831704 292.42641827 157.47772333 292.42525291 158.67226315 C292.30067019 159.56499904 292.17608746 160.45773493 292.04772949 161.37752342 C288.78252798 163.55432443 287.87260067 163.62832182 284.09545898 163.63199902 C283.06721764 163.63783121 282.03897629 163.6436634 280.97957611 163.64967233 C279.8464222 163.64589301 278.71326828 163.64211368 277.54577637 163.63821983 C276.3447654 163.64204538 275.14375443 163.64587093 273.90634918 163.6498124 C270.56678124 163.65836579 267.22743266 163.65790116 263.88787079 163.65363181 C260.28863861 163.65117137 256.68943263 163.66017017 253.09020996 163.6676693 C246.03700358 163.68043697 238.98383523 163.68220745 231.93061924 163.67986903 C226.19987628 163.67808818 220.46914489 163.6798305 214.73840332 163.68409348 C213.92371975 163.68468866 213.10903619 163.68528385 212.26966524 163.68589708 C210.61480903 163.68710879 208.95995283 163.68832292 207.30509663 163.68953945 C191.77639565 163.70042276 176.24771637 163.69824864 160.71901417 163.69215461 C146.50131257 163.68698357 132.28367945 163.6982444 118.0659914 163.71725283 C103.47854536 163.73660662 88.89113176 163.74489163 74.30367279 163.74112958 C66.10936734 163.73921394 57.9151202 163.74174035 49.7208252 163.75584412 C42.74577761 163.76772755 35.77082422 163.76919705 28.79577541 163.75705395 C25.2349031 163.75114404 21.67420335 163.75012365 18.11334229 163.76205635 C14.25870243 163.7748238 10.40432728 163.76450108 6.54968262 163.75174522 C5.4165287 163.75911951 4.28337479 163.76649379 3.11588287 163.77409154 C2.08764153 163.766885 1.05940018 163.75967846 0 163.75225353 C-0.89033684 163.75230855 -1.78067368 163.75236356 -2.69799042 163.75242025 C-5.43490233 163.2972596 -6.32402335 162.59358385 -7.95227051 160.37752342 C-8.32979393 157.56483269 -8.32979393 157.56483269 -8.33322144 154.0766201 C-8.33790141 153.4350558 -8.34258138 152.79349151 -8.34740317 152.13248587 C-8.35938611 149.97892982 -8.34988366 147.82600627 -8.3404541 145.6724453 C-8.34451836 144.1300882 -8.34985942 142.58773401 -8.35638428 141.04538536 C-8.37008111 136.85327414 -8.36474954 132.66138397 -8.35524702 128.4692688 C-8.34766265 124.08642662 -8.35469263 119.70360363 -8.35940552 115.32076073 C-8.36486664 107.95992693 -8.35766212 100.59918337 -8.34338379 93.23836327 C-8.32705657 84.72284066 -8.33234483 76.20753351 -8.34886301 67.69201612 C-8.36246773 60.38664258 -8.36440251 53.08133398 -8.356547 45.77595186 C-8.35186489 41.4101912 -8.35126035 37.04453188 -8.36115646 32.67877769 C-8.36980915 28.57474661 -8.36383554 24.47099389 -8.34647369 20.36699295 C-8.34249973 18.8589016 -8.34365842 17.3507869 -8.35026169 15.84270477 C-8.35843183 13.78762691 -8.34821204 11.73344702 -8.33322144 9.67842674 C-8.33209036 8.52731659 -8.33095928 7.37620644 -8.32979393 6.19021416 C-7.95227051 3.37752342 -7.95227051 3.37752342 -6.7381922 1.72532547 C-4.37532097 -0.05788972 -2.94612222 0.00161167 0 0 Z M-0.95227051 7.37752342 C-0.95227051 56.87752342 -0.95227051 106.37752342 -0.95227051 157.37752342 C93.42772949 157.37752342 187.80772949 157.37752342 285.04772949 157.37752342 C285.04772949 107.87752342 285.04772949 58.37752342 285.04772949 7.37752342 C190.66772949 7.37752342 96.28772949 7.37752342 -0.95227051 7.37752342 Z " fill="#0C0C0C" transform="translate(107.9522705078125,95.62247657775879)"/>
<path d="M0 0 C0.52638943 0.16240453 1.05277885 0.32480905 1.59511948 0.49213493 C4.60333254 1.12741237 7.40157506 1.1254116 10.47808838 1.12584114 C11.12984087 1.12729458 11.78159335 1.12874802 12.45309591 1.13024551 C14.64616276 1.13390704 16.83916017 1.13041836 19.03222656 1.12698364 C20.61675172 1.1281354 22.20127661 1.12972329 23.78580093 1.13171089 C28.14725264 1.13589671 32.50868255 1.13381686 36.87013435 1.13072467 C41.57093582 1.12846777 46.27173347 1.13195164 50.97253418 1.13470459 C60.18429158 1.13915815 69.39604085 1.13818765 78.60779858 1.13529195 C86.0924149 1.1330363 93.57702894 1.1327261 101.06164551 1.13381577 C102.12568737 1.133969 103.18972924 1.13412223 104.2860148 1.13428011 C106.44739374 1.13459982 108.60877268 1.13492404 110.77015162 1.1352527 C131.05159792 1.13810628 151.3330397 1.13482237 171.61448526 1.12945233 C189.02814869 1.12498441 206.44180545 1.12576037 223.85546875 1.13037109 C244.06287114 1.135719 264.27026958 1.1378316 284.47767258 1.13475883 C286.63123321 1.13444027 288.78479385 1.1341259 290.93835449 1.13381577 C291.99803004 1.13366149 293.05770558 1.13350721 294.1494925 1.13334826 C301.62769811 1.13248376 309.10590122 1.13394456 316.58410645 1.13629532 C325.6938232 1.13909591 334.80353134 1.13834955 343.91324711 1.13301457 C348.5637872 1.13038109 353.21431291 1.12936657 357.86485291 1.13266373 C362.11841815 1.13563389 366.37195561 1.13402176 370.62551832 1.12868617 C372.16785514 1.12756509 373.71019429 1.1281464 375.25252962 1.13056196 C377.34235741 1.13358502 379.43208893 1.13050155 381.52191162 1.12584114 C382.6847253 1.12567879 383.84753899 1.12551644 385.04558945 1.12534916 C387.55278659 1.01897428 389.61505531 0.73581609 392 0 C391.56562648 4.92289989 389.356381 7.48750825 386 11 C382.59455926 13.22454798 379.72200646 13.25483271 375.70487595 13.26564884 C373.75137022 13.27809733 373.75137022 13.27809733 371.75839972 13.29079729 C370.30969718 13.28992775 368.86099475 13.28885911 367.41229248 13.28761292 C365.87598785 13.29349586 364.3396863 13.30023472 362.80338883 13.30775779 C358.57507467 13.32585168 354.34682284 13.33135426 350.11847472 13.33474457 C345.56072733 13.34049754 341.00302007 13.35762269 336.44529724 13.37309265 C325.4360895 13.4078599 314.42688503 13.42343234 303.41763437 13.43721595 C298.2344574 13.44417549 293.05128443 13.45333258 287.86811066 13.46232414 C270.64090964 13.49152815 253.41371254 13.5163225 236.18648911 13.52694798 C235.08372309 13.52763867 233.98095707 13.52832936 232.8447739 13.52904099 C231.18664462 13.53007901 231.18664462 13.53007901 229.49501777 13.531138 C227.25497929 13.53255 225.01494081 13.53397081 222.77490234 13.53540039 C221.66376352 13.53610556 220.5526247 13.53681073 219.40781501 13.53753727 C201.40086512 13.54978933 183.39412569 13.59258767 165.38726315 13.64834059 C146.90460894 13.70510264 128.42206118 13.73559681 109.9393189 13.73996013 C99.55997328 13.74304366 89.18092005 13.75757261 78.80165863 13.80124092 C69.96387947 13.83831901 61.12647188 13.85153573 52.2886261 13.83353604 C47.77907785 13.82507533 43.27028854 13.82795956 38.76083946 13.86135483 C34.6312318 13.89166663 30.50294565 13.88958363 26.37333146 13.86186682 C24.88070644 13.85752402 23.38798984 13.86498553 21.89550003 13.88553984 C9.37663019 14.0471477 9.37663019 14.0471477 4.11902237 9.66139126 C1.17405073 6.67974355 0 4.30236521 0 0 Z " fill="#DDD7D6" transform="translate(54,394)"/>
<path d="M0 0 C1.19376424 -0.00031393 1.19376424 -0.00031393 2.41164494 -0.00063419 C3.32713108 -0.01046833 4.24261723 -0.02030247 5.18584538 -0.03043461 C6.18800587 -0.02076664 7.19016636 -0.01109867 8.22269535 -0.00113773 C9.27984745 -0.00654072 10.33699955 -0.0119437 11.42618656 -0.01751041 C14.92968365 -0.03004381 18.43236632 -0.01347423 21.93583012 0.0044775 C24.36576728 0.00432261 26.7957047 0.00283527 29.2256403 0.00006771 C34.32258852 -0.0013184 39.41925608 0.01127662 44.51615238 0.03401852 C51.05462636 0.06238831 57.59263321 0.05967254 64.13114166 0.04692841 C69.15053653 0.03997785 74.16982316 0.04775371 79.18920422 0.06018543 C81.60018404 0.06470703 84.01117545 0.06503058 86.42215633 0.06112003 C89.79080793 0.05821439 93.15881289 0.07468525 96.52738285 0.09651852 C97.52751911 0.09201687 98.52765537 0.08751522 99.55809879 0.08287716 C100.47640476 0.09278179 101.39471073 0.10268642 102.34084415 0.1128912 C103.13706401 0.11532109 103.93328386 0.11775099 104.75363159 0.12025452 C107.51195221 0.60011966 108.8920118 1.62121186 110.93973637 3.50057125 C111.86869144 5.88899899 111.86869144 5.88899899 112.45926762 8.684165 C112.78507816 10.1991357 112.78507816 10.1991357 113.11747074 11.74471188 C113.3269434 12.79852047 113.53641605 13.85232906 113.75223637 14.93807125 C113.98104496 15.98801266 114.20985355 17.03795406 114.44559574 18.11971188 C116.07746121 25.94967188 116.07746121 25.94967188 114.93973637 30.50057125 C74.01973637 30.50057125 33.09973637 30.50057125 -9.06026363 30.50057125 C-10.69302137 25.60229805 -8.90560357 21.01025575 -7.81026363 16.06307125 C-7.59241207 15.01312984 -7.37456051 13.96318844 -7.15010738 12.88143063 C-6.9296777 11.87016109 -6.70924801 10.85889156 -6.48213863 9.8169775 C-6.28201168 8.89344479 -6.08188473 7.96991207 -5.87569332 7.01839352 C-4.77947206 3.63356422 -3.65866428 0.88892612 0 0 Z " fill="#E0DAD9" transform="translate(197.06026363372803,356.4994287490845)"/>
<path d="M0 0 C36.63 0 73.26 0 111 0 C111 3.63 111 7.26 111 11 C74.04 11 37.08 11 -1 11 C-1 3 -1 3 0 0 Z " fill="#E0DAD9" transform="translate(195,327)"/>
<path d="M0 0 C1.65 0 3.3 0 5 0 C7.16115853 4.75914697 9.25979008 9.54163305 11.25 14.375 C11.58515625 15.18710938 11.9203125 15.99921875 12.265625 16.8359375 C13 19 13 19 13 22 C13.66 22 14.32 22 15 22 C15.10183594 21.18273437 15.20367187 20.36546875 15.30859375 19.5234375 C16.1293064 15.34104875 17.51904991 11.5856863 19.0625 7.625 C19.34416016 6.88894531 19.62582031 6.15289062 19.91601562 5.39453125 C20.60566618 3.5944264 21.30213932 1.7969379 22 0 C23.98 0 25.96 0 28 0 C28.71589268 4.62588527 29.42786202 9.25235108 30.13623047 13.87939453 C30.3776699 15.45280184 30.62017345 17.02604624 30.86376953 18.59912109 C31.21407659 20.86253363 31.56053056 23.12650778 31.90625 25.390625 C32.0156189 26.09181458 32.12498779 26.79300415 32.2376709 27.51544189 C32.72645454 30.73993874 33 33.72609245 33 37 C30.69 37 28.38 37 26 37 C25.79503906 35.71222656 25.59007812 34.42445313 25.37890625 33.09765625 C25.10698348 31.41923637 24.83483649 29.7408528 24.5625 28.0625 C24.42779297 27.21236328 24.29308594 26.36222656 24.15429688 25.48632812 C23.95610352 24.27299805 23.95610352 24.27299805 23.75390625 23.03515625 C23.63345947 22.2862915 23.5130127 21.53742676 23.38891602 20.76586914 C23.16240096 18.9829115 23.16240096 18.9829115 22 18 C19.69 24.27 17.38 30.54 15 37 C13.68 36.67 12.36 36.34 11 36 C9.99511719 34.14233398 9.99511719 34.14233398 9.296875 31.74609375 C9.0390625 30.89208984 8.78125 30.03808594 8.515625 29.15820312 C8.26296875 28.26037109 8.0103125 27.36253906 7.75 26.4375 C7.481875 25.53580078 7.21375 24.63410156 6.9375 23.70507812 C6.27645062 21.47403646 5.63146796 19.23955997 5 17 C3.50412092 18.49587908 3.70266371 19.91545903 3.5 22 C3.4175 22.804375 3.335 23.60875 3.25 24.4375 C3.12625 25.7059375 3.12625 25.7059375 3 27 C2.83735957 28.66706438 2.67089623 30.33376171 2.5 32 C2.4278125 32.7425 2.355625 33.485 2.28125 34.25 C2 36 2 36 1 37 C-1.33297433 37.04092937 -3.66705225 37.04241723 -6 37 C-5.02985661 27.98337319 -3.91919598 19.01088859 -2.4375 10.0625 C-2.31076904 9.28793457 -2.18403809 8.51336914 -2.0534668 7.71533203 C-1.12690347 2.25380694 -1.12690347 2.25380694 0 0 Z " fill="#0A0A0A" transform="translate(152,135)"/>
<path d="M0 0 C15 0 15 0 18.9375 1.875 C21.43648582 5.66134214 21.79029395 8.07887417 21.54296875 12.55078125 C20.68039691 16.44166286 18.8582309 18.28468065 16 21 C17.32038384 24.6150315 18.93170407 27.59250151 21.125 30.75 C24 34.90430622 24 34.90430622 24 36 C20.74890324 36.79618696 18.21236693 37.03690325 15 36 C12.02069213 32.30824895 9.98705646 28.29357537 8 24 C7.67 27.96 7.34 31.92 7 36 C4.69 36 2.38 36 0 36 C0 24.12 0 12.24 0 0 Z " fill="#070707" transform="translate(221,136)"/>
<path d="M0 0 C1.98 0 3.96 0 6 0 C9.39932049 7.74652842 12.39900533 15.6228389 15.3125 23.5625 C15.67408203 24.53848145 16.03566406 25.51446289 16.40820312 26.52001953 C16.9119043 27.90423096 16.9119043 27.90423096 17.42578125 29.31640625 C17.88078003 30.56079468 17.88078003 30.56079468 18.3449707 31.83032227 C19 34 19 34 19 37 C16.69 37 14.38 37 12 37 C11.01 34.69 10.02 32.38 9 30 C5.04 30 1.08 30 -3 30 C-3.99 32.31 -4.98 34.62 -6 37 C-8.31 37 -10.62 37 -13 37 C-11.50696372 28.7343353 -8.50165915 21.19204841 -5.375 13.4375 C-4.85354366 12.12980555 -4.33270546 10.82186443 -3.8125 9.51367188 C-2.5477061 6.33997606 -1.2767405 3.16890434 0 0 Z " fill="#070707" transform="translate(199,135)"/>
<path d="M0 0 C48.18 0 96.36 0 146 0 C146 1.32 146 2.64 146 4 C97.82 4 49.64 4 0 4 C0 2.68 0 1.36 0 0 Z " fill="#050505" transform="translate(120,206)"/>
<path d="M0 0 C4.04790179 0.02582393 6.47952997 0.7180232 9.75 3.25 C9.09 4.9 8.43 6.55 7.75 8.25 C4.78 7.92 1.81 7.59 -1.25 7.25 C-1.58 8.9 -1.91 10.55 -2.25 12.25 C-1.47914063 12.64832031 -0.70828125 13.04664063 0.0859375 13.45703125 C1.08882812 13.98683594 2.09171875 14.51664063 3.125 15.0625 C4.62160156 15.84560547 4.62160156 15.84560547 6.1484375 16.64453125 C8.75 18.25 8.75 18.25 10.75 21.25 C11.35695266 25.45925614 11.18802698 29.18951362 9.5625 33.125 C6.47146632 36.74897052 4.05830616 38.08348831 -0.6875 38.6875 C-4.92883251 38.1666346 -7.02097664 37.01773431 -10.25 34.25 C-11.125 32 -11.125 32 -11.25 30.25 C-9.93 29.26 -8.61 28.27 -7.25 27.25 C-6.71375 27.91 -6.1775 28.57 -5.625 29.25 C-3.35041408 31.56024799 -3.35041408 31.56024799 0 31.5 C0.9075 31.4175 1.815 31.335 2.75 31.25 C2.75 28.94 2.75 26.63 2.75 24.25 C1.84507812 23.79560547 1.84507812 23.79560547 0.921875 23.33203125 C-7.85229346 18.73266875 -7.85229346 18.73266875 -10.25 14.25 C-10.84587717 11.43677223 -10.92937209 9.05240986 -10.25 6.25 C-7.8125 3.3125 -7.8125 3.3125 -5.25 1.25 C-3.68966377 -0.31033623 -2.16052864 0.04292441 0 0 Z " fill="#080808" transform="translate(133.25,134.75)"/>
<path d="M0 0 C3.33986907 1.66993454 4.08827368 5.41043861 5.4765625 8.71875 C5.80667328 9.49182495 6.13678406 10.2648999 6.47689819 11.06140137 C7.17421015 12.6976621 7.86834892 14.33527817 8.55957031 15.97412109 C9.62167129 18.49210842 10.69273878 21.00612303 11.765625 23.51953125 C12.44062946 25.10654751 13.11512599 26.69377993 13.7890625 28.28125 C14.11089508 29.03853394 14.43272766 29.79581787 14.76431274 30.5760498 C17 35.88211971 17 35.88211971 17 37 C15.35 37 13.7 37 12 37 C10.68 34.03 9.36 31.06 8 28 C2.72 27.67 -2.56 27.34 -8 27 C-8.99 29.97 -9.98 32.94 -11 36 C-13.475 36.495 -13.475 36.495 -16 37 C-13.7498913 29.69894801 -10.83211016 22.80581691 -7.70166016 15.84033203 C-6.86503391 13.97781324 -6.03560333 12.11220759 -5.20703125 10.24609375 C-1.13778832 1.13778832 -1.13778832 1.13778832 0 0 Z " fill="#0F0E0E" transform="translate(309,135)"/>
<path d="M0 0 C10.23 0 20.46 0 31 0 C30 8 30 8 29 11 C18.44 11 7.88 11 -3 11 C-1 2 -1 2 0 0 Z " fill="#DCD7D6" transform="translate(98,310)"/>
<path d="M0 0 C7.26 0 14.52 0 22 0 C22 1.98 22 3.96 22 6 C19.36 6 16.72 6 14 6 C14 15.9 14 25.8 14 36 C11.69 36 9.38 36 7 36 C7 26.1 7 16.2 7 6 C4.69 6 2.38 6 0 6 C0 4.02 0 2.04 0 0 Z " fill="#080707" transform="translate(244,136)"/>
<path d="M0 0 C9.9 0 19.8 0 30 0 C33 6 33 6 33 11 C23.1 11 13.2 11 3 11 C0 3 0 3 0 0 Z " fill="#DDD8D7" transform="translate(371,310)"/>
<path d="M0 0 C2.31508779 1.47555046 4.01559692 3.06399699 6 5 C5.67 5.66 5.34 6.32 5 7 C4.484375 6.855625 3.96875 6.71125 3.4375 6.5625 C-2.38129982 4.94841893 -2.38129982 4.94841893 -8 6 C-8.48577109 8.84410804 -8.48577109 8.84410804 -8 12 C-5.4781494 14.15224019 -5.4781494 14.15224019 -2.1875 15.6875 C5.14921722 19.50048924 5.14921722 19.50048924 7 22 C7.41303987 26.26807869 7.47454353 28.87608111 5.8125 32.8125 C2.95322073 36.26335429 0.51097024 37.77496188 -3.9375 38.4375 C-7.83530088 37.8806713 -9.93989651 36.43417323 -13 34 C-15 31 -15 31 -15 28 C-13.68 27.67 -12.36 27.34 -11 27 C-10.525625 27.804375 -10.05125 28.60875 -9.5625 29.4375 C-8.23099846 31.84753488 -8.23099846 31.84753488 -7 33 C-1.97500306 32.71530797 -1.97500306 32.71530797 2 30 C2.83483326 27.13023717 2.83483326 27.13023717 2 24 C-0.42708497 21.90333501 -3.17988661 20.50372294 -6 19 C-11.78120185 15.4375963 -11.78120185 15.4375963 -13 13 C-13.34556568 9.98864195 -13.57794337 7.90638829 -13 5 C-9.08169048 0.41271081 -5.97706438 -1.06733293 0 0 Z " fill="#121212" transform="translate(370,135)"/>
<path d="M0 0 C2.31508779 1.47555046 4.01559692 3.06399699 6 5 C5.67 5.66 5.34 6.32 5 7 C4.484375 6.855625 3.96875 6.71125 3.4375 6.5625 C-2.38129982 4.94841893 -2.38129982 4.94841893 -8 6 C-8.48577109 8.84410804 -8.48577109 8.84410804 -8 12 C-5.4781494 14.15224019 -5.4781494 14.15224019 -2.1875 15.6875 C5.14921722 19.50048924 5.14921722 19.50048924 7 22 C7.41303987 26.26807869 7.47454353 28.87608111 5.8125 32.8125 C2.95322073 36.26335429 0.51097024 37.77496188 -3.9375 38.4375 C-7.83530088 37.8806713 -9.93989651 36.43417323 -13 34 C-15 31 -15 31 -15 28 C-13.68 27.67 -12.36 27.34 -11 27 C-10.525625 27.804375 -10.05125 28.60875 -9.5625 29.4375 C-8.23099846 31.84753488 -8.23099846 31.84753488 -7 33 C-1.97500306 32.71530797 -1.97500306 32.71530797 2 30 C2.83483326 27.13023717 2.83483326 27.13023717 2 24 C-0.42708497 21.90333501 -3.17988661 20.50372294 -6 19 C-11.78120185 15.4375963 -11.78120185 15.4375963 -13 13 C-13.34556568 9.98864195 -13.57794337 7.90638829 -13 5 C-9.08169048 0.41271081 -5.97706438 -1.06733293 0 0 Z " fill="#121212" transform="translate(283,135)"/>
<path d="M0 0 C3.9336482 0.26224321 5.6958038 0.8246089 8.75 3.25 C9.08 4.24 9.41 5.23 9.75 6.25 C8.76 6.91 7.77 7.57 6.75 8.25 C6.193125 7.755 5.63625 7.26 5.0625 6.75 C2.33491075 4.98075292 0.94151509 4.8300638 -2.25 5.25 C-4.4444157 7.07652751 -4.4444157 7.07652751 -4.73828125 9.6484375 C-4.50401188 12.50143143 -4.50401188 12.50143143 -1.73046875 14.1640625 C-0.64378906 14.72867188 0.44289063 15.29328125 1.5625 15.875 C8.94039935 19.771095 8.94039935 19.771095 10.75 22.25 C11.67402251 26.69529748 11.31862505 30.29552224 9 34.1875 C5.89683856 37.03206465 4.06026074 38.07909642 -0.125 38.625 C-4.18336385 38.13799634 -6.16636607 36.91313839 -9.25 34.25 C-10.625 31 -10.625 31 -11.25 28.25 C-9.93 27.92 -8.61 27.59 -7.25 27.25 C-6.71375 28.24 -6.1775 29.23 -5.625 30.25 C-3.56127481 33.56406608 -3.56127481 33.56406608 -0.1875 33.6875 C2.8017137 33.32888766 2.8017137 33.32888766 5.75 32.25 C5.75 29.28 5.75 26.31 5.75 23.25 C4.83476562 22.77949219 3.91953125 22.30898437 2.9765625 21.82421875 C1.77583262 21.19571171 0.5753232 20.56678337 -0.625 19.9375 C-1.22828125 19.62876953 -1.8315625 19.32003906 -2.453125 19.00195312 C-5.63258325 17.32390572 -7.21537552 16.30193672 -9.25 13.25 C-9.6875 9.875 -9.6875 9.875 -9.25 6.25 C-6.8125 3.375 -6.8125 3.375 -4.25 1.25 C-3.25 0.25 -3.25 0.25 0 0 Z " fill="#121211" transform="translate(339.25,134.75)"/>
<path d="M0 0 C6.6 0 13.2 0 20 0 C19.34 3.63 18.68 7.26 18 11 C11.07 11 4.14 11 -3 11 C-2 4 -2 4 0 0 Z " fill="#DDD8D7" transform="translate(93,327)"/>
<path d="M0 0 C6.6 0 13.2 0 20 0 C23 7 23 7 23 11 C16.07 11 9.14 11 2 11 C1.34 7.37 0.68 3.74 0 0 Z " fill="#DDD8D7" transform="translate(387,327)"/>
<path d="M0 0 C6.27 0 12.54 0 19 0 C19.33 3.63 19.66 7.26 20 11 C13.73 11 7.46 11 1 11 C0 7 0 7 0 0 Z " fill="#DDD8D7" transform="translate(337,327)"/>
<path d="M0 0 C1.18613892 0.00785522 1.18613892 0.00785522 2.39624023 0.01586914 C3.67724609 0.02070313 3.67724609 0.02070313 4.98413086 0.02563477 C5.88196289 0.03401367 6.77979492 0.04239258 7.70483398 0.05102539 C8.6065332 0.05553711 9.50823242 0.06004883 10.43725586 0.06469727 C12.67230988 0.07652295 14.90733 0.09445901 17.14233398 0.11352539 C16.48233398 3.74352539 15.82233398 7.37352539 15.14233398 11.11352539 C8.87233398 11.11352539 2.60233398 11.11352539 -3.85766602 11.11352539 C-2.88856476 0.17652551 -2.88856476 0.17652551 0 0 Z " fill="#DCD7D6" transform="translate(146.857666015625,326.886474609375)"/>
<path d="M0 0 C5.94 0 11.88 0 18 0 C20 5 20 5 20 11 C13.73 11 7.46 11 1 11 C0.67 7.37 0.34 3.74 0 0 Z " fill="#DCD6D5" transform="translate(362,327)"/>
<path d="M0 0 C5.94 0 11.88 0 18 0 C17.125 8.75 17.125 8.75 16 11 C10.06 11 4.12 11 -2 11 C-2 4 -2 4 0 0 Z " fill="#DDD7D6" transform="translate(120,327)"/>
<path d="M0 0 C5.94 0 11.88 0 18 0 C18 8 18 8 17 11 C10.73 11 4.46 11 -2 11 C-1.34 7.37 -0.68 3.74 0 0 Z " fill="#DED9D8" transform="translate(170,327)"/>
<path d="M0 0 C5.94 0 11.88 0 18 0 C18.33 3.63 18.66 7.26 19 11 C13.06 11 7.12 11 1 11 C0 8 0 8 0 0 Z " fill="#DFD9D8" transform="translate(312,327)"/>
<path d="M0 0 C5.94 0 11.88 0 18 0 C18 8 18 8 17 11 C11.06 11 5.12 11 -1 11 C-0.67 7.37 -0.34 3.74 0 0 Z " fill="#DAD4D3" transform="translate(159,310)"/>
<path d="M0 0 C5.94 0 11.88 0 18 0 C20 7 20 7 20 11 C14.06 11 8.12 11 2 11 C0 3 0 3 0 0 Z " fill="#D9D3D3" transform="translate(347,310)"/>
<path d="M0 0 C5.94 0 11.88 0 18 0 C18.33 3.63 18.66 7.26 19 11 C13.06 11 7.12 11 1 11 C0.67 7.37 0.34 3.74 0 0 Z " fill="#DBD5D4" transform="translate(300,310)"/>
<path d="M0 0 C1.4656401 0.03315928 2.93087264 0.09269146 4.39453125 0.17578125 C5.14412109 0.19833984 5.89371094 0.22089844 6.66601562 0.24414062 C8.51387595 0.30298968 10.36070792 0.39267187 12.20703125 0.48828125 C12.06595378 1.94708234 11.9190071 3.40531676 11.76953125 4.86328125 C11.68832031 5.67539062 11.60710937 6.4875 11.5234375 7.32421875 C11.20703125 9.48828125 11.20703125 9.48828125 10.20703125 11.48828125 C4.26703125 11.48828125 -1.67296875 11.48828125 -7.79296875 11.48828125 C-6.0071417 0.77331896 -6.0071417 0.77331896 0 0 Z " fill="#D7D2D1" transform="translate(108.79296875,291.51171875)"/>
<path d="M0 0 C5.61 0 11.22 0 17 0 C18.71466036 3.42932071 18.05404056 7.21716065 18 11 C12.39 11 6.78 11 1 11 C0 7 0 7 0 0 Z " fill="#DAD5D4" transform="translate(324,310)"/>
<path d="M0 0 C1.58206057 0.00667536 3.16410534 0.0186375 4.74609375 0.03515625 C5.55240234 0.03966797 6.35871094 0.04417969 7.18945312 0.04882812 C9.18753131 0.06065107 11.18557158 0.07858711 13.18359375 0.09765625 C12.67907156 3.84553537 12.10200142 7.42402559 11.18359375 11.09765625 C5.57359375 11.09765625 -0.03640625 11.09765625 -5.81640625 11.09765625 C-4.84405273 0.12395222 -4.84405273 0.12395222 0 0 Z " fill="#DBD6D5" transform="translate(139.81640625,309.90234375)"/>
<path d="M0 0 C2.6058889 -0.13494246 5.20482111 -0.23402299 7.8125 -0.3125 C8.55048828 -0.35439453 9.28847656 -0.39628906 10.04882812 -0.43945312 C12.20703125 -0.48828125 12.20703125 -0.48828125 16 0 C19.21472407 3.53684071 19.1815845 6.08950702 20 11 C14.06 11 8.12 11 2 11 C0 3 0 3 0 0 Z " fill="#D8D3D2" transform="translate(379,292)"/>
<path d="M0 0 C5.61 0 11.22 0 17 0 C16.125 8.75 16.125 8.75 15 11 C9.06 11 3.12 11 -3 11 C-2.01 7.37 -1.02 3.74 0 0 Z " fill="#DAD4D3" transform="translate(128,292)"/>
<path d="M0 0 C5.61 0 11.22 0 17 0 C17.09765625 7.71484375 17.09765625 7.71484375 17 10 C16 11 16 11 12.18359375 11.09765625 C10.60153318 11.09098089 9.01948841 11.07901875 7.4375 11.0625 C6.63119141 11.05798828 5.82488281 11.05347656 4.99414062 11.04882812 C2.99606244 11.03700518 0.99802217 11.01906914 -1 11 C-0.67 7.37 -0.34 3.74 0 0 Z " fill="#DAD5D4" transform="translate(207,310)"/>
<path d="M0 0 C5.61 0 11.22 0 17 0 C17 3.63 17 7.26 17 11 C11.39 11 5.78 11 0 11 C0 7.37 0 3.74 0 0 Z " fill="#DAD4D3" transform="translate(254,310)"/>
<path d="M0 0 C5.61 0 11.22 0 17 0 C17 3.63 17 7.26 17 11 C11.39 11 5.78 11 0 11 C0 7.37 0 3.74 0 0 Z " fill="#DAD4D4" transform="translate(230,310)"/>
<path d="M0 0 C5.61 0 11.22 0 17 0 C16.67 3.63 16.34 7.26 16 11 C10.39 11 4.78 11 -1 11 C-1 3 -1 3 0 0 Z " fill="#DCD6D5" transform="translate(184,310)"/>
<path d="M0 0 C5.61 0 11.22 0 17 0 C17 3.63 17 7.26 17 11 C14.35409986 11.02684679 11.70846904 11.04676357 9.0625 11.0625 C7.93038086 11.07506836 7.93038086 11.07506836 6.77539062 11.08789062 C4.85005687 11.09652441 2.92464419 11.05224333 1 11 C0 10 0 10 -0.09765625 7.71484375 C-0.06510417 5.14322917 -0.03255208 2.57161458 0 0 Z " fill="#DED8D7" transform="translate(277,310)"/>
<path d="M0 0 C1.48831242 0.00667405 2.97660807 0.01863442 4.46484375 0.03515625 C5.22345703 0.03966797 5.98207031 0.04417969 6.76367188 0.04882812 C8.64326246 0.06064945 10.52281274 0.07858547 12.40234375 0.09765625 C12.40234375 3.72765625 12.40234375 7.35765625 12.40234375 11.09765625 C6.79234375 11.09765625 1.18234375 11.09765625 -4.59765625 11.09765625 C-4.6953125 3.3828125 -4.6953125 3.3828125 -4.59765625 1.09765625 C-3.59765625 0.09765625 -3.59765625 0.09765625 0 0 Z " fill="#D4CFCE" transform="translate(223.59765625,291.90234375)"/>
<path d="M0 0 C5.28 0 10.56 0 16 0 C18 5 18 5 18 11 C12.72 11 7.44 11 2 11 C0 5 0 5 0 0 Z " fill="#DAD4D3" transform="translate(356,292)"/>
<path d="M0 0 C0.70253906 0.00386719 1.40507812 0.00773437 2.12890625 0.01171875 C2.83144531 0.00785156 3.53398437 0.00398438 4.2578125 0 C9.50229247 0.01010497 9.50229247 0.01010497 10.62890625 1.13671875 C10.77147814 4.47290106 10.67118782 7.79647481 10.62890625 11.13671875 C5.01890625 11.13671875 -0.59109375 11.13671875 -6.37109375 11.13671875 C-6.46875 3.421875 -6.46875 3.421875 -6.37109375 1.13671875 C-4.61549433 -0.61888067 -2.33526933 0.00449956 0 0 Z " fill="#D6D0D0" transform="translate(248.37109375,291.86328125)"/>
<path d="M0 0 C5.28 0 10.56 0 16 0 C15.125 9.875 15.125 9.875 14 11 C11.30345146 11.07319621 8.63308542 11.09242537 5.9375 11.0625 C4.79958008 11.05573242 4.79958008 11.05573242 3.63867188 11.04882812 C1.75908129 11.0370068 -0.12046899 11.01907078 -2 11 C-2.17700355 6.39790775 -2.10814567 4.21629134 0 0 Z " fill="#D9D4D3" transform="translate(152,292)"/>
<path d="M0 0 C5.28 0 10.56 0 16 0 C18 7 18 7 18 11 C12.39 11 6.78 11 1 11 C0.67 7.37 0.34 3.74 0 0 Z " fill="#DAD4D4" transform="translate(333,292)"/>
<path d="M0 0 C2.64590014 -0.02684679 5.29153096 -0.04676357 7.9375 -0.0625 C8.69224609 -0.07087891 9.44699219 -0.07925781 10.22460938 -0.08789062 C12.14994313 -0.09652441 14.07535581 -0.05224333 16 0 C17 1 17 1 17.09765625 3.28515625 C17.06510417 5.85677083 17.03255208 8.42838542 17 11 C11.72 11 6.44 11 1 11 C0.0318352 7.1273408 -0.07622858 3.96388638 0 0 Z " fill="#D8D3D2" transform="translate(287,292)"/>
<path d="M0 0 C2.64590014 -0.02684679 5.29153096 -0.04676357 7.9375 -0.0625 C8.69224609 -0.07087891 9.44699219 -0.07925781 10.22460938 -0.08789062 C12.14994313 -0.09652441 14.07535581 -0.05224333 16 0 C17 1 17 1 17.09765625 3.28515625 C17.06510417 5.85677083 17.03255208 8.42838542 17 11 C11.72 11 6.44 11 1 11 C0.67 7.37 0.34 3.74 0 0 Z " fill="#D8D3D2" transform="translate(310,292)"/>
<path d="M0 0 C5.28 0 10.56 0 16 0 C16 3.63 16 7.26 16 11 C10.39 11 4.78 11 -1 11 C-0.67 7.37 -0.34 3.74 0 0 Z " fill="#D8D3D2" transform="translate(197,292)"/>
<path d="M0 0 C1.39456452 0.00667256 2.78911118 0.01863093 4.18359375 0.03515625 C4.89451172 0.03966797 5.60542969 0.04417969 6.33789062 0.04882812 C8.09899388 0.06064761 9.86005411 0.07858362 11.62109375 0.09765625 C11.62109375 3.72765625 11.62109375 7.35765625 11.62109375 11.09765625 C6.01109375 11.09765625 0.40109375 11.09765625 -5.37890625 11.09765625 C-4.40685519 0.12736576 -4.40685519 0.12736576 0 0 Z " fill="#DAD4D4" transform="translate(178.37890625,291.90234375)"/>
<path d="M0 0 C5.28 0 10.56 0 16 0 C16 3.63 16 7.26 16 11 C10.72 11 5.44 11 0 11 C0 7.37 0 3.74 0 0 Z " fill="#DBD6D5" transform="translate(265,292)"/>
<path d="M0 0 C0.66 0 1.32 0 2 0 C2 3.96 2 7.92 2 12 C7.61 12 13.22 12 19 12 C19 8.04 19 4.08 19 0 C19.66 0 20.32 0 21 0 C21 9.24 21 18.48 21 28 C20.34 28 19.68 28 19 28 C19 23.38 19 18.76 19 14 C13.39 14 7.78 14 2 14 C2 18.62 2 23.24 2 28 C1.34 28 0.68 28 0 28 C0 18.76 0 9.52 0 0 Z " fill="#242323" transform="translate(353,192)"/>
<path d="M0 0 C4.62 0 9.24 0 14 0 C14 0.66 14 1.32 14 2 C10.04 2 6.08 2 2 2 C2 5.3 2 8.6 2 12 C5.63 12 9.26 12 13 12 C13 12.33 13 12.66 13 13 C9.37 13 5.74 13 2 13 C2 17.29 2 21.58 2 26 C5.96 26 9.92 26 14 26 C14 26.66 14 27.32 14 28 C9.38 28 4.76 28 0 28 C0 18.76 0 9.52 0 0 Z " fill="#252424" transform="translate(296,192)"/>
<path d="M0 0 C2.33984375 1.5234375 2.33984375 1.5234375 4 3 C3.67 3.66 3.34 4.32 3 5 C2.13375 4.505 1.2675 4.01 0.375 3.5 C-3.24472537 1.89123317 -5.10348102 1.43175765 -9 2 C-12.6578218 4.03993908 -14.66946174 5.50419262 -17 9 C-17.61780406 13.28451124 -17.45715817 16.97683649 -15.6875 20.9375 C-13.62011443 23.46430459 -11.999876 24.88476005 -8.6953125 25.265625 C-2.12724855 25.23946874 -2.12724855 25.23946874 4 23 C3.1875 24.9375 3.1875 24.9375 2 27 C-2.38058099 28.46019366 -6.43159296 28.74063569 -11 28 C-15.23852951 25.62549533 -18.17705245 22.51477663 -20 18 C-20.72798272 13.34429655 -20.42814156 9.85628313 -18.3125 5.625 C-13.08879241 -0.30461402 -7.71699699 -1.17307555 0 0 Z " fill="#302F2F" transform="translate(339,192)"/>
<path d="M0 0 C3.58880268 4.30254214 4.52200925 8.6510811 6 14 C2.04 14 -1.92 14 -6 14 C-5.19074658 11.85294019 -4.37750887 9.7073817 -3.5625 7.5625 C-3.11003906 6.36753906 -2.65757812 5.17257813 -2.19140625 3.94140625 C-1 1 -1 1 0 0 Z " fill="#D6D0CF" transform="translate(309,144)"/>
<path d="M0 0 C5.28 0 10.56 0 16 0 C16 0.66 16 1.32 16 2 C13.69 2 11.38 2 9 2 C9 10.58 9 19.16 9 28 C8.34 28 7.68 28 7 28 C7 19.09 7 10.18 7 1 C4.69 1 2.38 1 0 1 C0 0.67 0 0.34 0 0 Z " fill="#2E2D2D" transform="translate(272,192)"/>
<path d="M0 0 C1.65 0 3.3 0 5 0 C7 2 7 2 7.25 5 C7 8 7 8 5 10 C3.35 10 1.7 10 0 10 C0 6.7 0 3.4 0 0 Z " fill="#E1DBDA" transform="translate(228,142)"/>
<path d="M0 0 C2 1 2 1 2.8515625 2.9609375 C3.10679687 3.75757813 3.36203125 4.55421875 3.625 5.375 C3.88539063 6.16648438 4.14578125 6.95796875 4.4140625 7.7734375 C5 10 5 10 5 13 C2.36 13 -0.28 13 -3 13 C-2.68991116 11.39536551 -2.37683713 9.79130769 -2.0625 8.1875 C-1.88847656 7.29417969 -1.71445313 6.40085938 -1.53515625 5.48046875 C-1 3 -1 3 0 0 Z " fill="#C7C2C1" transform="translate(201,146)"/>
<path d="M0 0 C2 1.8125 2 1.8125 4 4 C4 4.99 4 5.98 4 7 C3.38125 7.268125 2.7625 7.53625 2.125 7.8125 C-0.2995233 8.95556848 -0.2995233 8.95556848 -2 12 C-2.28875 10.88625 -2.5775 9.7725 -2.875 8.625 C-3.69241329 4.99708908 -3.69241329 4.99708908 -6 3 C-4.68 3 -3.36 3 -2 3 C-2 2.34 -2 1.68 -2 1 C-1.34 0.67 -0.68 0.34 0 0 Z " fill="#0D0D0D" transform="translate(310,354)"/>
<path d="M0 0 C0.95648438 -0.02578125 1.91296875 -0.0515625 2.8984375 -0.078125 C6.00392147 0.29560086 7.33036066 1.18373709 9.625 3.25 C9.295 3.91 8.965 4.57 8.625 5.25 C7.75875 4.755 6.8925 4.26 6 3.75 C2.38027463 2.14123317 0.52151898 1.68175765 -3.375 2.25 C-7.71394906 4.59303249 -10.49931869 7.26828741 -13.375 11.25 C-12.96034283 6.41233301 -10.9551385 4.39353624 -7.375 1.25 C-4.80935275 -0.03282363 -2.86466931 0.04608047 0 0 Z " fill="#1E1D1D" transform="translate(333.375,191.75)"/>
<path d="M0 0 C-0.33 1.65 -0.66 3.3 -1 5 C-2.65 4.67 -4.3 4.34 -6 4 C-6 2.68 -6 1.36 -6 0 C-3.50907189 -1.24546405 -2.58919267 -0.7767578 0 0 Z " fill="#101010" transform="translate(253,88)"/>
<path d="M0 0 C0.66 0.66 1.32 1.32 2 2 C-0.625 6.875 -0.625 6.875 -4 8 C-3.67 5.69 -3.34 3.38 -3 1 C-2.01 1.33 -1.02 1.66 0 2 C0 1.34 0 0.68 0 0 Z " fill="#151514" transform="translate(67,325)"/>
<path d="M0 0 C0 0.99 0 1.98 0 3 C-3.90028225 5.60018816 -7.47434569 5.15085514 -12 5 C-12 4.67 -12 4.34 -12 4 C-10.7625 3.71125 -9.525 3.4225 -8.25 3.125 C-5.27551258 2.38665206 -2.666144 1.55525067 0 0 Z " fill="#1F1E1E" transform="translate(342,215)"/>
<path d="M0 0 C0.66 0 1.32 0 2 0 C1.67 1.65 1.34 3.3 1 5 C-1.475 4.01 -1.475 4.01 -4 3 C-2.68 2.67 -1.36 2.34 0 2 C0 1.34 0 0.68 0 0 Z " fill="#141313" transform="translate(308,355)"/>
</svg>
