<?xml version="1.0" encoding="UTF-8"?>
<svg version="1.1" xmlns="http://www.w3.org/2000/svg" width="1614" height="351">
<path d="M0 0 C0.58910156 0.52851563 1.17820312 1.05703125 1.78515625 1.6015625 C2.50832031 2.23320312 3.23148438 2.86484375 3.9765625 3.515625 C16.45900828 15.13211431 23.87375777 31.1248178 25.0234375 48.125 C25.42854053 69.14771526 18.63582647 87.07896181 3.9921875 102.48828125 C-6.42391088 112.37135967 -20.7859364 119.26046788 -35.0859375 120.19921875 C-36.23892334 120.27793213 -37.39190918 120.35664551 -38.57983398 120.43774414 C-39.44938721 120.4918042 -40.31894043 120.54586426 -41.21484375 120.6015625 C-41.28481934 132.65984286 -41.33789389 144.71807371 -41.37028027 156.77651691 C-41.38583588 162.37769635 -41.40688605 167.97873534 -41.44116211 173.57983398 C-41.47412032 179.00043781 -41.49177239 184.42090783 -41.49947548 189.84160423 C-41.50495436 191.89411712 -41.51564977 193.94662395 -41.53203392 195.99907875 C-41.65803694 212.46096348 -40.92716568 228.92784311 -35.15234375 244.5390625 C-34.89646484 245.27833984 -34.64058594 246.01761719 -34.37695312 246.77929688 C-33.39559417 249.57200733 -32.37918676 252.27992751 -31.03125 254.91796875 C-30.21484375 256.6015625 -30.21484375 256.6015625 -30.21484375 259.6015625 C-40.5293012 260.78599781 -40.5293012 260.78599781 -43.94921875 258.3828125 C-45.43277015 256.18638575 -46.30693008 254.09832509 -47.21484375 251.6015625 C-47.653125 250.40144531 -48.09140625 249.20132812 -48.54296875 247.96484375 C-54.11184699 231.65951621 -54.54016087 215.8861344 -54.62890625 198.80078125 C-54.64764543 196.51006901 -54.66722082 194.21936347 -54.68759155 191.92866516 C-54.73862841 185.93982926 -54.77840535 179.95097106 -54.81573486 173.96203613 C-54.85595409 167.83466197 -54.90696415 161.70737833 -54.95703125 155.58007812 C-55.05345318 143.58730343 -55.13796456 131.59447729 -55.21484375 119.6015625 C-55.88927017 119.47608536 -56.56369659 119.35060822 -57.25856018 119.22132874 C-58.59539101 118.96493874 -58.59539101 118.96493874 -59.95922852 118.70336914 C-60.83990494 118.536642 -61.72058136 118.36991486 -62.62794495 118.19813538 C-66.41976308 117.32369226 -69.71229275 115.82443852 -73.15234375 114.0390625 C-73.83619141 113.68827637 -74.52003906 113.33749023 -75.22460938 112.97607422 C-92.18019887 103.96891482 -103.35040371 89.38054609 -109.08984375 71.1640625 C-113.70124452 53.6520559 -111.51079962 35.14263944 -102.84375 19.2421875 C-92.42744945 2.3562902 -78.12018928 -7.42998899 -59.46484375 -13.6484375 C-38.56990249 -18.47034702 -16.65783354 -13.69237306 0 0 Z " fill="#ECF1B4" transform="translate(980.21484375,20.3984375)"/>
<path d="M0 0 C10.86738729 9.73477458 10.86738729 9.73477458 13 14 C13.01458252 13.35973877 13.02916504 12.71947754 13.04418945 12.05981445 C13.11891382 9.14345169 13.21549293 6.22820313 13.3125 3.3125 C13.34633789 1.80139648 13.34633789 1.80139648 13.38085938 0.25976562 C13.73079733 -9.37943443 13.73079733 -9.37943443 17 -13 C20.45710764 -13.94284754 22.85426758 -14.34062315 26.3125 -13.3125 C28.39419651 -11.69340271 29.01080547 -10.44279947 30 -8 C30.25168228 -5.53227425 30.25168228 -5.53227425 30.25396729 -2.71585083 C30.26242676 -1.10981239 30.26242676 -1.10981239 30.27105713 0.52867126 C30.26498444 2.28347557 30.26498444 2.28347557 30.25878906 4.07373047 C30.26404602 5.92819038 30.26404602 5.92819038 30.26940918 7.82011414 C30.27670748 11.21129083 30.27498841 14.60222367 30.26865101 17.99338675 C30.26357742 21.55427973 30.26828728 25.1151625 30.27142334 28.67605591 C30.27506376 34.66654317 30.27026686 40.65698116 30.26074219 46.64746094 C30.24990713 53.54100626 30.25334665 60.43443281 30.264395 67.32797515 C30.27352537 73.26539072 30.27472379 79.20277087 30.26951766 85.1401912 C30.26642292 88.67740257 30.26591795 92.21455854 30.27259064 95.7517662 C30.27953841 99.71199753 30.26985847 103.67210058 30.25878906 107.63232422 C30.26283752 108.78195145 30.26688599 109.93157867 30.27105713 111.11604309 C30.16211756 132.34301592 25.16675626 150.94019149 10.4140625 166.6796875 C-5.34609377 181.82779887 -26.87310019 186.34245718 -48.0390625 186.15234375 C-70.23843123 185.29852188 -92.51106395 178.35197413 -110.8125 165.5625 C-113.07449329 162.91273643 -113.41150938 162.24355473 -113.625 158.9375 C-113 155 -113 155 -111.4375 152.5 C-108.05667069 150.41948965 -105.93325814 150.63164076 -102 151 C-99.62834903 152.29519774 -97.65048284 153.54162562 -95.5 155.125 C-76.5169432 168.18115032 -51.34215585 173.50372532 -28.61328125 169.31640625 C-13.57887796 165.59257152 -1.60969001 158.33938414 6.4609375 144.98046875 C10.84370427 136.49302954 13.13960678 127.69073831 13.09765625 118.16796875 C13.09443359 116.87568359 13.09121094 115.58339844 13.08789062 114.25195312 C13.07953665 112.89713474 13.07107172 111.54231703 13.0625 110.1875 C13.05748 108.81315265 13.05291797 107.43880355 13.04882812 106.06445312 C13.03705668 102.70959076 13.02061283 99.35481779 13 96 C12.40324463 96.66821777 11.80648926 97.33643555 11.19165039 98.02490234 C10.39750732 98.91129395 9.60336426 99.79768555 8.78515625 100.7109375 C8.00277588 101.58540527 7.22039551 102.45987305 6.41430664 103.36083984 C-6.60180912 117.58919573 -23.31647499 126.10108969 -42.66796875 127.375 C-53.31798154 127.78544674 -62.88132343 126.23392002 -73 123 C-73.91007812 122.72285156 -74.82015625 122.44570312 -75.7578125 122.16015625 C-92.3816619 116.36051747 -106.27171407 102.47374583 -114 87 C-121.84525755 67.97359433 -123.11580695 46.31237049 -115.20263672 27.06005859 C-106.921878 8.30064877 -91.77175356 -4.71419132 -72.87451172 -12.29980469 C-48.55188062 -21.38515322 -20.1291859 -15.839783 0 0 Z M-91 18 C-101.71354581 31.00256331 -105.02077905 46.88080916 -103.53125 63.3671875 C-101.45186054 77.58654188 -94.32580646 91.02609149 -83 100 C-75.95328975 104.81641692 -68.34350141 108.99291517 -60 111 C-58.89978516 111.27070313 -58.89978516 111.27070313 -57.77734375 111.546875 C-40.53935122 114.35926197 -23.51353605 110.74196255 -9 101 C3.06759305 91.91007732 12.65002672 79.24188275 15 64 C16.02934509 47.80047075 13.3538744 32.82731367 2.51953125 20.08203125 C-8.80001443 7.93680545 -24.80573885 -0.59965137 -41.61328125 -1.30078125 C-61.14187321 -1.54493994 -77.26802898 3.24437296 -91 18 Z " fill="#474747" transform="translate(1111,104)"/>
<path d="M0 0 C5.78217187 4.48333489 13.58686872 10.63858119 16.88671875 17.23828125 C16.90130127 16.59802002 16.91588379 15.95775879 16.9309082 15.2980957 C17.00563257 12.38173294 17.10221168 9.46648438 17.19921875 6.55078125 C17.23305664 5.03967773 17.23305664 5.03967773 17.26757812 3.49804688 C17.61690566 -6.12433885 17.61690566 -6.12433885 20.88671875 -9.76171875 C24.84157458 -10.93352789 26.95564817 -11.16653205 30.76171875 -9.51171875 C32.88671875 -7.76171875 32.88671875 -7.76171875 33.88671875 -4.76171875 C33.98312306 -3.03655223 34.02165662 -1.30789685 34.02716064 0.41995239 C34.03287079 1.49334869 34.03858093 2.566745 34.04446411 3.67266846 C34.0461409 5.43982208 34.0461409 5.43982208 34.04785156 7.24267578 C34.05281647 8.48377106 34.05778137 9.72486633 34.06289673 11.00357056 C34.07501396 14.41353225 34.08246784 17.82343251 34.08690739 21.23340845 C34.08984291 23.37048129 34.093949 25.50754883 34.09841156 27.64461899 C34.11209747 34.3492776 34.12175419 41.05392398 34.12561345 47.75859559 C34.13007271 55.4615423 34.14751586 63.16430967 34.17661405 70.86720192 C34.19838145 76.84030606 34.20832596 82.81336037 34.20965457 88.78650367 C34.21069353 92.34343801 34.21640178 95.90020405 34.23447418 99.4570961 C34.35681992 125.02055424 33.72434878 149.7222943 15.13671875 169.48828125 C-1.04813379 184.70826759 -22.58194616 189.58437109 -44.15234375 189.390625 C-66.61916244 188.52651659 -88.83526787 181.49993134 -107.11328125 168.23828125 C-109.59367032 164.51769765 -109.57665328 162.64031554 -109.11328125 158.23828125 C-107.06237004 155.03885977 -105.74940573 154.38108471 -102.05078125 153.55078125 C-97.12212437 154.41134039 -94.15562696 156.53559675 -90.046875 159.30078125 C-71.41175822 171.60839499 -46.72599165 176.74197273 -24.69140625 172.51953125 C-10.24552914 168.8638399 1.62401769 162.50520425 9.76171875 149.61328125 C18.29109612 133.42157906 17.35207695 117.009595 16.88671875 99.23828125 C16.42491211 99.7686499 15.96310547 100.29901855 15.48730469 100.84545898 C1.45808193 116.92473954 -14.3377575 128.59539158 -36.33496094 130.42285156 C-56.72177392 131.60902444 -76.42697603 126.31938189 -92.2421875 112.92578125 C-92.85964844 112.36890625 -93.47710937 111.81203125 -94.11328125 111.23828125 C-94.69980469 110.74328125 -95.28632812 110.24828125 -95.890625 109.73828125 C-107.56157467 99.15238586 -115.20699165 82.8167254 -116.25244141 67.15332031 C-117.15816298 46.01386797 -112.90791841 26.17563325 -98.23828125 10.17578125 C-72.30009154 -16.74709524 -31.01602642 -20.42077068 0 0 Z M-84.9296875 18.7890625 C-96.11129852 31.3308695 -100.63532473 46.38798008 -99.9609375 62.98828125 C-98.09220604 78.93478969 -91.2275821 92.90939946 -78.86328125 103.3203125 C-64.20274988 113.54520015 -48.78093665 117.41649446 -31.03759766 114.94970703 C-14.05036197 111.80860736 0.13974008 102.43068992 10.35546875 88.625 C18.77901363 75.49544407 20.93661232 60.77660434 18.234375 45.56640625 C14.22947333 31.19688782 4.60329365 18.92063041 -7.92578125 10.86328125 C-32.70810893 -2.81656363 -64.08687763 -1.36925444 -84.9296875 18.7890625 Z " fill="#474747" transform="translate(128.11328125,100.76171875)"/>
<path d="M0 0 C17.48882549 13.52786625 27.19302886 32.37739459 30.31396484 54.19482422 C31.93183088 67.91784929 31.93183088 67.91784929 28 73 C25.54273762 74.22863119 23.95176738 74.12312293 21.2038269 74.12025452 C20.19137909 74.12162918 19.17893127 74.12300385 18.13580322 74.12442017 C17.02090515 74.12082489 15.90600708 74.11722961 14.75732422 74.11352539 C13.5866037 74.11367142 12.41588318 74.11381744 11.20968628 74.1139679 C7.9950139 74.1133896 4.78038477 74.10836593 1.56572104 74.10139394 C-1.79219278 74.09515295 -5.1501074 74.09455601 -8.50802612 74.09336853 C-14.86867548 74.09025742 -21.22930769 74.08204698 -27.58994949 74.07201904 C-34.83048451 74.06085109 -42.07102034 74.05534573 -49.31156182 74.05032361 C-64.20771744 74.0398642 -79.10385701 74.022269 -94 74 C-93.3831178 76.70284607 -92.76132462 79.40440649 -92.13671875 82.10546875 C-91.96426636 82.86339722 -91.79181396 83.62132568 -91.61413574 84.40222168 C-87.91375885 100.33404182 -80.049473 114.02116419 -66 123 C-50.80001972 131.29426451 -35.08766849 133.51805882 -18.1875 129.4375 C-7.12037016 126.05587699 1.76162378 120.84720453 10.07421875 112.8203125 C12.71189195 110.32709605 13.68312134 110.02934062 17.375 109.6875 C21 110 21 110 23.4375 111.625 C25.48392558 114.73556688 25.45106921 116.31927523 25 120 C15.40157889 133.34930711 -1.95150133 142.64532047 -17.87109375 145.6640625 C-18.57363281 145.77492187 -19.27617188 145.88578125 -20 146 C-20.69222656 146.11085937 -21.38445312 146.22171875 -22.09765625 146.3359375 C-43.41297565 149.19861197 -63.56115421 144.70142072 -81 132 C-97.34709254 119.17494077 -107.43920432 100.63269662 -110 80 C-111.27206692 54.47369045 -107.40842553 30.35107737 -89.6875 10.6875 C-66.70724321 -13.79266107 -28.00495358 -18.98820716 0 0 Z M-79.74609375 22.93359375 C-87.72429059 32.90115915 -94 47.01184105 -94 60 C-58.36 60 -22.72 60 14 60 C12.16477017 41.64770166 6.6491867 25.08378085 -8 13 C-31.88437277 -4.15161257 -60.63693198 1.77244145 -79.74609375 22.93359375 Z " fill="#474747" transform="translate(594,99)"/>
<path d="M0 0 C18.22261225 15.89632132 27.83625688 35.26885071 29.5703125 59.41015625 C29.88337455 68.22480949 29.88337455 68.22480949 27.60629654 71.07540512 C24.89327078 73.27608359 23.72974876 73.42512447 20.28363037 73.41070557 C19.26843323 73.41620422 18.25323608 73.42170288 17.20727539 73.42736816 C16.09956787 73.41298706 14.99186035 73.39860596 13.85058594 73.38378906 C12.67957336 73.38437317 11.50856079 73.38495728 10.30206299 73.38555908 C6.42763733 73.38277018 2.55397893 73.35163825 -1.3203125 73.3203125 C-4.00502087 73.31063235 -6.6897284 73.30696196 -9.37445068 73.30316162 C-15.72099123 73.29073262 -22.06725595 73.25791234 -28.41367507 73.21776366 C-35.63970983 73.17304335 -42.86575782 73.15105831 -50.09189653 73.13098192 C-64.95464269 73.08917942 -79.81714688 73.01882908 -94.6796875 72.9296875 C-94.23304188 75.46483592 -93.77883758 77.99824627 -93.3203125 80.53125 C-93.1960791 81.24095947 -93.0718457 81.95066895 -92.94384766 82.68188477 C-90.14281799 98.01708175 -81.75892984 111.75537963 -68.99609375 120.83984375 C-54.16834007 130.11457414 -37.91637019 132.17762505 -20.9296875 128.8671875 C-9.71041266 125.80866659 -0.48026154 120.64188722 7.70703125 112.48632812 C10.61292309 109.74528239 12.651813 108.60570775 16.578125 108.546875 C20.3203125 108.9296875 20.3203125 108.9296875 22.3203125 109.9921875 C23.9912911 113.22970854 23.8591892 115.33717616 23.3203125 118.9296875 C17.08574915 130.34656721 1.41018872 138.31680822 -10.453125 142.1484375 C-17.10114118 144.06960361 -23.75292301 145.64453768 -30.6796875 145.9296875 C-31.62714844 145.98125 -32.57460938 146.0328125 -33.55078125 146.0859375 C-52.86658616 146.65335405 -69.56578305 141.01572221 -84.6796875 128.9296875 C-86.2265625 127.8159375 -86.2265625 127.8159375 -87.8046875 126.6796875 C-103.11878696 112.03141845 -110.80523073 91.88069565 -111.8828125 70.9921875 C-112.16889316 56.08683822 -109.87042356 42.62380854 -103.6796875 28.9296875 C-103.26074219 27.99640625 -102.84179688 27.063125 -102.41015625 26.1015625 C-98.46478016 18.14259055 -92.88528749 12.16215156 -86.6796875 5.9296875 C-86.04417969 5.259375 -85.40867187 4.5890625 -84.75390625 3.8984375 C-63.21248903 -17.1175793 -23.49712053 -18.15375201 0 0 Z M-80.6796875 20.9296875 C-89.19796243 31.90701161 -94.6796875 45.02423687 -94.6796875 58.9296875 C-59.3696875 58.9296875 -24.0596875 58.9296875 12.3203125 58.9296875 C10.9080387 41.9824019 6.31465974 27.40632493 -5.6796875 14.9296875 C-29.13166896 -4.85319364 -60.15084587 -1.16599719 -80.6796875 20.9296875 Z " fill="#474747" transform="translate(426.6796875,100.0703125)"/>
<path d="M0 0 C2.67431489 1.81163267 2.95920359 2.87761077 4 6 C4.11988672 8.66096726 4.18530352 11.29774859 4.20532227 13.9597168 C4.21522186 14.76970123 4.22512146 15.57968567 4.23532104 16.41421509 C4.26691809 19.09251987 4.2916864 21.77084239 4.31640625 24.44921875 C4.33697733 26.30581626 4.35797384 28.16240911 4.37937927 30.01899719 C4.43458407 34.90650656 4.4840004 39.79405808 4.53222656 44.68164062 C4.58245318 49.66865798 4.6381332 54.65561408 4.69335938 59.64257812 C4.80092149 69.4283331 4.90237082 79.21414124 5 89 C5.39469482 88.46455566 5.78938965 87.92911133 6.19604492 87.37744141 C6.98652222 86.31275635 6.98652222 86.31275635 7.79296875 85.2265625 C8.31141357 84.52611816 8.8298584 83.82567383 9.36401367 83.10400391 C18.19867225 71.74195531 29.81332102 65.43121771 43.83984375 62.3828125 C62.70829232 60.09714135 81.15850493 62.30258779 96.6484375 74 C108.05022375 83.58708754 114.52176167 96.44355247 117 111 C117.26884555 114.4792518 117.2839907 117.94072451 117.2746582 121.42919922 C117.27976913 122.43031235 117.28488007 123.43142548 117.29014587 124.46287537 C117.3039506 127.7435416 117.30309322 131.02399584 117.30078125 134.3046875 C117.30467071 136.59392372 117.3090059 138.88315922 117.31376648 141.1723938 C117.32120717 145.95512237 117.32095119 150.73777706 117.31567383 155.52050781 C117.30985536 161.65756098 117.32687787 167.79431469 117.3500185 173.93131828 C117.36471914 178.65125299 117.36563302 183.37111473 117.36250877 188.09106827 C117.36302296 190.3549573 117.36827881 192.61885031 117.37832069 194.88271713 C117.39060832 198.03773578 117.38394164 201.19215941 117.37231445 204.34716797 C117.37995819 205.2853688 117.38760193 206.22356964 117.39547729 207.19020081 C117.38846298 208.04797623 117.38144867 208.90575165 117.3742218 209.78952026 C117.37438954 210.53462294 117.37455729 211.27972561 117.37473011 212.04740715 C116.88479166 214.60031198 116.08207478 215.47209144 114 217 C107.09380823 217.76735464 107.09380823 217.76735464 103.90394592 215.52952576 C101.09975247 211.80395799 101.44978263 208.58016202 101.50170898 204.03149414 C101.49619019 203.12520264 101.49067139 202.21891113 101.48498535 201.28515625 C101.47566165 199.3170647 101.47556323 197.34891282 101.48357964 195.38081551 C101.49621339 192.25556074 101.48491223 189.13118896 101.46754456 186.00596619 C101.44080149 180.48549221 101.43524957 174.96523388 101.43664551 169.44470215 C101.43886963 160.64132374 101.42447161 151.83821527 101.38105965 143.03494072 C101.37129944 139.97464941 101.37990308 136.91478927 101.38975525 133.85450745 C101.37135493 116.8381992 99.69555517 101.11598415 87.49609375 88.109375 C76.63157604 78.92809243 62.93716711 75.88289882 49 77 C35.91714591 79.02189563 23.16050204 84.77756401 15.09765625 95.5390625 C8.15858978 105.95499736 4.85780426 115.50976623 4.84228516 127.93359375 C4.83720444 128.82362091 4.83212372 129.71364807 4.82688904 130.63064575 C4.81621048 132.55837021 4.8075805 134.48610687 4.80076981 136.41384888 C4.78895472 139.46533637 4.76949682 142.516684 4.74765015 145.56811523 C4.68610923 154.24230304 4.63193998 162.91647439 4.59863281 171.59082031 C4.57769778 176.90053632 4.54240937 182.20999355 4.49787521 187.51956177 C4.48371198 189.54172727 4.47499205 191.56393851 4.47182083 193.58615112 C4.4669165 196.41317897 4.44377256 199.23951817 4.41650391 202.06640625 C4.41951004 202.90084259 4.42251617 203.73527893 4.4256134 204.59500122 C4.35321127 209.64514058 3.74616404 213.25383596 0 217 C-7.33333333 217.47311828 -7.33333333 217.47311828 -9.9375 215.625 C-12.43115602 211.81117314 -12.14231325 208.35348375 -12.13371277 203.92788696 C-12.13597833 203.08370504 -12.13824388 202.23952311 -12.14057809 201.36975992 C-12.14693749 198.52465048 -12.14608749 195.67958844 -12.14526367 192.83447266 C-12.14825396 190.80128416 -12.15165619 188.76809623 -12.15544128 186.73490906 C-12.16429893 181.19980844 -12.16662014 175.66472328 -12.16725707 170.12961626 C-12.16820479 165.51463671 -12.17188153 160.89966079 -12.17542917 156.28468263 C-12.18358051 145.39942198 -12.18601279 134.5141696 -12.18530273 123.62890625 C-12.18470182 112.38746725 -12.19525475 101.14607623 -12.2110464 89.90464938 C-12.22410747 80.26470895 -12.22948723 70.62478424 -12.22884732 60.98483503 C-12.22859191 55.22232147 -12.2314672 49.45985051 -12.24202538 43.69734573 C-12.25168222 38.27851786 -12.25180216 32.85977352 -12.24450874 27.44094276 C-12.24345987 25.44949917 -12.24584361 23.45805043 -12.2518692 21.46661568 C-12.25954952 18.75300459 -12.25497067 16.03968483 -12.24723816 13.32608032 C-12.25238172 12.53366963 -12.25752529 11.74125894 -12.26282471 10.9248358 C-12.21960471 4.08494807 -12.21960471 4.08494807 -10 1 C-6.82178465 -0.58910767 -3.46060271 -0.40420974 0 0 Z " fill="#474747" transform="translate(1205,26)"/>
<path d="M0 0 C11.74230173 9.62549223 18.29541128 23.40715171 20.609375 38.2578125 C20.76420817 41.55201063 20.76654896 44.84370665 20.77050781 48.14111328 C20.77547272 49.13188873 20.78043762 50.12266418 20.78555298 51.14346313 C20.80013209 54.41335752 20.80696742 57.68320349 20.8125 60.953125 C20.81825233 63.22565716 20.82401006 65.4981893 20.82977295 67.77072144 C20.84026899 72.53025539 20.84612167 77.28977251 20.84960938 82.04931641 C20.85510933 88.15731905 20.87917524 94.26510048 20.90758133 100.37303352 C20.92616746 105.06379864 20.93141103 109.75450985 20.93294525 114.44530869 C20.93597841 116.69803968 20.94402912 118.95076957 20.95713043 121.20346451 C20.97411622 124.34691739 20.97232961 127.4898211 20.96582031 130.63330078 C20.9750351 131.56843506 20.98424988 132.50356934 20.9937439 133.46704102 C20.98539017 134.74975388 20.98539017 134.74975388 20.97686768 136.05838013 C20.97833424 136.80130373 20.9798008 137.54422733 20.9813118 138.30966377 C20.49423587 140.86089383 19.68930128 141.7310197 17.609375 143.2578125 C10.69523615 144.02605015 10.69523615 144.02605015 7.51332092 141.77487183 C4.79717649 138.1840678 5.06052027 134.81286906 5.11108398 130.48876953 C5.10556519 129.60359146 5.10004639 128.71841339 5.09436035 127.80641174 C5.08503715 125.88415875 5.08493783 123.961844 5.09295464 122.03958511 C5.10559359 118.98545932 5.09428197 115.93223645 5.07691956 112.87814331 C5.05017605 107.4813508 5.04462445 102.08477884 5.04602051 96.68792725 C5.04824435 88.08624611 5.03379492 79.4848415 4.99043465 70.88326645 C4.98068882 67.89558821 4.98927116 64.90835318 4.99913025 61.92068481 C4.98139339 45.06772207 3.50910056 27.78330201 -8.63671875 14.78125 C-19.63399383 5.22905116 -33.17627418 2.3440328 -47.390625 3.2578125 C-61.47241808 5.23596915 -73.49247356 11.51560078 -82.36328125 22.7578125 C-90.12459371 34.09493134 -92.53077855 46.65693528 -92.54833984 60.17480469 C-92.55342056 61.03907578 -92.55850128 61.90334686 -92.56373596 62.79380798 C-92.57438556 64.65874999 -92.58302665 66.52370434 -92.58985519 68.38866425 C-92.60170005 71.33894928 -92.62116261 74.28909159 -92.64297485 77.23931885 C-92.70443565 85.62320244 -92.75876865 94.0070662 -92.79199219 102.39111328 C-92.81289215 107.52806707 -92.84814383 112.66475155 -92.89274979 117.80155182 C-92.90693222 119.7583831 -92.91563727 121.71526192 -92.91880417 123.67214203 C-92.92369249 126.40118335 -92.94679159 129.12950292 -92.97412109 131.85839844 C-92.97111496 132.66883102 -92.96810883 133.47926361 -92.9650116 134.31425476 C-93.04572663 139.71952401 -93.04572663 139.71952401 -94.67056274 142.25543213 C-97.66600763 144.00105218 -101.09398483 144.06140809 -104.390625 143.2578125 C-107.07527334 141.12887244 -108.26346249 139.94295093 -108.89678288 136.53068638 C-108.8995898 135.47896213 -108.90239672 134.42723787 -108.9052887 133.34364319 C-108.91801315 132.13373215 -108.93073761 130.92382111 -108.94384766 129.67724609 C-108.93766543 128.33959765 -108.93105942 127.00195112 -108.92407227 125.66430664 C-108.93113093 124.25311887 -108.93987573 122.84193868 -108.95018005 121.43077087 C-108.97269095 117.60009172 -108.96973044 113.7698254 -108.96085858 109.93910527 C-108.95574984 106.74072985 -108.96304036 103.54243208 -108.97033066 100.34406465 C-108.98733525 92.79839924 -108.98375851 85.25293603 -108.96704102 77.70727539 C-108.95011964 69.92383791 -108.96595277 62.14096124 -108.9982639 54.35758501 C-109.02495875 47.67378752 -109.03223611 40.99016462 -109.02374882 34.30631918 C-109.01881913 30.31489107 -109.02103698 26.3238004 -109.04153633 22.33241463 C-109.0598921 18.57865485 -109.05393726 14.82570167 -109.02933693 11.07198524 C-109.02432849 9.69534966 -109.0278199 8.31865263 -109.04048538 6.94206619 C-109.13958184 -4.75501122 -109.13958184 -4.75501122 -106.07774353 -8.09986877 C-103.390625 -9.7421875 -103.390625 -9.7421875 -99.765625 -9.7421875 C-96.4263989 -8.75278717 -95.40706363 -8.42344345 -93.390625 -5.7421875 C-92.95825195 -3.38208008 -92.95825195 -3.38208008 -92.87890625 -0.63671875 C-92.84345703 0.34619141 -92.80800781 1.32910156 -92.77148438 2.34179688 C-92.74892578 3.36595703 -92.72636719 4.39011719 -92.703125 5.4453125 C-92.65188477 6.99895508 -92.65188477 6.99895508 -92.59960938 8.58398438 C-92.51709858 11.1418191 -92.44795928 13.69930973 -92.390625 16.2578125 C-92.00680664 15.73396973 -91.62298828 15.21012695 -91.22753906 14.67041016 C-81.0005602 0.84905184 -69.6737919 -7.72461703 -52.6171875 -11.328125 C-33.81364859 -13.74116995 -15.57733255 -11.35210836 0 0 Z " fill="#474747" transform="translate(773.390625,99.7421875)"/>
<path d="M0 0 C1.86555169 2.82285112 2.24671684 5.05813685 2.22705078 8.40136719 C2.22689972 9.2619574 2.22674866 10.12254761 2.22659302 11.00921631 C2.21627045 11.92914368 2.20594788 12.84907104 2.1953125 13.796875 C2.1924826 14.74564514 2.18965271 15.69441528 2.18673706 16.67193604 C2.17555448 19.69808639 2.1504533 22.7239393 2.125 25.75 C2.11496772 27.80338114 2.1058423 29.85676692 2.09765625 31.91015625 C2.07562141 36.94021854 2.04110462 41.97005886 2 47 C2.57771652 46.99333817 3.15543304 46.98667633 3.75065613 46.97981262 C9.76901682 46.91339002 15.78727319 46.86817065 21.8059082 46.83520508 C24.05139394 46.82012818 26.29685029 46.79966347 28.54223633 46.77368164 C31.77172099 46.73725082 35.00081594 46.72026245 38.23046875 46.70703125 C39.23272995 46.69154739 40.23499115 46.67606354 41.2676239 46.66011047 C50.09193907 46.65798467 50.09193907 46.65798467 54 50 C56 53 56 53 55.9375 56 C55 59 55 59 53.12817383 60.66918945 C48.44935355 62.65968733 44.04270616 62.36903205 39.01171875 62.29296875 C37.95338333 62.28872391 36.89504791 62.28447906 35.80464172 62.28010559 C32.43199988 62.26334362 29.05996055 62.22569512 25.6875 62.1875 C23.3977951 62.17244999 21.10808082 62.15876214 18.81835938 62.14648438 C13.2120348 62.11344823 7.60606046 62.06327317 2 62 C2.03812674 75.23972194 2.09759048 88.47916264 2.18390274 101.71866322 C2.22332391 107.86705874 2.25553884 114.01531218 2.27099609 120.16381836 C2.28619773 126.10326851 2.32070614 132.04232791 2.36830902 137.98160362 C2.38308657 140.24163087 2.39103892 142.50171392 2.39188385 144.76178932 C2.39426613 147.9403253 2.42144804 151.11779239 2.45410156 154.29614258 C2.4490712 155.21972061 2.44404083 156.14329865 2.43885803 157.09486389 C2.55403963 164.39495085 3.88335014 172.17111569 8.61261368 177.98113728 C15.75444284 184.86890939 24.27024718 185.34212319 33.68212891 185.30322266 C37.86367769 185.20968192 41.67486964 184.77031 45.75 183.75 C49.21039017 182.92919073 49.7071406 182.86528468 53.125 184.4375 C55.62680907 187.85663906 55.6031444 189.85338227 55 194 C52.55782916 197.58777098 48.68524444 198.221991 44.6875 199.1875 C43.9769043 199.35967041 43.26630859 199.53184082 42.53417969 199.70922852 C29.43790598 202.65691006 15.72471991 201.70588854 3.8046875 195.15234375 C-5.19691888 189.40456479 -10.64830876 181.43960231 -13 171 C-13.93423673 164.59048977 -14.13928709 158.26693529 -14.11352539 151.79858398 C-14.11367142 150.82191269 -14.11381744 149.84524139 -14.1139679 148.838974 C-14.11327653 145.6413239 -14.10552075 142.44373355 -14.09765625 139.24609375 C-14.09578931 137.01693249 -14.09436671 134.78777082 -14.09336853 132.55860901 C-14.08956508 126.71433361 -14.07975348 120.87008338 -14.06866455 115.02581787 C-14.05840359 109.05302267 -14.0538609 103.08022337 -14.04882812 97.10742188 C-14.03812914 85.40493691 -14.02107899 73.70247055 -14 62 C-15.16917969 62.04640625 -16.33835937 62.0928125 -17.54296875 62.140625 C-19.0911202 62.17815594 -20.63929939 62.21455469 -22.1875 62.25 C-22.95642578 62.28351563 -23.72535156 62.31703125 -24.51757812 62.3515625 C-28.48595146 62.41968908 -30.52775411 62.28041509 -34.01953125 60.20703125 C-36 58 -36 58 -36.5 54.4375 C-36 51 -36 51 -34.6875 49.125 C-30.66438434 46.44292289 -26.44009156 46.88495966 -21.8125 46.9375 C-21.06291016 46.94201172 -20.31332031 46.94652344 -19.54101562 46.95117188 C-17.69397617 46.96293646 -15.84697787 46.98087135 -14 47 C-14.01571045 45.75387939 -14.0314209 44.50775879 -14.04760742 43.22387695 C-14.10198073 38.59275802 -14.13637711 33.96166722 -14.16479492 29.33032227 C-14.17986465 27.32734428 -14.2003241 25.3243992 -14.22631836 23.3215332 C-14.26278127 20.43953319 -14.27974461 17.55797016 -14.29296875 14.67578125 C-14.30845261 13.78288895 -14.32393646 12.88999664 -14.33988953 11.970047 C-14.34119156 7.14046436 -14.14530651 3.92427302 -11 0 C-7.29726163 -3.04153509 -4.17163562 -1.69955525 0 0 Z " fill="#474747" transform="translate(1389,44)"/>
<path d="M0 0 C2.45346953 3.71977638 2.71904305 5.5608589 1.9375 9.9375 C-1.71619028 14.57886081 -4.96348007 15.74646054 -10.625 16.4375 C-26.92150614 19.01717698 -41.07487511 26.81380074 -51.1328125 40.05859375 C-62.62837806 57.20886059 -65.33911107 76.45330646 -65.36746025 96.65468597 C-65.37120701 98.79920091 -65.38813993 100.94328638 -65.40821838 103.08770752 C-65.46293128 109.17069573 -65.49453762 115.25373528 -65.51879883 121.33691406 C-65.53464763 125.08908721 -65.56479839 128.84093097 -65.60356331 132.59293365 C-65.61519552 134.013873 -65.6211435 135.4348709 -65.62124443 136.85585785 C-65.62143595 138.8294074 -65.64118266 140.802926 -65.66186523 142.77636719 C-65.66693588 143.89694519 -65.67200653 145.01752319 -65.67723083 146.17205811 C-66.0625 148.9375 -66.0625 148.9375 -67.34144592 150.79522705 C-69.77217999 152.40851847 -72.1727081 152.35108983 -75.02734375 152.43359375 C-78.00651636 151.70738469 -79.14141842 150.29591002 -81.0625 147.9375 C-81.56865788 145.21037388 -81.56865788 145.21037388 -81.5771637 142.02333069 C-81.58988815 140.81341965 -81.60261261 139.60350861 -81.61572266 138.35693359 C-81.60954043 137.01928515 -81.60293442 135.68163862 -81.59594727 134.34399414 C-81.60300593 132.93280637 -81.61175073 131.52162618 -81.62205505 130.11045837 C-81.64456595 126.27977922 -81.64160544 122.4495129 -81.63273358 118.61879277 C-81.62762484 115.42041735 -81.63491536 112.22211958 -81.64220566 109.02375215 C-81.65921025 101.47808674 -81.65563351 93.93262353 -81.63891602 86.38696289 C-81.62199464 78.60352541 -81.63782777 70.82064874 -81.6701389 63.03727251 C-81.69683375 56.35347502 -81.70411111 49.66985212 -81.69562382 42.98600668 C-81.69069413 38.99457857 -81.69291198 35.0034879 -81.71341133 31.01210213 C-81.7317671 27.25834235 -81.72581226 23.50538917 -81.70121193 19.75167274 C-81.69620349 18.37503716 -81.6996949 16.99834013 -81.71236038 15.62175369 C-81.81145684 3.92467628 -81.81145684 3.92467628 -78.74961853 0.57981873 C-76.0625 -1.0625 -76.0625 -1.0625 -72.4375 -1.0625 C-67.87004602 0.2908197 -67.87004602 0.2908197 -66.0625 2.9375 C-65.73151087 5.65774096 -65.57399174 8.16209295 -65.55078125 10.88671875 C-65.53283005 11.65933548 -65.51487885 12.43195221 -65.49638367 13.22798157 C-65.44223896 15.693599 -65.40837269 18.15902243 -65.375 20.625 C-65.34183048 22.29755306 -65.30734115 23.97008051 -65.27148438 25.64257812 C-65.18651051 29.7407455 -65.1197198 33.83885494 -65.0625 37.9375 C-64.53575684 37.1321582 -64.00901367 36.32681641 -63.46630859 35.49707031 C-62.76328613 34.43069336 -62.06026367 33.36431641 -61.3359375 32.265625 C-60.64419434 31.2127832 -59.95245117 30.15994141 -59.23974609 29.07519531 C-48.55953053 13.68361307 -33.31547431 2.29988055 -14.8203125 -1.62109375 C-4.79071224 -3.22639804 -4.79071224 -3.22639804 0 0 Z " fill="#474747" transform="translate(292.0625,91.0625)"/>
<path d="M0 0 C3.05467677 0.79738204 4.11631219 2.02091653 6.03515625 4.53125 C6.42578698 7.45377308 6.57148915 9.99832302 6.53636169 12.9197998 C6.54189609 13.77385768 6.54743049 14.62791556 6.55313259 15.50785398 C6.56676489 18.37467107 6.55175598 21.24062143 6.53686523 24.10742188 C6.54064747 26.1606127 6.54614672 28.21380097 6.55323792 30.26698303 C6.56722216 35.84752339 6.55600181 41.42775645 6.5395267 47.0082798 C6.52569686 52.84272134 6.53213392 58.67714467 6.53565979 64.51159668 C6.53836355 74.31035323 6.52487204 84.10898741 6.50170898 93.90771484 C6.47509827 105.24353109 6.47335157 116.57914268 6.48509735 127.91497946 C6.49586891 138.81049823 6.48969293 149.70594281 6.47554207 160.60145569 C6.46977688 165.2425359 6.46986914 169.88356192 6.47460747 174.52464294 C6.4793726 179.98788148 6.46929468 185.45089533 6.44765282 190.91409111 C6.44207847 192.92165303 6.44162556 194.92923652 6.44660568 196.9368 C6.45254169 199.67235113 6.44008581 202.40721141 6.4228363 205.1427002 C6.42884635 205.94152854 6.43485639 206.74035689 6.44104856 207.56339216 C6.40423241 210.76313558 6.2289685 213.15321471 4.75702 216.02428436 C2.3829561 218.10205197 0.13909362 218.01519702 -2.9296875 218.0625 C-5.98436427 217.26511796 -7.04599969 216.04158347 -8.96484375 213.53125 C-9.35547448 210.60872692 -9.50117665 208.06417698 -9.46604919 205.1427002 C-9.47158359 204.28864232 -9.47711799 203.43458444 -9.48282009 202.55464602 C-9.49645239 199.68782893 -9.48144348 196.82187857 -9.46655273 193.95507812 C-9.47033497 191.9018873 -9.47583422 189.84869903 -9.48292542 187.79551697 C-9.49690966 182.21497661 -9.48568931 176.63474355 -9.4692142 171.0542202 C-9.45538436 165.21977866 -9.46182142 159.38535533 -9.46534729 153.55090332 C-9.46805105 143.75214677 -9.45455954 133.95351259 -9.43139648 124.15478516 C-9.40478577 112.81896891 -9.40303907 101.48335732 -9.41478485 90.14752054 C-9.42555641 79.25200177 -9.41938043 68.35655719 -9.40522957 57.46104431 C-9.39946438 52.8199641 -9.39955664 48.17893808 -9.40429497 43.53785706 C-9.4090601 38.07461852 -9.39898218 32.61160467 -9.37734032 27.14840889 C-9.37176597 25.14084697 -9.37131306 23.13326348 -9.37629318 21.1257 C-9.38222919 18.39014887 -9.36977331 15.65528859 -9.3525238 12.9197998 C-9.35853385 12.12097146 -9.36454389 11.32214311 -9.37073606 10.49910784 C-9.33391991 7.29936442 -9.158656 4.90928529 -7.6867075 2.03821564 C-5.3126436 -0.03955197 -3.06878112 0.04730298 0 0 Z " fill="#474747" transform="translate(853.96484375,25.46875)"/>
<path d="M0 0 C0.57363281 0.15597656 1.14726563 0.31195313 1.73828125 0.47265625 C10.52215132 2.48534878 18.85076591 1.73673755 27.74414062 1.13037109 C32.49321786 0.85591144 37.24580888 0.91459537 42 1 C42.3792461 8.96416815 41.77265716 15.57066089 36.625 21.9375 C34.09278285 23.92709919 31.98573128 24.88659185 29 26 C28.98541748 26.59014893 28.97083496 27.18029785 28.95581055 27.78833008 C28.88131156 30.46371229 28.78466005 33.13784892 28.6875 35.8125 C28.66494141 36.74126953 28.64238281 37.67003906 28.61914062 38.62695312 C28.58369141 39.51962891 28.54824219 40.41230469 28.51171875 41.33203125 C28.48553467 42.15421143 28.45935059 42.9763916 28.43237305 43.82348633 C28 46 28 46 26.5 47.35905457 C24.56403599 49.47692877 24.60765336 50.59301486 24.56762695 53.43164062 C24.54785294 54.3352684 24.52807892 55.23889618 24.50770569 56.16990662 C24.50129562 57.15539993 24.49488556 58.14089325 24.48828125 59.15625 C24.47014877 60.19012344 24.4520163 61.22399689 24.43333435 62.28919983 C24.37792502 65.69276875 24.34439521 69.0961353 24.3125 72.5 C24.28168191 74.8553974 24.25009964 77.21078492 24.21777344 79.56616211 C24.14032572 85.56099896 24.08383175 91.55585422 24.03253174 97.55096436 C24.0016785 100.82204446 23.96172627 104.09284611 23.91748047 107.36376953 C23.85228645 112.19981652 23.80392629 117.03569802 23.77084351 121.87207031 C23.75720095 123.63301825 23.73900799 125.39393825 23.71572876 127.15478516 C23.525443 142.67218528 24.63233574 158.25800225 30.0625 172.9375 C30.31837891 173.67677734 30.57425781 174.41605469 30.83789062 175.17773438 C31.81924958 177.97044483 32.83565699 180.67836501 34.18359375 183.31640625 C35 185 35 185 35 188 C24.68554255 189.18443531 24.68554255 189.18443531 21.265625 186.78125 C19.7820736 184.58482325 18.90791367 182.49676259 18 180 C17.56171875 178.79988281 17.1234375 177.59976563 16.671875 176.36328125 C11.10299676 160.05795371 10.67468288 144.2845719 10.5859375 127.19921875 C10.56719832 124.90850651 10.54762293 122.61780097 10.5272522 120.32710266 C10.47621534 114.33826676 10.4364384 108.34940856 10.39910889 102.36047363 C10.35888966 96.23309947 10.3078796 90.10581583 10.2578125 83.97851562 C10.16139057 71.98574093 10.07687919 59.99291479 10 48 C9.01 48 8.02 48 7 48 C5.77761686 45.55523372 5.87449497 43.93379191 5.859375 41.203125 C5.84003906 40.2440625 5.82070313 39.285 5.80078125 38.296875 C5.76719079 36.28144747 5.74871837 34.26570572 5.74609375 32.25 C5.71047038 25.97197934 5.71047038 25.97197934 2.47265625 20.8828125 C-0.99262893 16.84271698 -0.57846504 13.75607933 -0.3125 8.625 C-0.27866211 7.37783203 -0.27866211 7.37783203 -0.24414062 6.10546875 C-0.18563654 4.06952647 -0.09596795 2.03452055 0 0 Z " fill="#5CB759" transform="translate(915,92)"/>
<path d="M0 0 C0.85335937 0.23203125 1.70671875 0.4640625 2.5859375 0.703125 C4.625 1.75 4.625 1.75 5.24633789 3.3671875 C5.75602498 6.5745028 5.73596648 9.67417848 5.72265625 12.921875 C5.7212413 13.6042926 5.71982635 14.28671021 5.71836853 14.98980713 C5.71279084 17.15991684 5.70024254 19.3299217 5.6875 21.5 C5.68248211 22.97525892 5.67791971 24.45051947 5.67382812 25.92578125 C5.66282875 29.53388798 5.64557953 33.14193375 5.625 36.75 C2.12556733 37.08947025 -1.37462052 37.42044773 -4.875 37.75 C-5.85726562 37.84539062 -6.83953125 37.94078125 -7.8515625 38.0390625 C-23.39523624 39.48980538 -23.39523624 39.48980538 -29.25 37.3125 C-29.98992188 37.04566406 -30.72984375 36.77882812 -31.4921875 36.50390625 C-33.375 35.75 -33.375 35.75 -35.375 34.75 C-35.23527432 30.56227299 -35.08712919 26.37488393 -34.9375 22.1875 C-34.89818359 21.00607422 -34.85886719 19.82464844 -34.81835938 18.60742188 C-34.2358512 2.6108512 -34.2358512 2.6108512 -32.375 0.75 C-30.97308908 0.5234229 -29.5615381 0.35569154 -28.1484375 0.21484375 C-26.84712891 0.08432617 -26.84712891 0.08432617 -25.51953125 -0.04882812 C-24.14861328 -0.1793457 -24.14861328 -0.1793457 -22.75 -0.3125 C-21.85925781 -0.40337891 -20.96851563 -0.49425781 -20.05078125 -0.58789062 C-6.59047471 -1.90616807 -6.59047471 -1.90616807 0 0 Z " fill="#DBDCDD" transform="translate(950.375,56.25)"/>
<path d="M0 0 C0.57363281 0.15597656 1.14726563 0.31195313 1.73828125 0.47265625 C10.52215132 2.48534878 18.85076591 1.73673755 27.74414062 1.13037109 C32.49321786 0.85591144 37.24580888 0.91459537 42 1 C42.3792461 8.96416815 41.77265716 15.57066089 36.625 21.9375 C34.09278285 23.92709919 31.98573128 24.88659185 29 26 C28.97494385 26.60062256 28.9498877 27.20124512 28.92407227 27.82006836 C28.8084472 30.52611437 28.68557064 33.23178283 28.5625 35.9375 C28.52318359 36.88302734 28.48386719 37.82855469 28.44335938 38.80273438 C28.40146484 39.70185547 28.35957031 40.60097656 28.31640625 41.52734375 C28.27974854 42.35999756 28.24309082 43.19265137 28.20532227 44.05053711 C28 46 28 46 27 47 C25.17580768 47.29317377 23.33893024 47.50871512 21.5 47.6875 C20.4996875 47.79449219 19.499375 47.90148437 18.46875 48.01171875 C14.11132595 47.99699772 10.20228758 47.08299695 6 46 C5.99589111 45.36497559 5.99178223 44.72995117 5.98754883 44.07568359 C5.95447902 41.17453523 5.88382254 38.27544986 5.8125 35.375 C5.80379883 33.87646484 5.80379883 33.87646484 5.79492188 32.34765625 C5.73111292 26.01404414 5.73111292 26.01404414 2.46875 20.875 C-0.99488044 16.84140506 -0.57815907 13.75017656 -0.3125 8.625 C-0.27866211 7.37783203 -0.27866211 7.37783203 -0.24414062 6.10546875 C-0.18563654 4.06952647 -0.09596795 2.03452055 0 0 Z " fill="#5ABA4C" transform="translate(915,92)"/>
<path d="M0 0 C1.65 0 3.3 0 5 0 C8.39384257 8.90106695 11.69449169 17.83281853 14.875 26.8125 C15.34015015 28.1104248 15.34015015 28.1104248 15.81469727 29.43457031 C16.10014404 30.24635742 16.38559082 31.05814453 16.6796875 31.89453125 C16.93476074 32.61487549 17.18983398 33.33521973 17.45263672 34.07739258 C18 36 18 36 18 39 C18.66 39 19.32 39 20 39 C20.23074219 37.824375 20.46148438 36.64875 20.69921875 35.4375 C22.10028797 29.15913539 24.09447706 23.07500802 26.14868164 16.98583984 C26.59500441 15.65064699 27.03204489 14.31231886 27.46020508 12.97119141 C28.08494477 11.01517531 28.73629044 9.0699594 29.39453125 7.125 C29.77456299 5.97257812 30.15459473 4.82015625 30.54614258 3.6328125 C32 1 32 1 34.6628418 0.1171875 C35.434104 0.07851563 36.20536621 0.03984375 37 0 C40.67515574 7.82258617 43.47893232 15.88845102 46.25 24.0625 C46.71316465 25.4187486 47.17670361 26.77486944 47.640625 28.13085938 C48.76473089 31.41911282 49.88377863 34.70906049 51 38 C54.67515574 30.17741383 57.47893232 22.11154898 60.25 13.9375 C60.71316465 12.5812514 61.17670361 11.22513056 61.640625 9.86914062 C62.76473089 6.58088718 63.88377863 3.29093951 65 0 C66.65 0 68.3 0 70 0 C69.4883676 6.50896638 68.2380792 11.99091953 65.9453125 18.0859375 C65.64309784 18.90953766 65.34088318 19.73313782 65.0295105 20.58169556 C64.39392442 22.30613249 63.75332489 24.02872927 63.10791016 25.74951172 C62.12162848 28.3840058 61.15553757 31.025299 60.19140625 33.66796875 C59.5688915 35.34939685 58.94523378 37.03040233 58.3203125 38.7109375 C58.0327005 39.49842377 57.7450885 40.28591003 57.44876099 41.09725952 C57.17192474 41.82877228 56.8950885 42.56028503 56.60986328 43.31396484 C56.2513176 44.2758522 56.2513176 44.2758522 55.88552856 45.25717163 C54.87516999 47.24568071 53.64354824 48.50885318 52 50 C50.1862793 49.47265625 50.1862793 49.47265625 48 48 C46.81913432 45.4566546 45.88874501 43.08520523 45.01953125 40.4375 C44.76121017 39.69040771 44.5028891 38.94331543 44.23674011 38.17358398 C43.41474814 35.78688932 42.61326625 33.39388986 41.8125 31 C40.99647067 28.60785048 40.17640469 26.21711073 39.35612488 23.82641602 C38.84736829 22.33850532 38.34198457 20.84943629 37.84028625 19.35913086 C36.59067932 15.61076569 36.59067932 15.61076569 35 12 C34.62713867 13.08007324 34.25427734 14.16014648 33.87011719 15.27294922 C32.48332824 19.27754084 31.07737783 23.27517851 29.66552734 27.27099609 C29.05708126 29.00157901 28.45385257 30.73400546 27.85595703 32.46826172 C26.99575036 34.96043595 26.11701413 37.44538357 25.234375 39.9296875 C24.97066101 40.70682098 24.70694702 41.48395447 24.4352417 42.28463745 C22.49542601 47.66155043 22.49542601 47.66155043 19.79785156 49.50439453 C18.90791504 49.74971924 18.90791504 49.74971924 18 50 C15.59025674 47.83807199 14.40051109 46.01875721 13.2824707 42.9909668 C12.83234367 41.78907967 12.83234367 41.78907967 12.37312317 40.56291199 C12.06050034 39.70039322 11.7478775 38.83787445 11.42578125 37.94921875 C11.09708542 37.05765579 10.76838959 36.16609283 10.42973328 35.24751282 C9.73731066 33.3619303 9.04916452 31.47477266 8.36499023 29.58618164 C7.31851208 26.70405797 6.25301439 23.82948374 5.18554688 20.95507812 C4.51446136 19.12021684 3.84450212 17.28494316 3.17578125 15.44921875 C2.69773796 14.16454964 2.69773796 14.16454964 2.21003723 12.85392761 C0.6178263 8.4124158 -0.39503401 4.79531448 0 0 Z " fill="#55BA47" transform="translate(1339,281)"/>
<path d="M0 0 C4.98477241 3.11677281 9.51481708 8.4177005 10.88671875 14.1796875 C12.2560439 23.44103719 12.2560439 23.44103719 10.88671875 26.1796875 C-1.98328125 26.1796875 -14.85328125 26.1796875 -28.11328125 26.1796875 C-24.01342791 36.91924518 -24.01342791 36.91924518 -15.30078125 42.5546875 C-9.98181298 43.59762245 -5.43267177 43.55496714 -0.67578125 40.734375 C0.85931161 39.64870077 2.3687605 38.52539584 3.84375 37.359375 C5.88671875 36.1796875 5.88671875 36.1796875 8.1484375 36.5 C8.72207031 36.72429687 9.29570313 36.94859375 9.88671875 37.1796875 C9.57225267 40.31368839 9.32385171 41.77890839 6.9609375 43.9453125 C6.17332031 44.43515625 5.38570312 44.925 4.57421875 45.4296875 C3.79433594 45.92984375 3.01445313 46.43 2.2109375 46.9453125 C-3.69481158 50.08181117 -10.99055228 50.12361198 -17.43359375 48.6484375 C-24.7533246 46.08792329 -28.45473944 42.13091668 -32.09765625 35.3984375 C-35.09973665 28.84004648 -35.27861209 20.73561625 -32.92578125 13.9296875 C-32.36047543 12.66163912 -31.75602073 11.41029845 -31.11328125 10.1796875 C-30.79617188 9.56222656 -30.4790625 8.94476563 -30.15234375 8.30859375 C-23.83753217 -2.10412747 -10.78299444 -4.59316193 0 0 Z M-24.890625 11.40625 C-27.15373294 14.68884106 -28.11328125 17.20471439 -28.11328125 21.1796875 C-16.89328125 21.1796875 -5.67328125 21.1796875 5.88671875 21.1796875 C3.69589083 11.69194076 3.69589083 11.69194076 -2.8203125 5.078125 C-11.84664885 0.86976775 -19.05266587 4.02706966 -24.890625 11.40625 Z " fill="#55BA47" transform="translate(1279.11328125,281.8203125)"/>
<path d="M0 0 C5.90047153 4.09927496 9.72857853 9.49025632 11.2265625 16.546875 C12.15167959 24.15339329 11.23633537 30.93525512 7.2265625 37.546875 C2.14820078 43.51282649 -3.64469369 46.86047169 -11.37109375 47.89453125 C-19.31248781 48.33013514 -25.6007556 46.17376307 -31.625 40.9375 C-37.4778831 34.65213785 -39.40757935 27.85089172 -39.11328125 19.3515625 C-38.29129155 12.56778544 -36.0333707 7.31358393 -31.0234375 2.609375 C-21.58063635 -4.76400932 -10.58336586 -5.98044166 0 0 Z M-26.5234375 6.171875 C-30.70932676 10.59031367 -32.94737249 15.89685658 -33.3359375 21.984375 C-32.9989909 28.19071405 -30.51034324 33.9967091 -25.94140625 38.25390625 C-21.35101613 41.39565254 -17.31387889 42.546875 -11.7734375 42.546875 C-6.73666331 41.39748126 -2.34812358 39.32015475 1.2265625 35.546875 C4.71259509 29.86635633 6.48132522 24.17601965 5.2265625 17.546875 C3.15589398 11.16310892 0.35239437 6.56068129 -5.66796875 3.38671875 C-13.55290636 0.241521 -19.4981387 2.02056207 -26.5234375 6.171875 Z " fill="#55BA47" transform="translate(1455.7734375,283.453125)"/>
<path d="M0 0 C1.98 0.495 1.98 0.495 4 1 C4.33 16.84 4.66 32.68 5 49 C9.08375 44.936875 13.1675 40.87375 17.375 36.6875 C18.66196777 35.40963623 19.94893555 34.13177246 21.27490234 32.81518555 C22.29544636 31.79756278 23.31580408 30.77975313 24.3359375 29.76171875 C25.13028198 28.97504822 25.13028198 28.97504822 25.94067383 28.17248535 C28.24229644 25.87141101 30.18742096 23.71886855 32 21 C34.625 20.8125 34.625 20.8125 37 21 C37.29483328 24.03355809 37.34520864 25.52137878 35.53125 28.03637695 C34.52578125 29.00256958 34.52578125 29.00256958 33.5 29.98828125 C32.778125 30.69404297 32.05625 31.39980469 31.3125 32.12695312 C30.549375 32.84818359 29.78625 33.56941406 29 34.3125 C28.236875 35.05306641 27.47375 35.79363281 26.6875 36.55664062 C24.80239968 38.38283156 22.90664431 40.19635759 21 42 C22.19263636 45.28474707 23.39945124 47.79277316 25.71484375 50.41015625 C26.23626953 51.00763672 26.75769531 51.60511719 27.29492188 52.22070312 C27.83697266 52.82849609 28.37902344 53.43628906 28.9375 54.0625 C37.95286637 64.30870681 37.95286637 64.30870681 38.1875 67.75 C38.125625 68.4925 38.06375 69.235 38 70 C35.734375 70.26953125 35.734375 70.26953125 33 70 C31.078125 68.19921875 31.078125 68.19921875 29.25 65.6875 C28.57195312 64.78644531 27.89390625 63.88539063 27.1953125 62.95703125 C26.47085937 61.98121094 25.74640625 61.00539063 25 60 C23.38819057 57.94790397 21.76342477 55.90590917 20.125 53.875 C19.38507813 52.94429688 18.64515625 52.01359375 17.8828125 51.0546875 C17.26148438 50.37664062 16.64015625 49.69859375 16 49 C12.91042553 49 11.68969492 50.71109481 9.4375 52.75 C4.72425038 57.48590947 3.97595893 61.13965503 3.90234375 67.69140625 C3.93457031 68.45324219 3.96679688 69.21507812 4 70 C2.35 70 0.7 70 -1 70 C-1.02312566 61.02079223 -1.04091623 52.04159463 -1.05181217 43.06236362 C-1.05704051 38.89337172 -1.06413726 34.72440013 -1.07543945 30.55541992 C-1.08627008 26.53542314 -1.09227721 22.51544595 -1.09487724 18.49543571 C-1.09673118 16.95837025 -1.10035119 15.42130591 -1.10573006 13.88424873 C-1.11294284 11.73864513 -1.11399084 9.59312345 -1.11352539 7.44750977 C-1.115746 6.22395279 -1.11796661 5.00039581 -1.12025452 3.73976135 C-1 1 -1 1 0 0 Z " fill="#55BA47" transform="translate(1519,260)"/>
<path d="M0 0 C5.03464055 2.92400392 7.81036751 6.8047913 9.5625 12.3125 C9.72807141 15.13629366 9.79603164 17.85578634 9.7578125 20.67578125 C9.7549826 21.46776413 9.75215271 22.25974701 9.74923706 23.07572937 C9.73808863 25.59230999 9.71299422 28.10852789 9.6875 30.625 C9.67746329 32.33658338 9.66833864 34.04817237 9.66015625 35.75976562 C9.63816681 39.94414906 9.60367408 44.12826314 9.5625 48.3125 C7.9125 48.3125 6.2625 48.3125 4.5625 48.3125 C4.532771 46.95886353 4.532771 46.95886353 4.50244141 45.57788086 C4.42394835 42.20246242 4.33724332 38.82745602 4.24511719 35.45239258 C4.20703573 33.99674482 4.172148 32.54100963 4.140625 31.08520508 C4.09451745 28.98226852 4.03660453 26.87992325 3.9765625 24.77734375 C3.9451416 23.515271 3.9137207 22.25319824 3.88134766 20.95288086 C3.45974506 16.13931555 2.08302211 11.87406632 0.5625 7.3125 C-4.21191143 4.62689357 -10.3160921 3.53764346 -15.65625 4.86328125 C-20.2093398 6.79154876 -22.46279552 9.00463541 -24.62768555 13.61743164 C-26.43406364 19.62907101 -26.12670274 26.08148819 -26.1875 32.3125 C-26.21570128 33.7695661 -26.24563444 35.22659977 -26.27734375 36.68359375 C-26.35071509 40.22641061 -26.40058952 43.76909381 -26.4375 47.3125 C-28.09364657 47.69468767 -29.76207024 48.02645102 -31.4375 48.3125 C-32.4375 47.3125 -32.4375 47.3125 -32.55775452 45.40794373 C-32.55553391 44.57521439 -32.55331329 43.74248505 -32.55102539 42.88452148 C-32.55094986 41.94362167 -32.55087433 41.00272186 -32.55079651 40.03330994 C-32.54563522 39.01040359 -32.54047394 37.98749725 -32.53515625 36.93359375 C-32.5337413 35.89179459 -32.53232635 34.84999542 -32.53086853 33.77662659 C-32.5252508 30.43438906 -32.5126953 27.09221743 -32.5 23.75 C-32.49498728 21.49023534 -32.49042398 19.23046963 -32.48632812 16.97070312 C-32.47527561 11.41794609 -32.45852024 5.86522775 -32.4375 0.3125 C-30.7875 -0.0175 -29.1375 -0.3475 -27.4375 -0.6875 C-26.7775 0.9625 -26.1175 2.6125 -25.4375 4.3125 C-24.96699219 3.96316406 -24.49648437 3.61382812 -24.01171875 3.25390625 C-23.38910156 2.79886719 -22.76648437 2.34382813 -22.125 1.875 C-21.51011719 1.42253906 -20.89523437 0.97007812 -20.26171875 0.50390625 C-14.50928236 -3.25303829 -6.06686027 -2.82816043 0 0 Z " fill="#55BA47" transform="translate(1223.4375,281.6875)"/>
<path d="M0 0 C1.80859375 1.46875 1.80859375 1.46875 3 3 C2.6875 5.1875 2.6875 5.1875 2 7 C-0.96610773 6.5861245 -3.59883797 6.17268564 -6.359375 4.984375 C-10.83376815 3.31640596 -15.29675066 3.42202773 -20 4 C-22.88715115 5.38145419 -22.88715115 5.38145419 -24 8 C-24.5705376 11.08226354 -24.5705376 11.08226354 -23 14 C-19.28911315 16.50062159 -14.88547567 17.69405145 -10.6875 19.14453125 C1.06754127 23.3523017 1.06754127 23.3523017 4 29 C4.92339619 33.75378036 4.48015266 37.03969468 2.3125 41.375 C-1.50277009 45.70584713 -5.31832739 47.55528311 -10.97265625 48.23828125 C-19.05746965 48.52540546 -26.69661185 46.12793115 -33 41 C-32.67 39.68 -32.34 38.36 -32 37 C-28.54261369 37.42163248 -25.96116616 38.0190362 -22.8125 39.5625 C-18.11849078 41.69995063 -13.05451457 41.59601473 -8 41 C-4.81060504 39.76997026 -4.81060504 39.76997026 -3 37 C-2.53260593 32.91649422 -2.53260593 32.91649422 -4.26220703 29.40014648 C-6.18499051 27.85095244 -7.69556337 27.2369755 -10.0546875 26.53515625 C-11.22451172 26.17067383 -11.22451172 26.17067383 -12.41796875 25.79882812 C-14.04774737 25.31041275 -15.67795262 24.8234186 -17.30859375 24.33789062 C-22.72984759 22.64542341 -27.03163632 20.94089839 -30.3203125 16.02734375 C-31.5731907 12.29031049 -30.91675415 8.76812921 -30 5 C-23.80398485 -5.96218066 -9.96500041 -4.37092978 0 0 Z " fill="#55BA47" transform="translate(1599,283)"/>
<path d="M0 0 C0.86496094 0.2784375 1.72992187 0.556875 2.62109375 0.84375 C3.58208984 1.16859375 3.58208984 1.16859375 4.5625 1.5 C5.0575 4.47 5.0575 4.47 5.5625 7.5 C4.2425 7.5 2.9225 7.5 1.5625 7.5 C1.2325 8.16 0.9025 8.82 0.5625 9.5 C-2.7375 9.5 -6.0375 9.5 -9.4375 9.5 C-8.4375 6.5 -8.4375 6.5 -7.4375 5.5 C-9.0875 5.5 -10.7375 5.5 -12.4375 5.5 C-12.7675 4.84 -13.0975 4.18 -13.4375 3.5 C-13.1075 3.17 -12.7775 2.84 -12.4375 2.5 C-13.4275 2.5 -14.4175 2.5 -15.4375 2.5 C-15.4375 3.16 -15.4375 3.82 -15.4375 4.5 C-17.4175 4.83 -19.3975 5.16 -21.4375 5.5 C-21.4375 14.41 -21.4375 23.32 -21.4375 32.5 C-26.0575 32.83 -30.6775 33.16 -35.4375 33.5 C-35.2961472 29.47896387 -35.14957747 25.45823159 -35 21.4375 C-34.96068359 20.30376953 -34.92136719 19.17003906 -34.88085938 18.00195312 C-34.28764205 2.35014205 -34.28764205 2.35014205 -32.4375 0.5 C-31.03558908 0.2734229 -29.6240381 0.10569154 -28.2109375 -0.03515625 C-26.90962891 -0.16567383 -26.90962891 -0.16567383 -25.58203125 -0.29882812 C-24.21111328 -0.4293457 -24.21111328 -0.4293457 -22.8125 -0.5625 C-21.92175781 -0.65337891 -21.03101563 -0.74425781 -20.11328125 -0.83789062 C-6.58006423 -2.16330879 -6.58006423 -2.16330879 0 0 Z " fill="#CECECA" transform="translate(950.4375,56.5)"/>
<path d="M0 0 C1.32 0.66 2.64 1.32 4 2 C4 6.62 4 11.24 4 16 C9.28 16 14.56 16 20 16 C20.33 17.32 20.66 18.64 21 20 C20 21 20 21 16.40234375 21.09765625 C14.91403133 21.0909822 13.42573568 21.07902183 11.9375 21.0625 C11.17888672 21.05798828 10.42027344 21.05347656 9.63867188 21.04882812 C7.75908129 21.0370068 5.87953101 21.01907078 4 21 C4.06882757 25.93010753 4.15676828 30.85936287 4.26245117 35.78881836 C4.29570863 37.46580559 4.32373808 39.14290497 4.34643555 40.82006836 C4.37996737 43.23079225 4.43227978 45.64048762 4.48828125 48.05078125 C4.49467117 48.80087967 4.5010611 49.55097809 4.50764465 50.32380676 C4.61354155 54.39383795 4.61354155 54.39383795 6.36328125 57.97851562 C8.81440902 59.50827675 10.83572884 59.28815075 13.6875 59.1875 C15.17830078 59.14689453 15.17830078 59.14689453 16.69921875 59.10546875 C17.45847656 59.07066406 18.21773437 59.03585937 19 59 C19.66 60.32 20.32 61.64 21 63 C18.13403678 65.86596322 15.54417519 65.71652531 11.60546875 66.0234375 C7.53678455 65.98683764 5.48149316 65.15852576 2 63 C-2.08705478 58.11961902 -2.55646757 54.61593876 -2.390625 48.5390625 C-2.38496521 47.74849457 -2.37930542 46.95792664 -2.37347412 46.1434021 C-2.35121487 43.63663273 -2.30104153 41.13133187 -2.25 38.625 C-2.22992133 36.9179895 -2.21167296 35.21095643 -2.1953125 33.50390625 C-2.15138484 29.33537804 -2.08243296 25.16793736 -2 21 C-4.31 21 -6.62 21 -9 21 C-8.67 19.35 -8.34 17.7 -8 16 C-6.02 16 -4.04 16 -2 16 C-2 11.05 -2 6.1 -2 1 C-1.34 0.67 -0.68 0.34 0 0 Z " fill="#55BA47" transform="translate(1309,265)"/>
<path d="M0 0 C0 1.65 0 3.3 0 5 C-0.97839844 5.23783203 -0.97839844 5.23783203 -1.9765625 5.48046875 C-8.31559034 7.17274609 -13.44709247 8.90440531 -17.10498047 14.77270508 C-20.46247654 21.60350087 -20.65846624 28.04425017 -20.75 35.5625 C-20.77964844 36.76197266 -20.80929687 37.96144531 -20.83984375 39.19726562 C-20.90998662 42.13157576 -20.96295872 45.06511693 -21 48 C-22.65614657 48.38218767 -24.32457024 48.71395102 -26 49 C-27 48 -27 48 -27.12025452 46.09544373 C-27.11803391 45.26271439 -27.11581329 44.42998505 -27.11352539 43.57202148 C-27.11344986 42.63112167 -27.11337433 41.69022186 -27.11329651 40.72080994 C-27.10813522 39.69790359 -27.10297394 38.67499725 -27.09765625 37.62109375 C-27.0962413 36.57929459 -27.09482635 35.53749542 -27.09336853 34.46412659 C-27.0877508 31.12188906 -27.0751953 27.77971743 -27.0625 24.4375 C-27.05748728 22.17773534 -27.05292398 19.91796963 -27.04882812 17.65820312 C-27.03777561 12.10544609 -27.02102024 6.55272775 -27 1 C-25.34385343 0.61781233 -23.67542976 0.28604898 -22 0 C-19.95301586 2.04698414 -20.29954307 6.30411241 -20 9 C-18.948125 7.88625 -18.948125 7.88625 -17.875 6.75 C-12.18068006 1.30325919 -7.8311257 -1.95778142 0 0 Z " fill="#55BA47" transform="translate(1507,281)"/>
<path d="M0 0 C1.796875 0.02734375 1.796875 0.02734375 4 1 C5.58470389 3.17752194 6.92718158 5.23776911 8.25 7.5625 C8.61351562 8.17802734 8.97703125 8.79355469 9.3515625 9.42773438 C10.2456088 10.94526033 11.12431628 12.47180439 12 14 C14.59369317 10.8255451 16.9999924 7.61364794 19.25 4.1875 C19.77078125 3.39730469 20.2915625 2.60710938 20.828125 1.79296875 C21.21484375 1.20128906 21.6015625 0.60960937 22 0 C23.32 0.33 24.64 0.66 26 1 C26 9.58 26 18.16 26 27 C24.68 27 23.36 27 22 27 C21.67 21.72 21.34 16.44 21 11 C18.69 14.3 16.38 17.6 14 21 C8.07470391 19.51867598 7.15897112 16.09743067 4 11 C3.67 16.28 3.34 21.56 3 27 C1.68 27 0.36 27 -1 27 C-1.02886537 22.68751391 -1.04675255 18.37505238 -1.0625 14.0625 C-1.07087891 12.83080078 -1.07925781 11.59910156 -1.08789062 10.33007812 C-1.09111328 9.16025391 -1.09433594 7.99042969 -1.09765625 6.78515625 C-1.10289307 5.70113525 -1.10812988 4.61711426 -1.11352539 3.50024414 C-1 1 -1 1 0 0 Z " fill="#474747" transform="translate(1481,46)"/>
<path d="M0 0 C2.31 0 4.62 0 7 0 C7 14.85 7 29.7 7 45 C4.36 45.66 1.72 46.32 -1 47 C-1.02527002 40.46721214 -1.04283292 33.93443679 -1.05493164 27.40161133 C-1.05997317 25.17732268 -1.06680623 22.95303737 -1.07543945 20.72875977 C-1.08751298 17.53921691 -1.09322996 14.34971771 -1.09765625 11.16015625 C-1.10281754 10.15912369 -1.10797882 9.15809113 -1.11329651 8.12672424 C-1.11337204 7.20584518 -1.11344757 6.28496613 -1.11352539 5.33618164 C-1.115746 4.52121719 -1.11796661 3.70625275 -1.12025452 2.86659241 C-1 1 -1 1 0 0 Z " fill="#1E8046" transform="translate(928,142)"/>
<path d="M0 0 C4.29 0 8.58 0 13 0 C14.17314026 2.76825188 15.33870215 5.53928486 16.5 8.3125 C16.83386719 9.09818359 17.16773438 9.88386719 17.51171875 10.69335938 C17.82753906 11.45068359 18.14335938 12.20800781 18.46875 12.98828125 C18.90864258 14.03302612 18.90864258 14.03302612 19.35742188 15.09887695 C20 17 20 17 20 20 C15.90336582 20.47042689 12.08020877 20.68181034 8 20 C5.32111653 17.77339556 4.24335078 15.20653622 3 12 C2.68546875 11.28328125 2.3709375 10.5665625 2.046875 9.828125 C0.60577698 6.34328797 0 3.80177971 0 0 Z " fill="#B9DCAB" transform="translate(930,260)"/>
<path d="M0 0 C1.299375 0.2475 1.299375 0.2475 2.625 0.5 C8.69761822 1.39266231 14.87966132 1.07639812 21 1 C21 4.63 21 8.26 21 12 C13.32408152 12.88228948 7.42981322 13.10511375 0 11 C0 7.37 0 3.74 0 0 Z " fill="#46A845" transform="translate(921,127)"/>
<path d="M0 0 C-2.24376927 7.77840015 -6.67600131 13.97192177 -12 20 C-12.99 20.33 -13.98 20.66 -15 21 C-16 20 -16 20 -16.1328125 17.99609375 C-16.11624524 12.57031481 -15.79527078 7.36807773 -15 2 C-9.87080814 -0.10428384 -5.4389165 -0.21755666 0 0 Z " fill="#207A42" transform="translate(944,96)"/>
<path d="M0 0 C6.93 0 13.86 0 21 0 C21 1.32 21 2.64 21 4 C18.03 4 15.06 4 12 4 C12 11.59 12 19.18 12 27 C11.01 27 10.02 27 9 27 C9 19.41 9 11.82 9 4 C6.03 4 3.06 4 0 4 C0 2.68 0 1.36 0 0 Z " fill="#474747" transform="translate(1455,46)"/>
<path d="M0 0 C0.86882813 0.0721875 1.73765625 0.144375 2.6328125 0.21875 C3.78523437 0.3115625 4.93765625 0.404375 6.125 0.5 C7.26195312 0.5928125 8.39890625 0.685625 9.5703125 0.78125 C12.72597149 0.9825221 15.83921165 1.03842904 19 1 C18.34 2.32 17.68 3.64 17 5 C13.37 5 9.74 5 6 5 C6.00523682 6.61898193 6.01047363 8.23796387 6.01586914 9.90600586 C6.0340315 15.93871503 6.04547299 21.97142181 6.05493164 28.00415039 C6.05994622 30.61027432 6.0667595 33.21639546 6.07543945 35.82250977 C6.08763123 39.57829479 6.0932572 43.33404247 6.09765625 47.08984375 C6.10281754 48.24645004 6.10797882 49.40305634 6.11329651 50.5947113 C6.11372364 56.81787006 5.82509576 62.83033928 5 69 C4.67 69 4.34 69 4 69 C3.67 46.89 3.34 24.78 3 2 C2.01 2 1.02 2 0 2 C0 1.34 0 0.68 0 0 Z " fill="#4DB54D" transform="translate(922,138)"/>
<path d="M0 0 C1.299375 0.2475 1.299375 0.2475 2.625 0.5 C8.69761822 1.39266231 14.87966132 1.07639812 21 1 C21.04254356 2.99954746 21.04080783 5.00041636 21 7 C20 8 20 8 18.15234375 8.09765625 C16.1015625 8.06510417 14.05078125 8.03255208 12 8 C12 7.34 12 6.68 12 6 C11.01 5.67 10.02 5.34 9 5 C9 5.99 9 6.98 9 8 C1.125 7.125 1.125 7.125 0 6 C-0.04080783 4.00041636 -0.04254356 1.99954746 0 0 Z " fill="#46A946" transform="translate(921,119)"/>
<path d="M0 0 C4.62 0 9.24 0 14 0 C16 4 16 4 16 7 C5.19062931 7.91777676 5.19062931 7.91777676 2.3125 5.69921875 C0 2.13694853 0 2.13694853 0 0 Z " fill="#F3F9F1" transform="translate(934,273)"/>
<path d="M0 0 C6.75 0.875 6.75 0.875 9 2 C9 2.66 9 3.32 9 4 C8.01 4.495 8.01 4.495 7 5 C11.62 5 16.24 5 21 5 C21 5.99 21 6.98 21 8 C13.46462229 8.94351599 7.33152608 9.07726572 0 7 C0 4.69 0 2.38 0 0 Z " fill="#298544" transform="translate(921,131)"/>
<path d="M0 0 C1.11328125 2.203125 1.11328125 2.203125 1.11328125 5.203125 C-3.17671875 5.203125 -7.46671875 5.203125 -11.88671875 5.203125 C-12.54671875 3.223125 -13.20671875 1.243125 -13.88671875 -0.796875 C-11.95273067 -1.07273066 -10.01417966 -1.31674915 -8.07421875 -1.546875 C-6.99527344 -1.68609375 -5.91632812 -1.8253125 -4.8046875 -1.96875 C-1.88671875 -1.796875 -1.88671875 -1.796875 0 0 Z " fill="#D0E7C7" transform="translate(945.88671875,267.796875)"/>
<path d="M0 0 C1.134375 0.020625 2.26875 0.04125 3.4375 0.0625 C3.4375 0.3925 3.4375 0.7225 3.4375 1.0625 C1.4575 1.3925 -0.5225 1.7225 -2.5625 2.0625 C-2.8925 15.2625 -3.2225 28.4625 -3.5625 42.0625 C-1.2525 42.0625 1.0575 42.0625 3.4375 42.0625 C3.4375 43.0525 3.4375 44.0425 3.4375 45.0625 C0.7975 45.7225 -1.8425 46.3825 -4.5625 47.0625 C-4.58777002 40.52971214 -4.60533292 33.99693679 -4.61743164 27.46411133 C-4.62247317 25.23982268 -4.62930623 23.01553737 -4.63793945 20.79125977 C-4.65001298 17.60171691 -4.65572996 14.41221771 -4.66015625 11.22265625 C-4.66531754 10.22162369 -4.67047882 9.22059113 -4.67579651 8.18922424 C-4.67587204 7.26834518 -4.67594757 6.34746613 -4.67602539 5.39868164 C-4.678246 4.58371719 -4.68046661 3.76875275 -4.68275452 2.92909241 C-4.46133302 -0.5078154 -3.55794927 0.06242016 0 0 Z " fill="#2A8C49" transform="translate(931.5625,141.9375)"/>
<path d="M0 0 C5.875 0.875 5.875 0.875 7 2 C7.07205511 3.68608966 7.08386068 5.37500659 7.0625 7.0625 C7.05347656 7.98160156 7.04445313 8.90070313 7.03515625 9.84765625 C7.02355469 10.55792969 7.01195312 11.26820312 7 12 C1.125 11.125 1.125 11.125 0 10 C-0.07205511 8.31391034 -0.08386068 6.62499341 -0.0625 4.9375 C-0.05347656 4.01839844 -0.04445313 3.09929687 -0.03515625 2.15234375 C-0.02355469 1.44207031 -0.01195312 0.73179688 0 0 Z " fill="#D6D7D8" transform="translate(920,62)"/>
<path d="M0 0 C-0.56589844 0.78503906 -1.13179687 1.57007812 -1.71484375 2.37890625 C-2.44832031 3.42949219 -3.18179688 4.48007813 -3.9375 5.5625 C-4.66839844 6.59503906 -5.39929688 7.62757812 -6.15234375 8.69140625 C-8.13694862 12.24523357 -8.67998651 14.97189369 -9 19 C-9.33 19 -9.66 19 -10 19 C-10.11269443 12.8894576 -9.89604368 7.04829486 -9 1 C-3.375 -1.125 -3.375 -1.125 0 0 Z " fill="#3B9346" transform="translate(938,97)"/>
<path d="M0 0 C3.60356192 2.40237462 3.67315192 3.42113999 4.6875 7.5 C4.93886719 8.4796875 5.19023438 9.459375 5.44921875 10.46875 C6 13 6 13 6 15 C4.02 15 2.04 15 0 15 C0 10.05 0 5.1 0 0 Z " fill="#D2D3D5" transform="translate(950,78)"/>
<path d="M0 0 C1.32 0 2.64 0 4 0 C4 4.29 4 8.58 4 13 C2.68 13 1.36 13 0 13 C0 8.71 0 4.42 0 0 Z " fill="#68BF63" transform="translate(935,143)"/>
<path d="M0 0 C1.299375 0.2475 1.299375 0.2475 2.625 0.5 C8.69761822 1.39266231 14.87966132 1.07639812 21 1 C21 1.66 21 2.32 21 3 C18.07313088 4.46343456 15.44546387 4.1704426 12.1875 4.1875 C10.96417969 4.20167969 9.74085938 4.21585938 8.48046875 4.23046875 C5.17328877 4.01147479 2.9608102 3.42682853 0 2 C0 1.34 0 0.68 0 0 Z " fill="#217D43" transform="translate(921,127)"/>
<path d="M0 0 C1.299375 0.2475 1.299375 0.2475 2.625 0.5 C8.69761822 1.39266231 14.87966132 1.07639812 21 1 C20.67 1.99 20.34 2.98 20 4 C17.79194476 4.0544452 15.58349446 4.09299283 13.375 4.125 C12.14523437 4.14820312 10.91546875 4.17140625 9.6484375 4.1953125 C6.05683959 4.0030428 3.33338825 3.30258556 0 2 C0 1.34 0 0.68 0 0 Z " fill="#217D43" transform="translate(921,119)"/>
<path d="M0 0 C1.32 0.33 2.64 0.66 4 1 C3.67 1.66 3.34 2.32 3 3 C7.455 2.505 7.455 2.505 12 2 C12 2.66 12 3.32 12 4 C4.75542624 5.86956742 -1.985077 5.38805889 -9 3 C-8.67 2.34 -8.34 1.68 -8 1 C-5.36 1.66 -2.72 2.32 0 3 C0 2.01 0 1.02 0 0 Z " fill="#4AAE46" transform="translate(930,124)"/>
<path d="M0 0 C4.62 0 9.24 0 14 0 C14 0.99 14 1.98 14 3 C9.71 3 5.42 3 1 3 C0.67 2.01 0.34 1.02 0 0 Z " fill="#E2F0DD" transform="translate(934,273)"/>
<path d="M0 0 C0 3.60047801 -0.83210883 4.41639118 -2.9375 7.25 C-5.76424138 11.31385644 -6.79088622 14.08582609 -7 19 C-7.33 19 -7.66 19 -8 19 C-8.78816568 9.97988166 -8.78816568 9.97988166 -5.6875 6.125 C-4.800625 5.42375 -3.91375 4.7225 -3 4 C-1.97186389 2.68824014 -0.95915568 1.3630107 0 0 Z " fill="#318B45" transform="translate(936,97)"/>
<path d="M0 0 C0.66 0 1.32 0 2 0 C2.66 2.97 3.32 5.94 4 9 C2.02 9 0.04 9 -2 9 C-1.34 8.67 -0.68 8.34 0 8 C0 5.36 0 2.72 0 0 Z " fill="#C6CAC6" transform="translate(952,84)"/>
<path d="M0 0 C0.66 0.33 1.32 0.66 2 1 C2 1.99 2 2.98 2 4 C0.5199159 3.88637738 -0.95910074 3.75877092 -2.4375 3.625 C-3.26121094 3.55539063 -4.08492187 3.48578125 -4.93359375 3.4140625 C-5.61550781 3.27742188 -6.29742188 3.14078125 -7 3 C-7.33 2.34 -7.66 1.68 -8 1 C-5.26094655 -0.36952673 -3.02912668 -0.12621361 0 0 Z " fill="#C9CACC" transform="translate(938,65)"/>
<path d="M0 0 C3 3 3 3 3.14453125 5.2265625 C3.03496094 6.01804687 2.92539062 6.80953125 2.8125 7.625 C2.71582031 8.42164062 2.61914062 9.21828125 2.51953125 10.0390625 C2.34808594 10.68617187 2.17664063 11.33328125 2 12 C1.01 12.495 1.01 12.495 0 13 C0 8.71 0 4.42 0 0 Z " fill="#E4E4E5" transform="translate(930,67)"/>
<path d="M0 0 C0 0.66 0 1.32 0 2 C-2.95664519 3.4783226 -5.74229737 3.06032783 -9 3 C-9 2.34 -9 1.68 -9 1 C-5.8035914 -0.06546953 -3.34252724 -0.07427838 0 0 Z " fill="#237E43" transform="translate(942,132)"/>
<path d="M0 0 C4.455 0.99 4.455 0.99 9 2 C9 2.66 9 3.32 9 4 C6.36 3.67 3.72 3.34 1 3 C0.67 2.01 0.34 1.02 0 0 Z " fill="#227D43" transform="translate(921,123)"/>
<path d="M0 0 C-0.33 0.99 -0.66 1.98 -1 3 C-3.64 3 -6.28 3 -9 3 C-9 2.34 -9 1.68 -9 1 C-5.846632 0.29925156 -3.27275026 0 0 0 Z " fill="#217C43" transform="translate(942,124)"/>
<path d="M0 0 C1.32 0.33 2.64 0.66 4 1 C3.67 1.99 3.34 2.98 3 4 C0.69 4 -1.62 4 -4 4 C-2.68 3.67 -1.36 3.34 0 3 C0 2.01 0 1.02 0 0 Z " fill="#52B646" transform="translate(930,132)"/>
</svg>
